<svg width="242" height="113" viewBox="0 0 242 113" fill="none" xmlns="http://www.w3.org/2000/svg">
<rect x="0.9" y="0.9" width="50.2" height="50.2" rx="25.1" stroke="black" stroke-opacity="0.3" stroke-width="1.8" stroke-dasharray="3.6 3.6"/>
<mask id="path-3-outside-1_3954_7351" maskUnits="userSpaceOnUse" x="16" y="12.5" width="19" height="26" fill="black">
<rect fill="white" x="16" y="12.5" width="19" height="26"/>
<path d="M32.5273 16.8636H23.2L23.1018 21.4782C23.4073 21.3691 23.7891 21.2927 24.2473 21.2491C24.7273 21.2055 25.1745 21.1836 25.5891 21.1836C26.7236 21.1836 27.76 21.3691 28.6982 21.74C29.6582 22.0891 30.4764 22.6018 31.1527 23.2782C31.8291 23.9545 32.3527 24.7618 32.7236 25.7C33.1164 26.6382 33.3127 27.6964 33.3127 28.8745C33.3127 30.1182 33.0945 31.2418 32.6582 32.2455C32.2436 33.2273 31.6545 34.0673 30.8909 34.7655C30.1491 35.4418 29.2655 35.9655 28.24 36.3364C27.2145 36.7073 26.1127 36.8927 24.9345 36.8927C23.08 36.8927 21.4982 36.4564 20.1891 35.5836C18.9018 34.7109 17.9855 33.38 17.44 31.5909L21.5636 30.4782C21.8255 31.3073 22.2727 31.9618 22.9055 32.4418C23.5382 32.9218 24.3564 33.1618 25.36 33.1618C25.9491 33.1618 26.4836 33.0636 26.9636 32.8673C27.4655 32.6709 27.8909 32.3982 28.24 32.0491C28.6109 31.6782 28.8945 31.2527 29.0909 30.7727C29.2873 30.2927 29.3855 29.7691 29.3855 29.2018C29.3855 28.3945 29.2327 27.7073 28.9273 27.14C28.6436 26.5727 28.2509 26.1145 27.7491 25.7655C27.2473 25.3945 26.6691 25.1327 26.0145 24.98C25.36 24.8055 24.6727 24.7182 23.9527 24.7182C23.1018 24.7182 22.2509 24.8164 21.4 25.0127C20.5709 25.2091 19.8073 25.4818 19.1091 25.8309L19.3382 13.3291H32.5273V16.8636Z"/>
</mask>
<path d="M32.5273 16.8636V17.6818H33.3455V16.8636H32.5273ZM23.2 16.8636V16.0455H22.399L22.382 16.8462L23.2 16.8636ZM23.1018 21.4782L22.2838 21.4608L22.2586 22.6481L23.377 22.2487L23.1018 21.4782ZM24.2473 21.2491L24.1732 20.4343L24.1697 20.4346L24.2473 21.2491ZM28.6982 21.74L28.3974 22.5009L28.4079 22.505L28.4186 22.5089L28.6982 21.74ZM32.7236 25.7L31.9628 26.0008L31.9658 26.0084L31.9689 26.0159L32.7236 25.7ZM32.6582 32.2455L31.9078 31.9192L31.9044 31.9272L32.6582 32.2455ZM30.8909 34.7655L31.4422 35.3701L31.443 35.3693L30.8909 34.7655ZM28.24 36.3364L27.9617 35.567L28.24 36.3364ZM20.1891 35.5836L19.7299 36.2609L19.7352 36.2644L20.1891 35.5836ZM17.44 31.5909L17.2268 30.801L16.4109 31.0211L16.6574 31.8295L17.44 31.5909ZM21.5636 30.4782L22.3438 30.2318L22.1077 29.4839L21.3505 29.6883L21.5636 30.4782ZM22.9055 32.4418L22.411 33.0937H22.411L22.9055 32.4418ZM26.9636 32.8673L26.6655 32.1053L26.6538 32.11L26.9636 32.8673ZM28.24 32.0491L27.6615 31.4705H27.6615L28.24 32.0491ZM29.0909 30.7727L28.3336 30.4629L29.0909 30.7727ZM28.9273 27.14L28.1955 27.5059L28.201 27.517L28.2069 27.5279L28.9273 27.14ZM27.7491 25.7655L27.2628 26.4234L27.2722 26.4304L27.2819 26.4371L27.7491 25.7655ZM26.0145 24.98L25.8037 25.7706L25.8161 25.7739L25.8286 25.7768L26.0145 24.98ZM21.4 25.0127L21.216 24.2155L21.2114 24.2166L21.4 25.0127ZM19.1091 25.8309L18.291 25.8159L18.2663 27.1671L19.475 26.5627L19.1091 25.8309ZM19.3382 13.3291V12.5109H18.5349L18.5201 13.3141L19.3382 13.3291ZM32.5273 13.3291H33.3455V12.5109H32.5273V13.3291ZM32.5273 16.0455H23.2V17.6818H32.5273V16.0455ZM22.382 16.8462L22.2838 21.4608L23.9198 21.4956L24.018 16.881L22.382 16.8462ZM23.377 22.2487C23.5982 22.1697 23.9084 22.1032 24.3248 22.0636L24.1697 20.4346C23.6698 20.4822 23.2163 20.5685 22.8266 20.7077L23.377 22.2487ZM24.3213 22.0639C24.7806 22.0222 25.2029 22.0018 25.5891 22.0018V20.3655C25.1462 20.3655 24.674 20.3887 24.1732 20.4343L24.3213 22.0639ZM25.5891 22.0018C26.6334 22.0018 27.5662 22.1723 28.3974 22.5009L28.999 20.9791C27.9538 20.5659 26.8138 20.3655 25.5891 20.3655V22.0018ZM28.4186 22.5089C29.274 22.82 29.988 23.2706 30.5742 23.8567L31.7313 22.6996C30.9647 21.9331 30.0424 21.3582 28.9778 20.9711L28.4186 22.5089ZM30.5742 23.8567C31.1671 24.4497 31.6307 25.1609 31.9628 26.0008L33.4845 25.3992C33.0748 24.3627 32.4911 23.4594 31.7313 22.6996L30.5742 23.8567ZM31.9689 26.0159C32.3137 26.8395 32.4945 27.7878 32.4945 28.8745H34.1309C34.1309 27.6049 33.9191 26.4369 33.4784 25.3841L31.9689 26.0159ZM32.4945 28.8745C32.4945 30.0212 32.2938 31.0317 31.9079 31.9192L33.4085 32.5717C33.8953 31.452 34.1309 30.2152 34.1309 28.8745H32.4945ZM31.9044 31.9272C31.5343 32.8038 31.0128 33.5454 30.3388 34.1616L31.443 35.3693C32.2963 34.5891 32.9529 33.6508 33.4119 32.5637L31.9044 31.9272ZM30.3397 34.1609C29.6837 34.7589 28.895 35.2294 27.9617 35.567L28.5183 37.1058C29.6359 36.7015 30.6144 36.1247 31.4422 35.3701L30.3397 34.1609ZM27.9617 35.567C27.0324 35.9031 26.0255 36.0745 24.9345 36.0745V37.7109C26.2 37.7109 27.3967 37.5115 28.5183 37.1058L27.9617 35.567ZM24.9345 36.0745C23.2121 36.0745 21.795 35.6709 20.6429 34.9029L19.7352 36.2644C21.2013 37.2418 22.9479 37.7109 24.9345 37.7109V36.0745ZM20.6482 34.9064C19.5454 34.1588 18.725 33.0001 18.2226 31.3523L16.6574 31.8295C17.2459 33.7599 18.2582 35.2631 19.73 36.2609L20.6482 34.9064ZM17.6532 32.3808L21.7768 31.2681L21.3505 29.6883L17.2268 30.801L17.6532 32.3808ZM20.7834 30.7246C21.0912 31.6991 21.6305 32.5016 22.411 33.0937L23.4 31.79C22.9149 31.422 22.5597 30.9155 22.3438 30.2318L20.7834 30.7246ZM22.411 33.0937C23.2198 33.7072 24.2255 33.98 25.36 33.98V32.3436C24.4872 32.3436 23.8566 32.1364 23.4 31.79L22.411 33.0937ZM25.36 33.98C26.041 33.98 26.6826 33.8662 27.2734 33.6245L26.6538 32.11C26.2846 32.261 25.8572 32.3436 25.36 32.3436V33.98ZM27.2618 33.6292C27.859 33.3955 28.3826 33.0636 28.8185 32.6276L27.6615 31.4705C27.3992 31.7328 27.0719 31.9463 26.6655 32.1053L27.2618 33.6292ZM28.8185 32.6276C29.2654 32.1808 29.6102 31.6643 29.8482 31.0825L28.3336 30.4629C28.1789 30.8412 27.9564 31.1756 27.6615 31.4705L28.8185 32.6276ZM29.8482 31.0825C30.0884 30.4953 30.2036 29.8653 30.2036 29.2018H28.5673C28.5673 29.6729 28.4862 30.0901 28.3336 30.4629L29.8482 31.0825ZM30.2036 29.2018C30.2036 28.2928 30.0316 27.465 29.6477 26.7521L28.2069 27.5279C28.4339 27.9495 28.5673 28.4963 28.5673 29.2018H30.2036ZM29.6591 26.7741C29.3166 26.0892 28.8348 25.5241 28.2163 25.0938L27.2819 26.4371C27.667 26.705 27.9707 27.0563 28.1955 27.5059L29.6591 26.7741ZM28.2354 25.1075C27.6372 24.6653 26.9551 24.3593 26.2005 24.1832L25.8286 25.7768C26.3831 25.9062 26.8573 26.1237 27.2628 26.4234L28.2354 25.1075ZM26.2254 24.1894C25.4979 23.9954 24.7394 23.9 23.9527 23.9V25.5364C24.606 25.5364 25.2221 25.6155 25.8037 25.7706L26.2254 24.1894ZM23.9527 23.9C23.0383 23.9 22.1257 24.0056 21.216 24.2155L21.584 25.81C22.3761 25.6271 23.1654 25.5364 23.9527 25.5364V23.9ZM21.2114 24.2166C20.3265 24.4262 19.5027 24.7194 18.7432 25.0991L19.475 26.5627C20.1119 26.2443 20.8153 25.992 21.5886 25.8089L21.2114 24.2166ZM19.9271 25.8459L20.1562 13.3441L18.5201 13.3141L18.291 25.8159L19.9271 25.8459ZM19.3382 14.1473H32.5273V12.5109H19.3382V14.1473ZM31.7091 13.3291V16.8636H33.3455V13.3291H31.7091Z" fill="black" fill-opacity="0.46" mask="url(#path-3-outside-1_3954_7351)"/>
<rect x="62" y="21" width="130" height="3" rx="1.5" fill="#969696" fill-opacity="0.21"/>
<path d="M67.088 36.004C66.92 35.732 66.696 35.536 66.416 35.416C66.136 35.288 65.844 35.224 65.54 35.224C65.316 35.224 65.096 35.252 64.88 35.308C64.664 35.364 64.468 35.448 64.292 35.56C64.124 35.672 63.988 35.82 63.884 36.004C63.78 36.188 63.728 36.404 63.728 36.652C63.728 36.844 63.756 37.016 63.812 37.168C63.876 37.312 63.976 37.444 64.112 37.564C64.248 37.684 64.432 37.796 64.664 37.9C64.896 38.004 65.18 38.108 65.516 38.212C65.844 38.316 66.16 38.428 66.464 38.548C66.776 38.668 67.048 38.82 67.28 39.004C67.52 39.188 67.708 39.42 67.844 39.7C67.988 39.972 68.06 40.316 68.06 40.732C68.06 41.156 67.976 41.524 67.808 41.836C67.64 42.148 67.416 42.408 67.136 42.616C66.864 42.816 66.548 42.964 66.188 43.06C65.828 43.164 65.456 43.216 65.072 43.216C64.824 43.216 64.576 43.192 64.328 43.144C64.08 43.104 63.84 43.04 63.608 42.952C63.384 42.856 63.172 42.736 62.972 42.592C62.772 42.44 62.6 42.256 62.456 42.04L63.32 41.332C63.504 41.644 63.76 41.88 64.088 42.04C64.416 42.2 64.764 42.28 65.132 42.28C65.348 42.28 65.564 42.248 65.78 42.184C66.004 42.12 66.204 42.028 66.38 41.908C66.556 41.78 66.7 41.624 66.812 41.44C66.924 41.256 66.98 41.044 66.98 40.804C66.98 40.54 66.936 40.328 66.848 40.168C66.76 40 66.624 39.856 66.44 39.736C66.256 39.616 66.024 39.508 65.744 39.412C65.464 39.316 65.136 39.204 64.76 39.076C64.456 38.98 64.176 38.872 63.92 38.752C63.664 38.624 63.44 38.472 63.248 38.296C63.064 38.112 62.916 37.896 62.804 37.648C62.7 37.392 62.648 37.088 62.648 36.736C62.648 36.328 62.728 35.972 62.888 35.668C63.048 35.364 63.264 35.112 63.536 34.912C63.808 34.704 64.116 34.548 64.46 34.444C64.804 34.34 65.164 34.288 65.54 34.288C66.02 34.288 66.456 34.364 66.848 34.516C67.248 34.66 67.604 34.916 67.916 35.284L67.088 36.004ZM77.424 35.44H74.616V43H73.608V35.44H70.8V34.504H77.424V35.44ZM80.6146 34.504H85.9546V35.44H81.6226V38.104H85.6666V39.04H81.6226V42.064H86.1706V43H80.6146V34.504ZM89.7279 34.504H92.2479C92.6399 34.504 93.0119 34.544 93.3639 34.624C93.7239 34.696 94.0399 34.824 94.3119 35.008C94.5919 35.184 94.8119 35.424 94.9719 35.728C95.1399 36.024 95.2239 36.392 95.2239 36.832C95.2239 37.296 95.1359 37.68 94.9599 37.984C94.7839 38.288 94.5559 38.528 94.2759 38.704C94.0039 38.88 93.7039 39.004 93.3759 39.076C93.0479 39.148 92.7359 39.184 92.4399 39.184H90.7359V43H89.7279V34.504ZM90.7359 38.248H92.4399C92.9439 38.248 93.3519 38.136 93.6639 37.912C93.9839 37.68 94.1439 37.324 94.1439 36.844C94.1439 36.364 93.9839 36.012 93.6639 35.788C93.3519 35.556 92.9439 35.44 92.4399 35.44H90.7359V38.248ZM108.813 35.44H105.345L105.309 37.732C105.469 37.652 105.645 37.6 105.837 37.576C106.037 37.544 106.225 37.528 106.401 37.528C106.809 37.528 107.177 37.6 107.505 37.744C107.841 37.88 108.129 38.076 108.369 38.332C108.609 38.58 108.793 38.876 108.921 39.22C109.049 39.556 109.113 39.924 109.113 40.324C109.113 40.748 109.037 41.136 108.885 41.488C108.741 41.832 108.537 42.128 108.273 42.376C108.017 42.616 107.709 42.804 107.349 42.94C106.997 43.076 106.613 43.144 106.197 43.144C105.549 43.144 105.025 43.004 104.625 42.724C104.233 42.444 103.921 42.068 103.689 41.596L104.697 41.212C104.841 41.532 105.049 41.792 105.321 41.992C105.601 42.184 105.921 42.28 106.281 42.28C106.537 42.28 106.773 42.236 106.989 42.148C107.213 42.052 107.405 41.92 107.565 41.752C107.733 41.576 107.865 41.368 107.961 41.128C108.057 40.888 108.105 40.62 108.105 40.324C108.105 40.012 108.049 39.736 107.937 39.496C107.833 39.256 107.685 39.056 107.493 38.896C107.309 38.728 107.089 38.604 106.833 38.524C106.577 38.436 106.301 38.392 106.005 38.392C105.717 38.392 105.421 38.444 105.117 38.548C104.813 38.644 104.533 38.768 104.277 38.92L104.361 34.504H108.813V35.44Z" fill="black" fill-opacity="0.5"/>
<path d="M63.456 54.672H67.44C68.1653 54.672 68.7627 54.7733 69.232 54.976C69.7013 55.168 70.0693 55.4187 70.336 55.728C70.6133 56.0267 70.8053 56.368 70.912 56.752C71.0187 57.1253 71.072 57.488 71.072 57.84C71.072 58.2027 71.008 58.5547 70.88 58.896C70.752 59.2267 70.5653 59.5307 70.32 59.808C70.0853 60.0747 69.792 60.304 69.44 60.496C69.0987 60.6773 68.7147 60.7893 68.288 60.832L71.504 66H69.584L66.704 61.008H64.992V66H63.456V54.672ZM64.992 59.664H67.008C67.3067 59.664 67.6 59.6427 67.888 59.6C68.1867 59.5467 68.448 59.456 68.672 59.328C68.9067 59.2 69.0933 59.0187 69.232 58.784C69.3707 58.5387 69.44 58.224 69.44 57.84C69.44 57.456 69.3707 57.1467 69.232 56.912C69.0933 56.6667 68.9067 56.48 68.672 56.352C68.448 56.224 68.1867 56.1387 67.888 56.096C67.6 56.0427 67.3067 56.016 67.008 56.016H64.992V59.664ZM73.9573 62.736C73.9573 63.0667 74.0266 63.3707 74.1653 63.648C74.3146 63.9147 74.5066 64.144 74.7413 64.336C74.9759 64.528 75.2479 64.6773 75.5573 64.784C75.8666 64.8907 76.1866 64.944 76.5173 64.944C76.9653 64.944 77.3546 64.8427 77.6853 64.64C78.0159 64.4267 78.3199 64.1493 78.5973 63.808L79.6853 64.64C78.8853 65.6747 77.7653 66.192 76.3253 66.192C75.7279 66.192 75.1839 66.0907 74.6933 65.888C74.2133 65.6853 73.8026 65.408 73.4613 65.056C73.1306 64.6933 72.8746 64.272 72.6933 63.792C72.5119 63.3013 72.4213 62.7733 72.4213 62.208C72.4213 61.6427 72.5173 61.12 72.7093 60.64C72.9119 60.1493 73.1839 59.728 73.5253 59.376C73.8773 59.0133 74.2933 58.7307 74.7733 58.528C75.2533 58.3253 75.7759 58.224 76.3413 58.224C77.0133 58.224 77.5786 58.3413 78.0373 58.576C78.5066 58.8107 78.8906 59.12 79.1893 59.504C79.4879 59.8773 79.7013 60.304 79.8293 60.784C79.9679 61.2533 80.0373 61.7333 80.0373 62.224V62.736H73.9573ZM78.5013 61.584C78.4906 61.264 78.4373 60.9707 78.3413 60.704C78.2559 60.4373 78.1226 60.208 77.9413 60.016C77.7599 59.8133 77.5306 59.6587 77.2533 59.552C76.9866 59.4347 76.6719 59.376 76.3093 59.376C75.9573 59.376 75.6319 59.4453 75.3333 59.584C75.0453 59.712 74.7999 59.8827 74.5973 60.096C74.3946 60.3093 74.2346 60.5493 74.1173 60.816C74.0106 61.072 73.9573 61.328 73.9573 61.584H78.5013ZM80.8479 58.416H82.5119L84.7839 64.224L86.9599 58.416H88.4959L85.5199 66H83.9359L80.8479 58.416ZM89.8719 58.416H91.3119V66H89.8719V58.416ZM89.5359 55.696C89.5359 55.408 89.6372 55.1627 89.8399 54.96C90.0532 54.7467 90.3039 54.64 90.5919 54.64C90.8799 54.64 91.1252 54.7467 91.3279 54.96C91.5412 55.1627 91.6479 55.408 91.6479 55.696C91.6479 55.984 91.5412 56.2347 91.3279 56.448C91.1252 56.6507 90.8799 56.752 90.5919 56.752C90.3039 56.752 90.0532 56.6507 89.8399 56.448C89.6372 56.2347 89.5359 55.984 89.5359 55.696ZM94.6916 62.736C94.6916 63.0667 94.761 63.3707 94.8996 63.648C95.049 63.9147 95.241 64.144 95.4756 64.336C95.7103 64.528 95.9823 64.6773 96.2916 64.784C96.601 64.8907 96.921 64.944 97.2516 64.944C97.6996 64.944 98.089 64.8427 98.4196 64.64C98.7503 64.4267 99.0543 64.1493 99.3316 63.808L100.42 64.64C99.6196 65.6747 98.4996 66.192 97.0596 66.192C96.4623 66.192 95.9183 66.0907 95.4276 65.888C94.9476 65.6853 94.537 65.408 94.1956 65.056C93.865 64.6933 93.609 64.272 93.4276 63.792C93.2463 63.3013 93.1556 62.7733 93.1556 62.208C93.1556 61.6427 93.2516 61.12 93.4436 60.64C93.6463 60.1493 93.9183 59.728 94.2596 59.376C94.6116 59.0133 95.0276 58.7307 95.5076 58.528C95.9876 58.3253 96.5103 58.224 97.0756 58.224C97.7476 58.224 98.313 58.3413 98.7716 58.576C99.241 58.8107 99.625 59.12 99.9236 59.504C100.222 59.8773 100.436 60.304 100.564 60.784C100.702 61.2533 100.772 61.7333 100.772 62.224V62.736H94.6916ZM99.2356 61.584C99.225 61.264 99.1716 60.9707 99.0756 60.704C98.9903 60.4373 98.857 60.208 98.6756 60.016C98.4943 59.8133 98.265 59.6587 97.9876 59.552C97.721 59.4347 97.4063 59.376 97.0436 59.376C96.6916 59.376 96.3663 59.4453 96.0676 59.584C95.7796 59.712 95.5343 59.8827 95.3316 60.096C95.129 60.3093 94.969 60.5493 94.8516 60.816C94.745 61.072 94.6916 61.328 94.6916 61.584H99.2356ZM101.582 58.416H103.198L104.91 64.08H104.942L106.75 58.416H108.27L110.19 64.08H110.222L111.854 58.416H113.374L110.926 66H109.47L107.47 60.336H107.438L105.63 66H104.078L101.582 58.416ZM123.008 54.672H124.4L129.248 66H127.456L126.32 63.2H120.928L119.808 66H118.016L123.008 54.672ZM125.76 61.856L123.648 56.656H123.616L121.472 61.856H125.76ZM130.354 58.416H131.794V59.504H131.826C132.103 59.0987 132.482 58.784 132.962 58.56C133.452 58.336 133.954 58.224 134.466 58.224C135.052 58.224 135.58 58.3253 136.05 58.528C136.53 58.7307 136.935 59.0133 137.266 59.376C137.607 59.7387 137.868 60.1653 138.05 60.656C138.231 61.136 138.322 61.6533 138.322 62.208C138.322 62.7733 138.231 63.3013 138.05 63.792C137.868 64.272 137.607 64.6933 137.266 65.056C136.935 65.408 136.53 65.6853 136.05 65.888C135.58 66.0907 135.052 66.192 134.466 66.192C133.922 66.192 133.41 66.08 132.93 65.856C132.45 65.6213 132.082 65.3067 131.826 64.912H131.794V70.512H130.354V58.416ZM134.29 59.568C133.906 59.568 133.559 59.6373 133.25 59.776C132.94 59.904 132.679 60.0853 132.466 60.32C132.252 60.544 132.087 60.8213 131.97 61.152C131.852 61.472 131.794 61.824 131.794 62.208C131.794 62.592 131.852 62.9493 131.97 63.28C132.087 63.6 132.252 63.8773 132.466 64.112C132.679 64.336 132.94 64.5173 133.25 64.656C133.559 64.784 133.906 64.848 134.29 64.848C134.674 64.848 135.02 64.784 135.33 64.656C135.639 64.5173 135.9 64.336 136.114 64.112C136.327 63.8773 136.492 63.6 136.61 63.28C136.727 62.9493 136.786 62.592 136.786 62.208C136.786 61.824 136.727 61.472 136.61 61.152C136.492 60.8213 136.327 60.544 136.114 60.32C135.9 60.0853 135.639 59.904 135.33 59.776C135.02 59.6373 134.674 59.568 134.29 59.568ZM140.135 58.416H141.575V59.504H141.607C141.884 59.0987 142.263 58.784 142.743 58.56C143.234 58.336 143.735 58.224 144.247 58.224C144.834 58.224 145.362 58.3253 145.831 58.528C146.311 58.7307 146.716 59.0133 147.047 59.376C147.388 59.7387 147.65 60.1653 147.831 60.656C148.012 61.136 148.103 61.6533 148.103 62.208C148.103 62.7733 148.012 63.3013 147.831 63.792C147.65 64.272 147.388 64.6933 147.047 65.056C146.716 65.408 146.311 65.6853 145.831 65.888C145.362 66.0907 144.834 66.192 144.247 66.192C143.703 66.192 143.191 66.08 142.711 65.856C142.231 65.6213 141.863 65.3067 141.607 64.912H141.575V70.512H140.135V58.416ZM144.071 59.568C143.687 59.568 143.34 59.6373 143.031 59.776C142.722 59.904 142.46 60.0853 142.247 60.32C142.034 60.544 141.868 60.8213 141.751 61.152C141.634 61.472 141.575 61.824 141.575 62.208C141.575 62.592 141.634 62.9493 141.751 63.28C141.868 63.6 142.034 63.8773 142.247 64.112C142.46 64.336 142.722 64.5173 143.031 64.656C143.34 64.784 143.687 64.848 144.071 64.848C144.455 64.848 144.802 64.784 145.111 64.656C145.42 64.5173 145.682 64.336 145.895 64.112C146.108 63.8773 146.274 63.6 146.391 63.28C146.508 62.9493 146.567 62.592 146.567 62.208C146.567 61.824 146.508 61.472 146.391 61.152C146.274 60.8213 146.108 60.544 145.895 60.32C145.682 60.0853 145.42 59.904 145.111 59.776C144.802 59.6373 144.455 59.568 144.071 59.568ZM150.028 53.904H151.468V66H150.028V53.904ZM153.872 58.416H155.312V66H153.872V58.416ZM153.536 55.696C153.536 55.408 153.637 55.1627 153.84 54.96C154.053 54.7467 154.304 54.64 154.592 54.64C154.88 54.64 155.125 54.7467 155.328 54.96C155.541 55.1627 155.648 55.408 155.648 55.696C155.648 55.984 155.541 56.2347 155.328 56.448C155.125 56.6507 154.88 56.752 154.592 56.752C154.304 56.752 154.053 56.6507 153.84 56.448C153.637 56.2347 153.536 55.984 153.536 55.696ZM163.028 60.432C162.761 60.1547 162.478 59.9467 162.18 59.808C161.892 59.6587 161.545 59.584 161.14 59.584C160.745 59.584 160.398 59.6587 160.1 59.808C159.812 59.9467 159.566 60.144 159.364 60.4C159.172 60.6453 159.022 60.9333 158.916 61.264C158.82 61.584 158.772 61.92 158.772 62.272C158.772 62.624 158.83 62.96 158.948 63.28C159.065 63.5893 159.23 63.8613 159.444 64.096C159.657 64.3307 159.913 64.5173 160.212 64.656C160.51 64.784 160.846 64.848 161.22 64.848C161.625 64.848 161.972 64.7787 162.26 64.64C162.548 64.4907 162.814 64.2773 163.06 64L164.084 65.024C163.71 65.44 163.273 65.7387 162.772 65.92C162.281 66.1013 161.758 66.192 161.204 66.192C160.617 66.192 160.078 66.096 159.588 65.904C159.108 65.712 158.692 65.4453 158.34 65.104C157.988 64.752 157.716 64.336 157.524 63.856C157.332 63.3653 157.236 62.8267 157.236 62.24C157.236 61.6533 157.332 61.1147 157.524 60.624C157.716 60.1333 157.982 59.712 158.324 59.36C158.676 59.008 159.092 58.736 159.572 58.544C160.062 58.3413 160.606 58.24 161.204 58.24C161.758 58.24 162.286 58.3413 162.788 58.544C163.3 58.736 163.742 59.0347 164.116 59.44L163.028 60.432ZM165.354 59.344C165.76 58.9707 166.229 58.6933 166.762 58.512C167.296 58.32 167.829 58.224 168.362 58.224C168.917 58.224 169.392 58.2933 169.786 58.432C170.192 58.5707 170.522 58.7573 170.778 58.992C171.034 59.2267 171.221 59.4987 171.338 59.808C171.466 60.1067 171.53 60.4213 171.53 60.752V64.624C171.53 64.8907 171.536 65.136 171.546 65.36C171.557 65.584 171.573 65.7973 171.594 66H170.314C170.282 65.616 170.266 65.232 170.266 64.848H170.234C169.914 65.3387 169.536 65.6853 169.098 65.888C168.661 66.0907 168.154 66.192 167.578 66.192C167.226 66.192 166.89 66.144 166.57 66.048C166.25 65.952 165.968 65.808 165.722 65.616C165.488 65.424 165.301 65.1893 165.162 64.912C165.024 64.624 164.954 64.2933 164.954 63.92C164.954 63.4293 165.061 63.0187 165.274 62.688C165.498 62.3573 165.797 62.0907 166.17 61.888C166.554 61.6747 166.997 61.5253 167.498 61.44C168.01 61.344 168.554 61.296 169.13 61.296H170.186V60.976C170.186 60.784 170.149 60.592 170.074 60.4C170 60.208 169.888 60.0373 169.738 59.888C169.589 59.728 169.402 59.6053 169.178 59.52C168.954 59.424 168.688 59.376 168.378 59.376C168.101 59.376 167.856 59.4027 167.642 59.456C167.44 59.5093 167.253 59.5787 167.082 59.664C166.912 59.7387 166.757 59.8293 166.618 59.936C166.48 60.0427 166.346 60.144 166.218 60.24L165.354 59.344ZM169.418 62.352C169.077 62.352 168.725 62.3733 168.362 62.416C168.01 62.448 167.685 62.5173 167.386 62.624C167.098 62.7307 166.858 62.88 166.666 63.072C166.485 63.264 166.394 63.5093 166.394 63.808C166.394 64.2453 166.538 64.56 166.826 64.752C167.125 64.944 167.525 65.04 168.026 65.04C168.421 65.04 168.757 64.976 169.034 64.848C169.312 64.7093 169.536 64.5333 169.706 64.32C169.877 64.1067 170 63.872 170.074 63.616C170.149 63.3493 170.186 63.088 170.186 62.832V62.352H169.418ZM177.683 59.664H175.619V63.104C175.619 63.3173 175.625 63.5307 175.635 63.744C175.646 63.9467 175.683 64.1333 175.747 64.304C175.822 64.464 175.929 64.5973 176.067 64.704C176.217 64.8 176.43 64.848 176.707 64.848C176.878 64.848 177.054 64.832 177.235 64.8C177.417 64.768 177.582 64.7093 177.731 64.624V65.936C177.561 66.032 177.337 66.096 177.059 66.128C176.793 66.1707 176.585 66.192 176.435 66.192C175.881 66.192 175.449 66.1173 175.139 65.968C174.841 65.808 174.617 65.6053 174.467 65.36C174.329 65.1147 174.243 64.8427 174.211 64.544C174.19 64.2347 174.179 63.9253 174.179 63.616V59.664H172.515V58.416H174.179V56.288H175.619V58.416H177.683V59.664ZM179.653 58.416H181.093V66H179.653V58.416ZM179.317 55.696C179.317 55.408 179.418 55.1627 179.621 54.96C179.834 54.7467 180.085 54.64 180.373 54.64C180.661 54.64 180.906 54.7467 181.109 54.96C181.322 55.1627 181.429 55.408 181.429 55.696C181.429 55.984 181.322 56.2347 181.109 56.448C180.906 56.6507 180.661 56.752 180.373 56.752C180.085 56.752 179.834 56.6507 179.621 56.448C179.418 56.2347 179.317 55.984 179.317 55.696ZM184.553 62.208C184.553 62.592 184.612 62.9493 184.729 63.28C184.846 63.6 185.012 63.8773 185.225 64.112C185.438 64.336 185.7 64.5173 186.009 64.656C186.318 64.784 186.665 64.848 187.049 64.848C187.433 64.848 187.78 64.784 188.089 64.656C188.398 64.5173 188.66 64.336 188.873 64.112C189.086 63.8773 189.252 63.6 189.369 63.28C189.486 62.9493 189.545 62.592 189.545 62.208C189.545 61.824 189.486 61.472 189.369 61.152C189.252 60.8213 189.086 60.544 188.873 60.32C188.66 60.0853 188.398 59.904 188.089 59.776C187.78 59.6373 187.433 59.568 187.049 59.568C186.665 59.568 186.318 59.6373 186.009 59.776C185.7 59.904 185.438 60.0853 185.225 60.32C185.012 60.544 184.846 60.8213 184.729 61.152C184.612 61.472 184.553 61.824 184.553 62.208ZM183.017 62.208C183.017 61.6533 183.118 61.136 183.321 60.656C183.534 60.176 183.822 59.7547 184.185 59.392C184.548 59.0293 184.974 58.7467 185.465 58.544C185.956 58.3307 186.484 58.224 187.049 58.224C187.614 58.224 188.142 58.3307 188.633 58.544C189.124 58.7467 189.55 59.0293 189.913 59.392C190.276 59.7547 190.558 60.176 190.761 60.656C190.974 61.136 191.081 61.6533 191.081 62.208C191.081 62.7627 190.974 63.2853 190.761 63.776C190.558 64.256 190.276 64.6773 189.913 65.04C189.55 65.392 189.124 65.6747 188.633 65.888C188.142 66.0907 187.614 66.192 187.049 66.192C186.484 66.192 185.956 66.0907 185.465 65.888C184.974 65.6747 184.548 65.392 184.185 65.04C183.822 64.6773 183.534 64.256 183.321 63.776C183.118 63.2853 183.017 62.7627 183.017 62.208ZM192.885 58.416H194.325V59.584H194.357C194.538 59.1787 194.853 58.8533 195.301 58.608C195.749 58.352 196.266 58.224 196.853 58.224C197.216 58.224 197.562 58.2827 197.893 58.4C198.234 58.5067 198.528 58.6773 198.773 58.912C199.029 59.1467 199.232 59.4507 199.381 59.824C199.53 60.1867 199.605 60.6187 199.605 61.12V66H198.165V61.52C198.165 61.168 198.117 60.8693 198.021 60.624C197.925 60.368 197.797 60.1653 197.637 60.016C197.477 59.856 197.29 59.744 197.077 59.68C196.874 59.6053 196.661 59.568 196.437 59.568C196.138 59.568 195.861 59.616 195.605 59.712C195.349 59.808 195.125 59.9627 194.933 60.176C194.741 60.3787 194.592 60.64 194.485 60.96C194.378 61.28 194.325 61.6587 194.325 62.096V66H192.885V58.416ZM206.261 59.344C206.666 58.9707 207.135 58.6933 207.669 58.512C208.202 58.32 208.735 58.224 209.269 58.224C209.823 58.224 210.298 58.2933 210.693 58.432C211.098 58.5707 211.429 58.7573 211.685 58.992C211.941 59.2267 212.127 59.4987 212.245 59.808C212.373 60.1067 212.437 60.4213 212.437 60.752V64.624C212.437 64.8907 212.442 65.136 212.453 65.36C212.463 65.584 212.479 65.7973 212.501 66H211.221C211.189 65.616 211.173 65.232 211.173 64.848H211.141C210.821 65.3387 210.442 65.6853 210.005 65.888C209.567 66.0907 209.061 66.192 208.485 66.192C208.133 66.192 207.797 66.144 207.477 66.048C207.157 65.952 206.874 65.808 206.629 65.616C206.394 65.424 206.207 65.1893 206.069 64.912C205.93 64.624 205.861 64.2933 205.861 63.92C205.861 63.4293 205.967 63.0187 206.181 62.688C206.405 62.3573 206.703 62.0907 207.077 61.888C207.461 61.6747 207.903 61.5253 208.405 61.44C208.917 61.344 209.461 61.296 210.037 61.296H211.093V60.976C211.093 60.784 211.055 60.592 210.981 60.4C210.906 60.208 210.794 60.0373 210.645 59.888C210.495 59.728 210.309 59.6053 210.085 59.52C209.861 59.424 209.594 59.376 209.285 59.376C209.007 59.376 208.762 59.4027 208.549 59.456C208.346 59.5093 208.159 59.5787 207.989 59.664C207.818 59.7387 207.663 59.8293 207.525 59.936C207.386 60.0427 207.253 60.144 207.125 60.24L206.261 59.344ZM210.325 62.352C209.983 62.352 209.631 62.3733 209.269 62.416C208.917 62.448 208.591 62.5173 208.293 62.624C208.005 62.7307 207.765 62.88 207.573 63.072C207.391 63.264 207.301 63.5093 207.301 63.808C207.301 64.2453 207.445 64.56 207.733 64.752C208.031 64.944 208.431 65.04 208.933 65.04C209.327 65.04 209.663 64.976 209.941 64.848C210.218 64.7093 210.442 64.5333 210.613 64.32C210.783 64.1067 210.906 63.872 210.981 63.616C211.055 63.3493 211.093 63.088 211.093 62.832V62.352H210.325ZM214.526 58.416H215.966V59.584H215.998C216.179 59.1787 216.494 58.8533 216.942 58.608C217.39 58.352 217.907 58.224 218.494 58.224C218.856 58.224 219.203 58.2827 219.534 58.4C219.875 58.5067 220.168 58.6773 220.414 58.912C220.67 59.1467 220.872 59.4507 221.022 59.824C221.171 60.1867 221.246 60.6187 221.246 61.12V66H219.806V61.52C219.806 61.168 219.758 60.8693 219.662 60.624C219.566 60.368 219.438 60.1653 219.278 60.016C219.118 59.856 218.931 59.744 218.718 59.68C218.515 59.6053 218.302 59.568 218.078 59.568C217.779 59.568 217.502 59.616 217.246 59.712C216.99 59.808 216.766 59.9627 216.574 60.176C216.382 60.3787 216.232 60.64 216.126 60.96C216.019 61.28 215.966 61.6587 215.966 62.096V66H214.526V58.416ZM231.016 66H229.576V64.912H229.544C229.267 65.3173 228.883 65.632 228.392 65.856C227.912 66.08 227.416 66.192 226.904 66.192C226.317 66.192 225.784 66.0907 225.304 65.888C224.835 65.6853 224.429 65.4027 224.088 65.04C223.757 64.6773 223.501 64.256 223.32 63.776C223.139 63.296 223.048 62.7733 223.048 62.208C223.048 61.6427 223.139 61.12 223.32 60.64C223.501 60.1493 223.757 59.728 224.088 59.376C224.429 59.0133 224.835 58.7307 225.304 58.528C225.784 58.3253 226.317 58.224 226.904 58.224C227.448 58.224 227.96 58.3413 228.44 58.576C228.92 58.8 229.288 59.1093 229.544 59.504H229.576V53.904H231.016V66ZM227.08 64.848C227.464 64.848 227.811 64.784 228.12 64.656C228.429 64.5173 228.691 64.336 228.904 64.112C229.117 63.8773 229.283 63.6 229.4 63.28C229.517 62.9493 229.576 62.592 229.576 62.208C229.576 61.824 229.517 61.472 229.4 61.152C229.283 60.8213 229.117 60.544 228.904 60.32C228.691 60.0853 228.429 59.904 228.12 59.776C227.811 59.6373 227.464 59.568 227.08 59.568C226.696 59.568 226.349 59.6373 226.04 59.776C225.731 59.904 225.469 60.0853 225.256 60.32C225.043 60.544 224.877 60.8213 224.76 61.152C224.643 61.472 224.584 61.824 224.584 62.208C224.584 62.592 224.643 62.9493 224.76 63.28C224.877 63.6 225.043 63.8773 225.256 64.112C225.469 64.336 225.731 64.5173 226.04 64.656C226.349 64.784 226.696 64.848 227.08 64.848ZM63.792 85.632C64.0693 86.048 64.4213 86.3573 64.848 86.56C65.2853 86.752 65.7333 86.848 66.192 86.848C66.448 86.848 66.7093 86.8107 66.976 86.736C67.2427 86.6507 67.4827 86.528 67.696 86.368C67.92 86.208 68.1013 86.0107 68.24 85.776C68.3787 85.5413 68.448 85.2693 68.448 84.96C68.448 84.5227 68.3093 84.192 68.032 83.968C67.7547 83.7333 67.408 83.5413 66.992 83.392C66.5867 83.232 66.1387 83.0827 65.648 82.944C65.168 82.7947 64.72 82.592 64.304 82.336C63.8987 82.08 63.5573 81.7387 63.28 81.312C63.0027 80.8747 62.864 80.288 62.864 79.552C62.864 79.2213 62.9333 78.8693 63.072 78.496C63.2213 78.1227 63.4507 77.7813 63.76 77.472C64.0693 77.1627 64.464 76.9067 64.944 76.704C65.4347 76.4907 66.0213 76.384 66.704 76.384C67.3227 76.384 67.9147 76.4693 68.48 76.64C69.0453 76.8107 69.5413 77.1573 69.968 77.68L68.72 78.816C68.528 78.5173 68.256 78.2773 67.904 78.096C67.552 77.9147 67.152 77.824 66.704 77.824C66.2773 77.824 65.92 77.8827 65.632 78C65.3547 78.1067 65.1307 78.2507 64.96 78.432C64.7893 78.6027 64.6667 78.7893 64.592 78.992C64.528 79.1947 64.496 79.3813 64.496 79.552C64.496 80.032 64.6347 80.4 64.912 80.656C65.1893 80.912 65.5307 81.12 65.936 81.28C66.352 81.44 66.8 81.584 67.28 81.712C67.7707 81.84 68.2187 82.0213 68.624 82.256C69.04 82.48 69.3867 82.7893 69.664 83.184C69.9413 83.568 70.08 84.1013 70.08 84.784C70.08 85.328 69.9733 85.8187 69.76 86.256C69.5573 86.6933 69.28 87.0613 68.928 87.36C68.576 87.6587 68.16 87.888 67.68 88.048C67.2 88.208 66.688 88.288 66.144 88.288C65.4187 88.288 64.7307 88.16 64.08 87.904C63.4293 87.648 62.912 87.2533 62.528 86.72L63.792 85.632ZM78.6986 88H77.2586V86.832H77.2266C77.0453 87.2373 76.7306 87.568 76.2826 87.824C75.8346 88.0693 75.3173 88.192 74.7306 88.192C74.3573 88.192 74.0053 88.1333 73.6746 88.016C73.344 87.9093 73.0506 87.7387 72.7946 87.504C72.5493 87.2693 72.352 86.9707 72.2026 86.608C72.0533 86.2347 71.9786 85.7973 71.9786 85.296V80.416H73.4186V84.896C73.4186 85.248 73.4666 85.552 73.5626 85.808C73.6586 86.0533 73.7866 86.256 73.9466 86.416C74.1066 86.5653 74.288 86.6773 74.4906 86.752C74.704 86.816 74.9226 86.848 75.1466 86.848C75.4453 86.848 75.7226 86.8 75.9786 86.704C76.2346 86.608 76.4586 86.4587 76.6506 86.256C76.8426 86.0427 76.992 85.776 77.0986 85.456C77.2053 85.136 77.2586 84.7573 77.2586 84.32V80.416H78.6986V88ZM80.8693 75.904H82.3093V81.504H82.3413C82.5973 81.1093 82.9653 80.8 83.4453 80.576C83.9253 80.3413 84.4373 80.224 84.9813 80.224C85.5679 80.224 86.0959 80.3253 86.5653 80.528C87.0453 80.7307 87.4506 81.0133 87.7812 81.376C88.1226 81.728 88.3839 82.1493 88.5653 82.64C88.7466 83.12 88.8373 83.6427 88.8373 84.208C88.8373 84.7733 88.7466 85.296 88.5653 85.776C88.3839 86.256 88.1226 86.6773 87.7812 87.04C87.4506 87.4027 87.0453 87.6853 86.5653 87.888C86.0959 88.0907 85.5679 88.192 84.9813 88.192C84.4693 88.192 83.9679 88.08 83.4773 87.856C82.9973 87.632 82.6186 87.3173 82.3413 86.912H82.3093V88H80.8693V75.904ZM84.8053 86.848C85.1893 86.848 85.5359 86.784 85.8453 86.656C86.1546 86.5173 86.4159 86.336 86.6293 86.112C86.8426 85.8773 87.0079 85.6 87.1253 85.28C87.2426 84.9493 87.3013 84.592 87.3013 84.208C87.3013 83.824 87.2426 83.472 87.1253 83.152C87.0079 82.8213 86.8426 82.544 86.6293 82.32C86.4159 82.0853 86.1546 81.904 85.8453 81.776C85.5359 81.6373 85.1893 81.568 84.8053 81.568C84.4213 81.568 84.0746 81.6373 83.7653 81.776C83.4559 81.904 83.1946 82.0853 82.9813 82.32C82.7679 82.544 82.6026 82.8213 82.4853 83.152C82.3679 83.472 82.3093 83.824 82.3093 84.208C82.3093 84.592 82.3679 84.9493 82.4853 85.28C82.6026 85.6 82.7679 85.8773 82.9813 86.112C83.1946 86.336 83.4559 86.5173 83.7653 86.656C84.0746 86.784 84.4213 86.848 84.8053 86.848ZM90.6505 80.416H91.9945V81.6H92.0265C92.0585 81.4933 92.1385 81.36 92.2665 81.2C92.4052 81.04 92.5758 80.8907 92.7785 80.752C92.9918 80.6027 93.2372 80.48 93.5145 80.384C93.8025 80.2773 94.1172 80.224 94.4585 80.224C95.0238 80.224 95.4985 80.3413 95.8825 80.576C96.2665 80.8107 96.5812 81.1627 96.8265 81.632C97.0718 81.1627 97.4185 80.8107 97.8665 80.576C98.3145 80.3413 98.7678 80.224 99.2265 80.224C99.8132 80.224 100.293 80.32 100.667 80.512C101.04 80.704 101.333 80.96 101.547 81.28C101.76 81.5893 101.904 81.9467 101.979 82.352C102.064 82.7467 102.107 83.1573 102.107 83.584V88H100.667V83.776C100.667 83.488 100.645 83.2107 100.603 82.944C100.571 82.6773 100.496 82.4427 100.379 82.24C100.261 82.0373 100.096 81.8773 99.8825 81.76C99.6692 81.632 99.3865 81.568 99.0345 81.568C98.3412 81.568 97.8452 81.7813 97.5465 82.208C97.2478 82.6347 97.0985 83.184 97.0985 83.856V88H95.6585V84.032C95.6585 83.6693 95.6372 83.3387 95.5945 83.04C95.5625 82.7413 95.4878 82.4853 95.3705 82.272C95.2638 82.048 95.1038 81.8773 94.8905 81.76C94.6878 81.632 94.4105 81.568 94.0585 81.568C93.8025 81.568 93.5518 81.6213 93.3065 81.728C93.0718 81.824 92.8638 81.9733 92.6825 82.176C92.5012 82.3787 92.3572 82.64 92.2505 82.96C92.1438 83.2693 92.0905 83.6373 92.0905 84.064V88H90.6505V80.416ZM104.388 80.416H105.828V88H104.388V80.416ZM104.052 77.696C104.052 77.408 104.153 77.1627 104.356 76.96C104.569 76.7467 104.82 76.64 105.108 76.64C105.396 76.64 105.641 76.7467 105.844 76.96C106.057 77.1627 106.164 77.408 106.164 77.696C106.164 77.984 106.057 78.2347 105.844 78.448C105.641 78.6507 105.396 78.752 105.108 78.752C104.82 78.752 104.569 78.6507 104.356 78.448C104.153 78.2347 104.052 77.984 104.052 77.696ZM112.183 81.664H110.119V85.104C110.119 85.3173 110.125 85.5307 110.135 85.744C110.146 85.9467 110.183 86.1333 110.247 86.304C110.322 86.464 110.429 86.5973 110.567 86.704C110.717 86.8 110.93 86.848 111.207 86.848C111.378 86.848 111.554 86.832 111.735 86.8C111.917 86.768 112.082 86.7093 112.231 86.624V87.936C112.061 88.032 111.837 88.096 111.559 88.128C111.293 88.1707 111.085 88.192 110.935 88.192C110.381 88.192 109.949 88.1173 109.639 87.968C109.341 87.808 109.117 87.6053 108.967 87.36C108.829 87.1147 108.743 86.8427 108.711 86.544C108.69 86.2347 108.679 85.9253 108.679 85.616V81.664H107.015V80.416H108.679V78.288H110.119V80.416H112.183V81.664Z" fill="black" fill-opacity="0.5"/>
<rect x="62.2248" y="97.2248" width="58.5505" height="14.7219" rx="7.36095" stroke="black" stroke-opacity="0.5" stroke-width="0.449524"/>
<path opacity="0.5" d="M74.0934 102.312H74.8081L77.5727 106.277H77.5862V102.312H78.1526V107.086H77.4378L74.6733 103.121H74.6598V107.086H74.0934V102.312ZM79.065 105.508C79.065 105.261 79.1077 105.036 79.1931 104.834C79.2785 104.631 79.3954 104.458 79.5438 104.314C79.6921 104.166 79.8697 104.051 80.0764 103.97C80.2832 103.89 80.508 103.849 80.7507 103.849C80.9935 103.849 81.2182 103.89 81.425 103.97C81.6318 104.051 81.8094 104.166 81.9577 104.314C82.106 104.458 82.2229 104.631 82.3083 104.834C82.3937 105.036 82.4364 105.261 82.4364 105.508C82.4364 105.755 82.3937 105.98 82.3083 106.182C82.2229 106.384 82.106 106.56 81.9577 106.708C81.8094 106.852 81.6318 106.964 81.425 107.045C81.2182 107.126 80.9935 107.167 80.7507 107.167C80.508 107.167 80.2832 107.126 80.0764 107.045C79.8697 106.964 79.6921 106.852 79.5438 106.708C79.3954 106.56 79.2785 106.384 79.1931 106.182C79.1077 105.98 79.065 105.755 79.065 105.508ZM79.6314 105.508C79.6314 105.674 79.6561 105.829 79.7056 105.973C79.7595 106.112 79.836 106.236 79.9348 106.344C80.0337 106.447 80.1506 106.531 80.2855 106.593C80.4248 106.652 80.5799 106.681 80.7507 106.681C80.9216 106.681 81.0744 106.652 81.2092 106.593C81.3486 106.531 81.4677 106.447 81.5666 106.344C81.6655 106.236 81.7397 106.112 81.7891 105.973C81.8431 105.829 81.87 105.674 81.87 105.508C81.87 105.342 81.8431 105.189 81.7891 105.049C81.7397 104.906 81.6655 104.782 81.5666 104.678C81.4677 104.571 81.3486 104.487 81.2092 104.429C81.0744 104.366 80.9216 104.335 80.7507 104.335C80.5799 104.335 80.4248 104.366 80.2855 104.429C80.1506 104.487 80.0337 104.571 79.9348 104.678C79.836 104.782 79.7595 104.906 79.7056 105.049C79.6561 105.189 79.6314 105.342 79.6314 105.508ZM84.9768 104.375H84.0463V105.953C84.0463 106.056 84.0486 106.153 84.053 106.243C84.0575 106.328 84.0755 106.405 84.107 106.472C84.1385 106.535 84.1857 106.587 84.2486 106.627C84.3115 106.663 84.4014 106.681 84.5183 106.681C84.5947 106.681 84.6734 106.672 84.7543 106.654C84.8352 106.636 84.9116 106.609 84.9836 106.573L85.0038 107.052C84.9139 107.092 84.8127 107.122 84.7004 107.14C84.5925 107.158 84.4891 107.167 84.3902 107.167C84.2014 107.167 84.0508 107.142 83.9384 107.092C83.826 107.043 83.7384 106.973 83.6754 106.883C83.6125 106.794 83.5698 106.683 83.5473 106.553C83.5294 106.418 83.5204 106.27 83.5204 106.108V104.375H82.8326V103.93H83.5204V103.033H84.0463V103.93H84.9768V104.375ZM89.8579 103.155C89.7635 103.002 89.6376 102.892 89.4803 102.824C89.3229 102.752 89.1588 102.716 88.988 102.716C88.8622 102.716 88.7385 102.732 88.6172 102.764C88.4958 102.795 88.3857 102.842 88.2868 102.905C88.1924 102.968 88.116 103.051 88.0575 103.155C87.9991 103.258 87.9699 103.379 87.9699 103.519C87.9699 103.627 87.9856 103.723 88.0171 103.809C88.053 103.89 88.1092 103.964 88.1856 104.031C88.262 104.099 88.3654 104.162 88.4958 104.22C88.6262 104.278 88.7857 104.337 88.9745 104.395C89.1588 104.454 89.3364 104.517 89.5072 104.584C89.6825 104.652 89.8354 104.737 89.9657 104.84C90.1006 104.944 90.2062 105.074 90.2827 105.231C90.3636 105.384 90.404 105.578 90.404 105.811C90.404 106.05 90.3568 106.256 90.2624 106.432C90.168 106.607 90.0422 106.753 89.8848 106.87C89.732 106.982 89.5544 107.065 89.3521 107.119C89.1499 107.178 88.9408 107.207 88.7251 107.207C88.5857 107.207 88.4464 107.194 88.307 107.167C88.1676 107.144 88.0328 107.108 87.9024 107.059C87.7766 107.005 87.6574 106.937 87.5451 106.856C87.4327 106.771 87.336 106.668 87.2551 106.546L87.7406 106.148C87.844 106.324 87.9878 106.456 88.1721 106.546C88.3564 106.636 88.552 106.681 88.7588 106.681C88.8801 106.681 89.0015 106.663 89.1229 106.627C89.2488 106.591 89.3611 106.54 89.46 106.472C89.5589 106.4 89.6398 106.313 89.7028 106.209C89.7657 106.106 89.7972 105.987 89.7972 105.852C89.7972 105.703 89.7724 105.584 89.723 105.494C89.6736 105.4 89.5971 105.319 89.4937 105.252C89.3904 105.184 89.26 105.124 89.1027 105.07C88.9453 105.016 88.761 104.953 88.5497 104.881C88.3789 104.827 88.2216 104.766 88.0777 104.699C87.9339 104.627 87.808 104.541 87.7001 104.442C87.5968 104.339 87.5136 104.218 87.4507 104.078C87.3922 103.935 87.363 103.764 87.363 103.566C87.363 103.337 87.408 103.137 87.4979 102.966C87.5878 102.795 87.7091 102.653 87.862 102.541C88.0148 102.424 88.1879 102.336 88.3812 102.278C88.5745 102.22 88.7768 102.19 88.988 102.19C89.2577 102.19 89.5027 102.233 89.723 102.318C89.9478 102.399 90.1478 102.543 90.3231 102.75L89.8579 103.155ZM92.9708 104.375H92.0403V105.953C92.0403 106.056 92.0425 106.153 92.047 106.243C92.0515 106.328 92.0695 106.405 92.101 106.472C92.1324 106.535 92.1796 106.587 92.2426 106.627C92.3055 106.663 92.3954 106.681 92.5123 106.681C92.5887 106.681 92.6674 106.672 92.7483 106.654C92.8292 106.636 92.9056 106.609 92.9775 106.573L92.9978 107.052C92.9079 107.092 92.8067 107.122 92.6943 107.14C92.5864 107.158 92.4831 107.167 92.3842 107.167C92.1954 107.167 92.0448 107.142 91.9324 107.092C91.82 107.043 91.7324 106.973 91.6694 106.883C91.6065 106.794 91.5638 106.683 91.5413 106.553C91.5233 106.418 91.5143 106.27 91.5143 106.108V104.375H90.8266V103.93H91.5143V103.033H92.0403V103.93H92.9708V104.375ZM93.5747 104.335C93.7365 104.168 93.9276 104.047 94.1478 103.97C94.3726 103.89 94.5996 103.849 94.8289 103.849C95.2964 103.849 95.6335 103.959 95.8403 104.18C96.0471 104.4 96.1505 104.735 96.1505 105.184V106.54C96.1505 106.629 96.155 106.724 96.164 106.823C96.1729 106.917 96.1842 107.005 96.1977 107.086H95.692C95.674 107.014 95.6627 106.935 95.6582 106.85C95.6582 106.76 95.6582 106.681 95.6582 106.614H95.6448C95.5414 106.776 95.402 106.908 95.2267 107.012C95.0559 107.115 94.8491 107.167 94.6064 107.167C94.4445 107.167 94.2917 107.146 94.1478 107.106C94.0085 107.065 93.8849 107.007 93.777 106.931C93.6736 106.85 93.5904 106.751 93.5275 106.634C93.4646 106.517 93.4331 106.382 93.4331 106.229C93.4331 105.969 93.5005 105.764 93.6354 105.616C93.7702 105.467 93.9366 105.357 94.1344 105.285C94.3366 105.213 94.5524 105.168 94.7817 105.15C95.0154 105.133 95.2289 105.124 95.4222 105.124H95.6245V105.029C95.6245 104.8 95.5548 104.627 95.4155 104.51C95.2806 104.393 95.0896 104.335 94.8424 104.335C94.6715 104.335 94.503 104.364 94.3366 104.422C94.1748 104.476 94.031 104.562 93.9051 104.678L93.5747 104.335ZM95.0986 105.569C94.7614 105.569 94.494 105.616 94.2962 105.71C94.0984 105.805 93.9995 105.96 93.9995 106.175C93.9995 106.373 94.0647 106.515 94.195 106.6C94.3299 106.681 94.4962 106.722 94.694 106.722C94.8468 106.722 94.9795 106.697 95.0918 106.647C95.2087 106.593 95.3054 106.524 95.3818 106.438C95.4582 106.353 95.5166 106.254 95.5571 106.142C95.5976 106.025 95.62 105.901 95.6245 105.771V105.569H95.0986ZM97.1117 104.678C97.1117 104.535 97.1072 104.4 97.0982 104.274C97.0892 104.148 97.0847 104.033 97.0847 103.93H97.5837C97.5837 104.015 97.5859 104.101 97.5904 104.186C97.5949 104.272 97.5972 104.359 97.5972 104.449H97.6107C97.6466 104.373 97.6961 104.299 97.759 104.227C97.8264 104.155 97.9051 104.092 97.995 104.038C98.0849 103.979 98.1861 103.935 98.2984 103.903C98.4108 103.867 98.5322 103.849 98.6626 103.849C98.6985 103.849 98.7345 103.851 98.7704 103.856C98.8064 103.86 98.8424 103.869 98.8783 103.883L98.8446 104.416C98.7547 104.389 98.6603 104.375 98.5614 104.375C98.2378 104.375 98.0018 104.481 97.8534 104.692C97.7096 104.899 97.6376 105.184 97.6376 105.548V107.086H97.1117V104.678ZM101.208 104.375H100.278V105.953C100.278 106.056 100.28 106.153 100.285 106.243C100.289 106.328 100.307 106.405 100.339 106.472C100.37 106.535 100.417 106.587 100.48 106.627C100.543 106.663 100.633 106.681 100.75 106.681C100.826 106.681 100.905 106.672 100.986 106.654C101.067 106.636 101.143 106.609 101.215 106.573L101.235 107.052C101.145 107.092 101.044 107.122 100.932 107.14C100.824 107.158 100.721 107.167 100.622 107.167C100.433 107.167 100.282 107.142 100.17 107.092C100.058 107.043 99.97 106.973 99.907 106.883C99.8441 106.794 99.8014 106.683 99.7789 106.553C99.7609 106.418 99.7519 106.27 99.7519 106.108V104.375H99.0642V103.93H99.7519V103.033H100.278V103.93H101.208V104.375ZM104.671 106.513C104.482 106.755 104.276 106.926 104.051 107.025C103.826 107.119 103.565 107.167 103.269 107.167C103.022 107.167 102.799 107.124 102.601 107.038C102.403 106.949 102.235 106.829 102.096 106.681C101.961 106.533 101.855 106.357 101.779 106.155C101.707 105.953 101.671 105.737 101.671 105.508C101.671 105.265 101.711 105.043 101.792 104.84C101.873 104.634 101.985 104.458 102.129 104.314C102.273 104.166 102.444 104.051 102.642 103.97C102.839 103.89 103.055 103.849 103.289 103.849C103.509 103.849 103.712 103.887 103.896 103.964C104.08 104.036 104.237 104.144 104.368 104.287C104.503 104.427 104.606 104.6 104.678 104.807C104.75 105.009 104.786 105.24 104.786 105.501V105.67H102.237C102.246 105.805 102.278 105.935 102.332 106.061C102.39 106.182 102.464 106.29 102.554 106.384C102.644 106.474 102.75 106.546 102.871 106.6C102.992 106.654 103.125 106.681 103.269 106.681C103.498 106.681 103.691 106.641 103.849 106.56C104.006 106.479 104.148 106.36 104.273 106.202L104.671 106.513ZM104.22 105.225C104.211 104.955 104.123 104.739 103.957 104.577C103.79 104.416 103.561 104.335 103.269 104.335C102.977 104.335 102.741 104.416 102.561 104.577C102.381 104.739 102.273 104.955 102.237 105.225H104.22ZM108.223 106.526H108.209C108.11 106.706 107.953 106.859 107.737 106.985C107.526 107.106 107.279 107.167 106.995 107.167C106.775 107.167 106.568 107.126 106.375 107.045C106.182 106.96 106.013 106.843 105.869 106.695C105.73 106.546 105.62 106.371 105.539 106.169C105.458 105.966 105.417 105.746 105.417 105.508C105.417 105.27 105.458 105.049 105.539 104.847C105.62 104.645 105.732 104.469 105.876 104.321C106.02 104.173 106.193 104.058 106.395 103.977C106.602 103.892 106.829 103.849 107.076 103.849C107.305 103.849 107.515 103.896 107.703 103.991C107.897 104.085 108.065 104.218 108.209 104.389H108.223V101.988H108.748V107.086H108.223V106.526ZM108.223 105.508C108.223 105.342 108.196 105.189 108.142 105.049C108.092 104.906 108.018 104.782 107.919 104.678C107.82 104.571 107.701 104.487 107.562 104.429C107.427 104.366 107.274 104.335 107.103 104.335C106.932 104.335 106.777 104.366 106.638 104.429C106.503 104.487 106.386 104.571 106.287 104.678C106.188 104.782 106.112 104.906 106.058 105.049C106.009 105.189 105.984 105.342 105.984 105.508C105.984 105.674 106.009 105.829 106.058 105.973C106.112 106.112 106.188 106.236 106.287 106.344C106.386 106.447 106.503 106.531 106.638 106.593C106.777 106.652 106.932 106.681 107.103 106.681C107.274 106.681 107.427 106.652 107.562 106.593C107.701 106.531 107.82 106.447 107.919 106.344C108.018 106.236 108.092 106.112 108.142 105.973C108.196 105.829 108.223 105.674 108.223 105.508Z" fill="black"/>
</svg>
