<svg width="241" height="115" viewBox="0 0 241 115" fill="none" xmlns="http://www.w3.org/2000/svg">
<rect x="0.9" y="0.9" width="50.2" height="50.2" rx="25.1" stroke="#0000FE" stroke-width="1.8" stroke-dasharray="3.6 3.6"/>
<mask id="path-2-outside-1_3954_7331" maskUnits="userSpaceOnUse" x="16" y="11.5" width="19" height="27" fill="black">
<rect fill="white" x="16" y="11.5" width="19" height="27"/>
<path d="M23.2655 22.6564H24.28C24.8473 22.6564 25.3927 22.6236 25.9164 22.5582C26.4618 22.4927 26.9418 22.3509 27.3564 22.1327C27.7927 21.9145 28.1418 21.5982 28.4036 21.1836C28.6655 20.7691 28.7964 20.2127 28.7964 19.5145C28.7964 18.62 28.4909 17.8891 27.88 17.3218C27.2691 16.7545 26.4727 16.4709 25.4909 16.4709C24.7055 16.4709 23.9964 16.7 23.3636 17.1582C22.7527 17.5945 22.3055 18.2164 22.0218 19.0236L17.8655 17.9109C18.1273 17.06 18.4982 16.3182 18.9782 15.6855C19.4582 15.0527 20.0255 14.54 20.68 14.1473C21.3345 13.7327 22.0545 13.4273 22.84 13.2309C23.6255 13.0345 24.4436 12.9364 25.2945 12.9364C26.2982 12.9364 27.2473 13.0673 28.1418 13.3291C29.0364 13.5909 29.8218 13.9836 30.4982 14.5073C31.1745 15.0091 31.7091 15.6527 32.1018 16.4382C32.5164 17.2018 32.7236 18.0964 32.7236 19.1218C32.7236 20.3655 32.3745 21.4782 31.6764 22.46C30.9782 23.42 30.0073 24.0527 28.7636 24.3582V24.4236C30.2473 24.6418 31.3709 25.2745 32.1345 26.3218C32.8982 27.3691 33.28 28.6127 33.28 30.0527C33.28 31.1655 33.0618 32.1473 32.6255 32.9982C32.2109 33.8491 31.6436 34.5691 30.9236 35.1582C30.2036 35.7255 29.3636 36.1618 28.4036 36.4673C27.4655 36.7509 26.4836 36.8927 25.4582 36.8927C24.4982 36.8927 23.5927 36.7836 22.7418 36.5655C21.8909 36.3691 21.1164 36.0527 20.4182 35.6164C19.7418 35.18 19.1527 34.6236 18.6509 33.9473C18.1491 33.2491 17.7673 32.42 17.5055 31.46L21.6945 30.3473C21.9345 31.3073 22.36 32.0491 22.9709 32.5727C23.5818 33.0964 24.4109 33.3582 25.4582 33.3582C25.9818 33.3582 26.4727 33.2709 26.9309 33.0964C27.4109 32.9218 27.8255 32.6818 28.1745 32.3764C28.5455 32.0491 28.8291 31.6673 29.0255 31.2309C29.2436 30.7727 29.3527 30.2709 29.3527 29.7255C29.3527 28.9836 29.1891 28.3836 28.8618 27.9255C28.5564 27.4455 28.1527 27.0855 27.6509 26.8455C27.1709 26.5836 26.6255 26.4091 26.0145 26.3218C25.4036 26.2345 24.8036 26.1909 24.2145 26.1909H23.2655V22.6564Z"/>
</mask>
<path d="M23.2655 22.6564H24.28C24.8473 22.6564 25.3927 22.6236 25.9164 22.5582C26.4618 22.4927 26.9418 22.3509 27.3564 22.1327C27.7927 21.9145 28.1418 21.5982 28.4036 21.1836C28.6655 20.7691 28.7964 20.2127 28.7964 19.5145C28.7964 18.62 28.4909 17.8891 27.88 17.3218C27.2691 16.7545 26.4727 16.4709 25.4909 16.4709C24.7055 16.4709 23.9964 16.7 23.3636 17.1582C22.7527 17.5945 22.3055 18.2164 22.0218 19.0236L17.8655 17.9109C18.1273 17.06 18.4982 16.3182 18.9782 15.6855C19.4582 15.0527 20.0255 14.54 20.68 14.1473C21.3345 13.7327 22.0545 13.4273 22.84 13.2309C23.6255 13.0345 24.4436 12.9364 25.2945 12.9364C26.2982 12.9364 27.2473 13.0673 28.1418 13.3291C29.0364 13.5909 29.8218 13.9836 30.4982 14.5073C31.1745 15.0091 31.7091 15.6527 32.1018 16.4382C32.5164 17.2018 32.7236 18.0964 32.7236 19.1218C32.7236 20.3655 32.3745 21.4782 31.6764 22.46C30.9782 23.42 30.0073 24.0527 28.7636 24.3582V24.4236C30.2473 24.6418 31.3709 25.2745 32.1345 26.3218C32.8982 27.3691 33.28 28.6127 33.28 30.0527C33.28 31.1655 33.0618 32.1473 32.6255 32.9982C32.2109 33.8491 31.6436 34.5691 30.9236 35.1582C30.2036 35.7255 29.3636 36.1618 28.4036 36.4673C27.4655 36.7509 26.4836 36.8927 25.4582 36.8927C24.4982 36.8927 23.5927 36.7836 22.7418 36.5655C21.8909 36.3691 21.1164 36.0527 20.4182 35.6164C19.7418 35.18 19.1527 34.6236 18.6509 33.9473C18.1491 33.2491 17.7673 32.42 17.5055 31.46L21.6945 30.3473C21.9345 31.3073 22.36 32.0491 22.9709 32.5727C23.5818 33.0964 24.4109 33.3582 25.4582 33.3582C25.9818 33.3582 26.4727 33.2709 26.9309 33.0964C27.4109 32.9218 27.8255 32.6818 28.1745 32.3764C28.5455 32.0491 28.8291 31.6673 29.0255 31.2309C29.2436 30.7727 29.3527 30.2709 29.3527 29.7255C29.3527 28.9836 29.1891 28.3836 28.8618 27.9255C28.5564 27.4455 28.1527 27.0855 27.6509 26.8455C27.1709 26.5836 26.6255 26.4091 26.0145 26.3218C25.4036 26.2345 24.8036 26.1909 24.2145 26.1909H23.2655V22.6564Z" fill="#0000FE"/>
<path d="M23.2655 22.6564V21.8382H22.4473V22.6564H23.2655ZM25.9164 22.5582L25.8189 21.7458L25.8149 21.7463L25.9164 22.5582ZM27.3564 22.1327L26.9905 21.4009L26.9828 21.4047L26.9753 21.4087L27.3564 22.1327ZM28.4036 21.1836L27.7119 20.7467L28.4036 21.1836ZM27.88 17.3218L27.3233 17.9214L27.88 17.3218ZM23.3636 17.1582L23.8392 17.824L23.8435 17.8209L23.3636 17.1582ZM22.0218 19.0236L21.8102 19.814L22.5425 20.01L22.7937 19.2949L22.0218 19.0236ZM17.8655 17.9109L17.0835 17.6703L16.8338 18.4817L17.6539 18.7013L17.8655 17.9109ZM20.68 14.1473L21.101 14.8489L21.1094 14.8438L21.1178 14.8385L20.68 14.1473ZM28.1418 13.3291L27.912 14.1143H27.912L28.1418 13.3291ZM30.4982 14.5073L29.9973 15.1542L30.0039 15.1594L30.0107 15.1644L30.4982 14.5073ZM32.1018 16.4382L31.37 16.8041L31.3762 16.8164L31.3828 16.8285L32.1018 16.4382ZM31.6764 22.46L32.3381 22.9413L32.3431 22.9342L31.6764 22.46ZM28.7636 24.3582L28.5685 23.5636L27.9455 23.7166V24.3582H28.7636ZM28.7636 24.4236H27.9455V25.1303L28.6446 25.2331L28.7636 24.4236ZM32.1345 26.3218L32.7956 25.8398L32.1345 26.3218ZM32.6255 32.9982L31.8974 32.6248L31.8936 32.6323L31.8899 32.6398L32.6255 32.9982ZM30.9236 35.1582L31.43 35.8009L31.4359 35.7962L31.4417 35.7914L30.9236 35.1582ZM28.4036 36.4673L28.6404 37.2505L28.6517 37.2469L28.4036 36.4673ZM22.7418 36.5655L22.945 35.7729L22.9354 35.7705L22.9258 35.7682L22.7418 36.5655ZM20.4182 35.6164L19.9746 36.304L19.9845 36.3102L20.4182 35.6164ZM18.6509 33.9473L17.9865 34.4248L17.9938 34.4348L18.6509 33.9473ZM17.5055 31.46L17.2954 30.6692L16.4994 30.8807L16.7161 31.6753L17.5055 31.46ZM21.6945 30.3473L22.4883 30.1488L22.2869 29.3434L21.4845 29.5565L21.6945 30.3473ZM22.9709 32.5727L23.5034 31.9515L22.9709 32.5727ZM26.9309 33.0964L26.6513 32.3274L26.6396 32.3318L26.9309 33.0964ZM28.1745 32.3764L28.7133 32.9921L28.7159 32.9899L28.1745 32.3764ZM29.0255 31.2309L28.2868 30.8791L28.283 30.8871L28.2793 30.8952L29.0255 31.2309ZM28.8618 27.9255L28.1715 28.3647L28.1833 28.3832L28.196 28.401L28.8618 27.9255ZM27.6509 26.8455L27.2591 27.5637L27.2782 27.5742L27.2979 27.5836L27.6509 26.8455ZM23.2655 26.1909H22.4473V27.0091H23.2655V26.1909ZM23.2655 23.4745H24.28V21.8382H23.2655V23.4745ZM24.28 23.4745C24.8787 23.4745 25.4582 23.44 26.0178 23.37L25.8149 21.7463C25.3273 21.8073 24.8159 21.8382 24.28 21.8382V23.4745ZM26.0138 23.3705C26.6416 23.2952 27.2207 23.1287 27.7374 22.8568L26.9753 21.4087C26.6629 21.5731 26.282 21.6903 25.8189 21.7458L26.0138 23.3705ZM27.7223 22.8645C28.2928 22.5793 28.7543 22.1606 29.0954 21.6205L27.7119 20.7467C27.5293 21.0358 27.2926 21.2498 26.9905 21.4009L27.7223 22.8645ZM29.0954 21.6205C29.4678 21.0309 29.6145 20.305 29.6145 19.5145H27.9782C27.9782 20.1205 27.8631 20.5072 27.7119 20.7467L29.0954 21.6205ZM29.6145 19.5145C29.6145 18.4111 29.2275 17.4566 28.4367 16.7223L27.3233 17.9214C27.7543 18.3216 27.9782 18.8289 27.9782 19.5145H29.6145ZM28.4367 16.7223C27.6481 15.99 26.6402 15.6527 25.4909 15.6527V17.2891C26.3053 17.2891 26.8901 17.5191 27.3233 17.9214L28.4367 16.7223ZM25.4909 15.6527C24.5341 15.6527 23.6569 15.9356 22.8838 16.4955L23.8435 17.8209C24.3358 17.4644 24.8768 17.2891 25.4909 17.2891V15.6527ZM22.8881 16.4924C22.1215 17.0399 21.5813 17.8093 21.2499 18.7524L22.7937 19.2949C23.0296 18.6234 23.3839 18.1492 23.8392 17.824L22.8881 16.4924ZM22.2334 18.2333L18.077 17.1206L17.6539 18.7013L21.8102 19.814L22.2334 18.2333ZM18.6475 18.1515C18.8845 17.3812 19.2145 16.7277 19.63 16.18L18.3263 15.191C17.7819 15.9087 17.3701 16.7388 17.0835 17.6703L18.6475 18.1515ZM19.63 16.18C20.0496 15.6269 20.5395 15.1857 21.101 14.8489L20.259 13.4457C19.5114 13.8943 18.8668 14.4785 18.3263 15.191L19.63 16.18ZM21.1178 14.8385C21.6953 14.4728 22.3339 14.2008 23.0384 14.0247L22.6416 12.4372C21.7752 12.6537 20.9738 12.9927 20.2422 13.4561L21.1178 14.8385ZM23.0384 14.0247C23.7558 13.8453 24.5071 13.7545 25.2945 13.7545V12.1182C24.3801 12.1182 23.4951 12.2238 22.6416 12.4372L23.0384 14.0247ZM25.2945 13.7545C26.2263 13.7545 27.0976 13.876 27.912 14.1143L28.3716 12.5439C27.3969 12.2586 26.37 12.1182 25.2945 12.1182V13.7545ZM27.912 14.1143C28.7172 14.35 29.4088 14.6986 29.9973 15.1542L30.9991 13.8603C30.2348 13.2686 29.3556 12.8318 28.3716 12.5439L27.912 14.1143ZM30.0107 15.1644C30.5794 15.5863 31.0322 16.1285 31.37 16.8041L32.8336 16.0723C32.386 15.177 31.7697 14.4318 30.9857 13.8502L30.0107 15.1644ZM31.3828 16.8285C31.7215 17.4524 31.9055 18.2081 31.9055 19.1218H33.5418C33.5418 17.9846 33.3113 16.9512 32.8209 16.0478L31.3828 16.8285ZM31.9055 19.1218C31.9055 20.2014 31.6059 21.1472 31.0096 21.9858L32.3431 22.9342C33.1432 21.8091 33.5418 20.5295 33.5418 19.1218H31.9055ZM31.0147 21.9788C30.4394 22.7697 29.6404 23.3003 28.5685 23.5636L28.9588 25.1527C30.3741 24.8051 31.5169 24.0703 32.3381 22.9412L31.0147 21.9788ZM27.9455 24.3582V24.4236H29.5818V24.3582H27.9455ZM28.6446 25.2331C29.948 25.4248 30.8597 25.9622 31.4734 26.8039L32.7956 25.8398C31.8821 24.5869 30.5466 23.8589 28.8827 23.6142L28.6446 25.2331ZM31.4734 26.8039C32.1237 27.6957 32.4618 28.7658 32.4618 30.0527H34.0982C34.0982 28.4596 33.6726 27.0425 32.7956 25.8398L31.4734 26.8039ZM32.4618 30.0527C32.4618 31.0569 32.2655 31.907 31.8974 32.6248L33.3535 33.3715C33.8581 32.3875 34.0982 31.274 34.0982 30.0527H32.4618ZM31.8899 32.6398C31.5262 33.3864 31.0324 34.012 30.4055 34.5249L31.4417 35.7914C32.2549 35.1261 32.8956 34.3118 33.361 33.3565L31.8899 32.6398ZM30.4173 34.5155C29.7817 35.0162 29.0312 35.409 28.1556 35.6876L28.6517 37.2469C29.6961 36.9146 30.6255 36.4347 31.43 35.8009L30.4173 34.5155ZM28.1669 35.6841C27.309 35.9435 26.4072 36.0745 25.4582 36.0745V37.7109C26.5601 37.7109 27.622 37.5583 28.6404 37.2504L28.1669 35.6841ZM25.4582 36.0745C24.5604 36.0745 23.7237 35.9726 22.945 35.7729L22.5386 37.358C23.4617 37.5947 24.4359 37.7109 25.4582 37.7109V36.0745ZM22.9258 35.7682C22.1579 35.591 21.4685 35.308 20.8518 34.9225L19.9845 36.3102C20.7642 36.7975 21.6239 37.1472 22.5578 37.3627L22.9258 35.7682ZM20.8617 34.9288C20.2718 34.5482 19.754 34.0609 19.308 33.4598L17.9938 34.4348C18.5515 35.1864 19.2119 35.8118 19.9746 36.3039L20.8617 34.9288ZM19.3153 33.4698C18.8786 32.8622 18.5349 32.1251 18.2948 31.2447L16.7161 31.6753C16.9996 32.7149 17.4195 33.6359 17.9865 34.4248L19.3153 33.4698ZM17.7155 32.2508L21.9046 31.138L21.4845 29.5565L17.2954 30.6692L17.7155 32.2508ZM20.9008 30.5457C21.1724 31.632 21.6716 32.5367 22.4384 33.1939L23.5034 31.9515C23.0484 31.5615 22.6967 30.9826 22.4883 30.1488L20.9008 30.5457ZM22.4384 33.1939C23.2376 33.8789 24.2756 34.1764 25.4582 34.1764V32.54C24.5462 32.54 23.926 32.3138 23.5034 31.9515L22.4384 33.1939ZM25.4582 34.1764C26.0745 34.1764 26.6648 34.0733 27.2222 33.8609L26.6396 32.3318C26.2806 32.4685 25.8891 32.54 25.4582 32.54V34.1764ZM27.2105 33.8653C27.776 33.6596 28.2807 33.3706 28.7133 32.9921L27.6358 31.7606C27.3702 31.993 27.0458 32.184 26.6513 32.3274L27.2105 33.8653ZM28.7159 32.9899C29.171 32.5883 29.5258 32.1127 29.7716 31.5667L28.2793 30.8952C28.1323 31.2218 27.9199 31.5099 27.6332 31.7629L28.7159 32.9899ZM29.7642 31.5827C30.0385 31.0065 30.1709 30.3833 30.1709 29.7255H28.5345C28.5345 30.1585 28.4488 30.5389 28.2868 30.8791L29.7642 31.5827ZM30.1709 29.7255C30.1709 28.8668 29.9812 28.0849 29.5276 27.4499L28.196 28.401C28.397 28.6823 28.5345 29.1005 28.5345 29.7255H30.1709ZM29.5521 27.4862C29.1664 26.8801 28.6472 26.415 28.0039 26.1073L27.2979 27.5836C27.6583 27.7559 27.9463 28.0108 28.1715 28.3647L29.5521 27.4862ZM28.0427 26.1272C27.4666 25.8129 26.8256 25.6112 26.1303 25.5119L25.8988 27.1318C26.4253 27.207 26.8752 27.3543 27.2591 27.5637L28.0427 26.1272ZM26.1303 25.5119C25.4828 25.4194 24.8441 25.3727 24.2145 25.3727V27.0091C24.7631 27.0091 25.3244 27.0497 25.8988 27.1318L26.1303 25.5119ZM24.2145 25.3727H23.2655V27.0091H24.2145V25.3727ZM24.0836 26.1909V22.6564H22.4473V26.1909H24.0836Z" fill="#0000FE" mask="url(#path-2-outside-1_3954_7331)"/>
<rect x="62" y="21" width="130" height="3" rx="1.5" fill="#0000FE"/>
<path d="M67.088 36.004C66.92 35.732 66.696 35.536 66.416 35.416C66.136 35.288 65.844 35.224 65.54 35.224C65.316 35.224 65.096 35.252 64.88 35.308C64.664 35.364 64.468 35.448 64.292 35.56C64.124 35.672 63.988 35.82 63.884 36.004C63.78 36.188 63.728 36.404 63.728 36.652C63.728 36.844 63.756 37.016 63.812 37.168C63.876 37.312 63.976 37.444 64.112 37.564C64.248 37.684 64.432 37.796 64.664 37.9C64.896 38.004 65.18 38.108 65.516 38.212C65.844 38.316 66.16 38.428 66.464 38.548C66.776 38.668 67.048 38.82 67.28 39.004C67.52 39.188 67.708 39.42 67.844 39.7C67.988 39.972 68.06 40.316 68.06 40.732C68.06 41.156 67.976 41.524 67.808 41.836C67.64 42.148 67.416 42.408 67.136 42.616C66.864 42.816 66.548 42.964 66.188 43.06C65.828 43.164 65.456 43.216 65.072 43.216C64.824 43.216 64.576 43.192 64.328 43.144C64.08 43.104 63.84 43.04 63.608 42.952C63.384 42.856 63.172 42.736 62.972 42.592C62.772 42.44 62.6 42.256 62.456 42.04L63.32 41.332C63.504 41.644 63.76 41.88 64.088 42.04C64.416 42.2 64.764 42.28 65.132 42.28C65.348 42.28 65.564 42.248 65.78 42.184C66.004 42.12 66.204 42.028 66.38 41.908C66.556 41.78 66.7 41.624 66.812 41.44C66.924 41.256 66.98 41.044 66.98 40.804C66.98 40.54 66.936 40.328 66.848 40.168C66.76 40 66.624 39.856 66.44 39.736C66.256 39.616 66.024 39.508 65.744 39.412C65.464 39.316 65.136 39.204 64.76 39.076C64.456 38.98 64.176 38.872 63.92 38.752C63.664 38.624 63.44 38.472 63.248 38.296C63.064 38.112 62.916 37.896 62.804 37.648C62.7 37.392 62.648 37.088 62.648 36.736C62.648 36.328 62.728 35.972 62.888 35.668C63.048 35.364 63.264 35.112 63.536 34.912C63.808 34.704 64.116 34.548 64.46 34.444C64.804 34.34 65.164 34.288 65.54 34.288C66.02 34.288 66.456 34.364 66.848 34.516C67.248 34.66 67.604 34.916 67.916 35.284L67.088 36.004ZM77.424 35.44H74.616V43H73.608V35.44H70.8V34.504H77.424V35.44ZM80.6146 34.504H85.9546V35.44H81.6226V38.104H85.6666V39.04H81.6226V42.064H86.1706V43H80.6146V34.504ZM89.7279 34.504H92.2479C92.6399 34.504 93.0119 34.544 93.3639 34.624C93.7239 34.696 94.0399 34.824 94.3119 35.008C94.5919 35.184 94.8119 35.424 94.9719 35.728C95.1399 36.024 95.2239 36.392 95.2239 36.832C95.2239 37.296 95.1359 37.68 94.9599 37.984C94.7839 38.288 94.5559 38.528 94.2759 38.704C94.0039 38.88 93.7039 39.004 93.3759 39.076C93.0479 39.148 92.7359 39.184 92.4399 39.184H90.7359V43H89.7279V34.504ZM90.7359 38.248H92.4399C92.9439 38.248 93.3519 38.136 93.6639 37.912C93.9839 37.68 94.1439 37.324 94.1439 36.844C94.1439 36.364 93.9839 36.012 93.6639 35.788C93.3519 35.556 92.9439 35.44 92.4399 35.44H90.7359V38.248ZM105.573 38.104H105.885C106.093 38.104 106.309 38.088 106.533 38.056C106.765 38.024 106.973 37.956 107.157 37.852C107.349 37.748 107.505 37.6 107.625 37.408C107.753 37.208 107.817 36.948 107.817 36.628C107.817 36.196 107.681 35.856 107.409 35.608C107.145 35.352 106.797 35.224 106.365 35.224C106.005 35.224 105.693 35.304 105.429 35.464C105.165 35.624 104.957 35.86 104.805 36.172L103.833 35.8C104.041 35.32 104.365 34.96 104.805 34.72C105.253 34.48 105.749 34.36 106.293 34.36C106.629 34.36 106.949 34.408 107.253 34.504C107.565 34.6 107.837 34.74 108.069 34.924C108.301 35.108 108.485 35.34 108.621 35.62C108.757 35.892 108.825 36.212 108.825 36.58C108.825 37.028 108.689 37.432 108.417 37.792C108.153 38.144 107.805 38.388 107.373 38.524V38.548C107.645 38.596 107.885 38.684 108.093 38.812C108.309 38.94 108.493 39.1 108.645 39.292C108.797 39.476 108.913 39.688 108.993 39.928C109.073 40.168 109.113 40.42 109.113 40.684C109.113 41.092 109.037 41.448 108.885 41.752C108.733 42.056 108.529 42.312 108.273 42.52C108.017 42.728 107.717 42.884 107.373 42.988C107.037 43.092 106.681 43.144 106.305 43.144C105.657 43.144 105.093 43.004 104.613 42.724C104.133 42.444 103.785 41.988 103.569 41.356L104.589 41.02C104.733 41.476 104.937 41.8 105.201 41.992C105.465 42.184 105.833 42.28 106.305 42.28C106.545 42.28 106.769 42.24 106.977 42.16C107.185 42.08 107.365 41.968 107.517 41.824C107.677 41.672 107.801 41.496 107.889 41.296C107.985 41.088 108.033 40.86 108.033 40.612C108.033 40.3 107.969 40.04 107.841 39.832C107.721 39.616 107.557 39.448 107.349 39.328C107.149 39.2 106.921 39.108 106.665 39.052C106.409 38.996 106.149 38.968 105.885 38.968H105.573V38.104Z" fill="black" fill-opacity="0.5"/>
<path d="M63.792 63.632C64.0693 64.048 64.4213 64.3573 64.848 64.56C65.2853 64.752 65.7333 64.848 66.192 64.848C66.448 64.848 66.7093 64.8107 66.976 64.736C67.2427 64.6507 67.4827 64.528 67.696 64.368C67.92 64.208 68.1013 64.0107 68.24 63.776C68.3787 63.5413 68.448 63.2693 68.448 62.96C68.448 62.5227 68.3093 62.192 68.032 61.968C67.7547 61.7333 67.408 61.5413 66.992 61.392C66.5867 61.232 66.1387 61.0827 65.648 60.944C65.168 60.7947 64.72 60.592 64.304 60.336C63.8987 60.08 63.5573 59.7387 63.28 59.312C63.0027 58.8747 62.864 58.288 62.864 57.552C62.864 57.2213 62.9333 56.8693 63.072 56.496C63.2213 56.1227 63.4507 55.7813 63.76 55.472C64.0693 55.1627 64.464 54.9067 64.944 54.704C65.4347 54.4907 66.0213 54.384 66.704 54.384C67.3227 54.384 67.9147 54.4693 68.48 54.64C69.0453 54.8107 69.5413 55.1573 69.968 55.68L68.72 56.816C68.528 56.5173 68.256 56.2773 67.904 56.096C67.552 55.9147 67.152 55.824 66.704 55.824C66.2773 55.824 65.92 55.8827 65.632 56C65.3547 56.1067 65.1307 56.2507 64.96 56.432C64.7893 56.6027 64.6667 56.7893 64.592 56.992C64.528 57.1947 64.496 57.3813 64.496 57.552C64.496 58.032 64.6347 58.4 64.912 58.656C65.1893 58.912 65.5307 59.12 65.936 59.28C66.352 59.44 66.8 59.584 67.28 59.712C67.7707 59.84 68.2187 60.0213 68.624 60.256C69.04 60.48 69.3867 60.7893 69.664 61.184C69.9413 61.568 70.08 62.1013 70.08 62.784C70.08 63.328 69.9733 63.8187 69.76 64.256C69.5573 64.6933 69.28 65.0613 68.928 65.36C68.576 65.6587 68.16 65.888 67.68 66.048C67.2 66.208 66.688 66.288 66.144 66.288C65.4187 66.288 64.7307 66.16 64.08 65.904C63.4293 65.648 62.912 65.2533 62.528 64.72L63.792 63.632ZM78.6986 66H77.2586V64.832H77.2266C77.0453 65.2373 76.7306 65.568 76.2826 65.824C75.8346 66.0693 75.3173 66.192 74.7306 66.192C74.3573 66.192 74.0053 66.1333 73.6746 66.016C73.344 65.9093 73.0506 65.7387 72.7946 65.504C72.5493 65.2693 72.352 64.9707 72.2026 64.608C72.0533 64.2347 71.9786 63.7973 71.9786 63.296V58.416H73.4186V62.896C73.4186 63.248 73.4666 63.552 73.5626 63.808C73.6586 64.0533 73.7866 64.256 73.9466 64.416C74.1066 64.5653 74.288 64.6773 74.4906 64.752C74.704 64.816 74.9226 64.848 75.1466 64.848C75.4453 64.848 75.7226 64.8 75.9786 64.704C76.2346 64.608 76.4586 64.4587 76.6506 64.256C76.8426 64.0427 76.992 63.776 77.0986 63.456C77.2053 63.136 77.2586 62.7573 77.2586 62.32V58.416H78.6986V66ZM80.8693 58.416H82.3093V59.504H82.3413C82.6186 59.0987 82.9973 58.784 83.4773 58.56C83.9679 58.336 84.4693 58.224 84.9813 58.224C85.5679 58.224 86.0959 58.3253 86.5653 58.528C87.0453 58.7307 87.4506 59.0133 87.7812 59.376C88.1226 59.7387 88.3839 60.1653 88.5653 60.656C88.7466 61.136 88.8373 61.6533 88.8373 62.208C88.8373 62.7733 88.7466 63.3013 88.5653 63.792C88.3839 64.272 88.1226 64.6933 87.7812 65.056C87.4506 65.408 87.0453 65.6853 86.5653 65.888C86.0959 66.0907 85.5679 66.192 84.9813 66.192C84.4373 66.192 83.9253 66.08 83.4453 65.856C82.9653 65.6213 82.5973 65.3067 82.3413 64.912H82.3093V70.512H80.8693V58.416ZM84.8053 59.568C84.4213 59.568 84.0746 59.6373 83.7653 59.776C83.4559 59.904 83.1946 60.0853 82.9813 60.32C82.7679 60.544 82.6026 60.8213 82.4853 61.152C82.3679 61.472 82.3093 61.824 82.3093 62.208C82.3093 62.592 82.3679 62.9493 82.4853 63.28C82.6026 63.6 82.7679 63.8773 82.9813 64.112C83.1946 64.336 83.4559 64.5173 83.7653 64.656C84.0746 64.784 84.4213 64.848 84.8053 64.848C85.1893 64.848 85.5359 64.784 85.8453 64.656C86.1546 64.5173 86.4159 64.336 86.6293 64.112C86.8426 63.8773 87.0079 63.6 87.1253 63.28C87.2426 62.9493 87.3013 62.592 87.3013 62.208C87.3013 61.824 87.2426 61.472 87.1253 61.152C87.0079 60.8213 86.8426 60.544 86.6293 60.32C86.4159 60.0853 86.1546 59.904 85.8453 59.776C85.5359 59.6373 85.1893 59.568 84.8053 59.568ZM90.6505 58.416H92.0905V59.504H92.1225C92.3998 59.0987 92.7785 58.784 93.2585 58.56C93.7492 58.336 94.2505 58.224 94.7625 58.224C95.3492 58.224 95.8772 58.3253 96.3465 58.528C96.8265 58.7307 97.2318 59.0133 97.5625 59.376C97.9038 59.7387 98.1652 60.1653 98.3465 60.656C98.5278 61.136 98.6185 61.6533 98.6185 62.208C98.6185 62.7733 98.5278 63.3013 98.3465 63.792C98.1652 64.272 97.9038 64.6933 97.5625 65.056C97.2318 65.408 96.8265 65.6853 96.3465 65.888C95.8772 66.0907 95.3492 66.192 94.7625 66.192C94.2185 66.192 93.7065 66.08 93.2265 65.856C92.7465 65.6213 92.3785 65.3067 92.1225 64.912H92.0905V70.512H90.6505V58.416ZM94.5865 59.568C94.2025 59.568 93.8558 59.6373 93.5465 59.776C93.2372 59.904 92.9758 60.0853 92.7625 60.32C92.5492 60.544 92.3838 60.8213 92.2665 61.152C92.1492 61.472 92.0905 61.824 92.0905 62.208C92.0905 62.592 92.1492 62.9493 92.2665 63.28C92.3838 63.6 92.5492 63.8773 92.7625 64.112C92.9758 64.336 93.2372 64.5173 93.5465 64.656C93.8558 64.784 94.2025 64.848 94.5865 64.848C94.9705 64.848 95.3172 64.784 95.6265 64.656C95.9358 64.5173 96.1972 64.336 96.4105 64.112C96.6238 63.8773 96.7892 63.6 96.9065 63.28C97.0238 62.9493 97.0825 62.592 97.0825 62.208C97.0825 61.824 97.0238 61.472 96.9065 61.152C96.7892 60.8213 96.6238 60.544 96.4105 60.32C96.1972 60.0853 95.9358 59.904 95.6265 59.776C95.3172 59.6373 94.9705 59.568 94.5865 59.568ZM101.6 62.208C101.6 62.592 101.658 62.9493 101.776 63.28C101.893 63.6 102.058 63.8773 102.272 64.112C102.485 64.336 102.746 64.5173 103.056 64.656C103.365 64.784 103.712 64.848 104.096 64.848C104.48 64.848 104.826 64.784 105.136 64.656C105.445 64.5173 105.706 64.336 105.92 64.112C106.133 63.8773 106.298 63.6 106.416 63.28C106.533 62.9493 106.592 62.592 106.592 62.208C106.592 61.824 106.533 61.472 106.416 61.152C106.298 60.8213 106.133 60.544 105.92 60.32C105.706 60.0853 105.445 59.904 105.136 59.776C104.826 59.6373 104.48 59.568 104.096 59.568C103.712 59.568 103.365 59.6373 103.056 59.776C102.746 59.904 102.485 60.0853 102.272 60.32C102.058 60.544 101.893 60.8213 101.776 61.152C101.658 61.472 101.6 61.824 101.6 62.208ZM100.064 62.208C100.064 61.6533 100.165 61.136 100.368 60.656C100.581 60.176 100.869 59.7547 101.232 59.392C101.594 59.0293 102.021 58.7467 102.512 58.544C103.002 58.3307 103.53 58.224 104.096 58.224C104.661 58.224 105.189 58.3307 105.68 58.544C106.17 58.7467 106.597 59.0293 106.96 59.392C107.322 59.7547 107.605 60.176 107.808 60.656C108.021 61.136 108.128 61.6533 108.128 62.208C108.128 62.7627 108.021 63.2853 107.808 63.776C107.605 64.256 107.322 64.6773 106.96 65.04C106.597 65.392 106.17 65.6747 105.68 65.888C105.189 66.0907 104.661 66.192 104.096 66.192C103.53 66.192 103.002 66.0907 102.512 65.888C102.021 65.6747 101.594 65.392 101.232 65.04C100.869 64.6773 100.581 64.256 100.368 63.776C100.165 63.2853 100.064 62.7627 100.064 62.208ZM109.932 58.416H111.372V59.584H111.404C111.5 59.3813 111.628 59.2 111.788 59.04C111.948 58.8693 112.124 58.7253 112.316 58.608C112.518 58.4907 112.737 58.4 112.972 58.336C113.206 58.2613 113.441 58.224 113.676 58.224C113.91 58.224 114.124 58.256 114.316 58.32L114.252 59.872C114.134 59.84 114.017 59.8133 113.9 59.792C113.782 59.7707 113.665 59.76 113.548 59.76C112.844 59.76 112.305 59.9573 111.932 60.352C111.558 60.7467 111.372 61.36 111.372 62.192V66H109.932V58.416ZM119.918 59.664H117.854V63.104C117.854 63.3173 117.859 63.5307 117.87 63.744C117.88 63.9467 117.918 64.1333 117.982 64.304C118.056 64.464 118.163 64.5973 118.302 64.704C118.451 64.8 118.664 64.848 118.942 64.848C119.112 64.848 119.288 64.832 119.47 64.8C119.651 64.768 119.816 64.7093 119.966 64.624V65.936C119.795 66.032 119.571 66.096 119.294 66.128C119.027 66.1707 118.819 66.192 118.67 66.192C118.115 66.192 117.683 66.1173 117.374 65.968C117.075 65.808 116.851 65.6053 116.702 65.36C116.563 65.1147 116.478 64.8427 116.446 64.544C116.424 64.2347 116.414 63.9253 116.414 63.616V59.664H114.75V58.416H116.414V56.288H117.854V58.416H119.918V59.664ZM121.888 58.416H123.328V66H121.888V58.416ZM121.552 55.696C121.552 55.408 121.653 55.1627 121.856 54.96C122.069 54.7467 122.32 54.64 122.608 54.64C122.896 54.64 123.141 54.7467 123.344 54.96C123.557 55.1627 123.664 55.408 123.664 55.696C123.664 55.984 123.557 56.2347 123.344 56.448C123.141 56.6507 122.896 56.752 122.608 56.752C122.32 56.752 122.069 56.6507 121.856 56.448C121.653 56.2347 121.552 55.984 121.552 55.696ZM125.619 58.416H127.059V59.584H127.091C127.273 59.1787 127.587 58.8533 128.035 58.608C128.483 58.352 129.001 58.224 129.587 58.224C129.95 58.224 130.297 58.2827 130.627 58.4C130.969 58.5067 131.262 58.6773 131.507 58.912C131.763 59.1467 131.966 59.4507 132.115 59.824C132.265 60.1867 132.339 60.6187 132.339 61.12V66H130.899V61.52C130.899 61.168 130.851 60.8693 130.755 60.624C130.659 60.368 130.531 60.1653 130.371 60.016C130.211 59.856 130.025 59.744 129.811 59.68C129.609 59.6053 129.395 59.568 129.171 59.568C128.873 59.568 128.595 59.616 128.339 59.712C128.083 59.808 127.859 59.9627 127.667 60.176C127.475 60.3787 127.326 60.64 127.219 60.96C127.113 61.28 127.059 61.6587 127.059 62.096V66H125.619V58.416ZM142.11 65.936C142.11 66.512 142.009 67.0347 141.806 67.504C141.614 67.984 141.337 68.3947 140.974 68.736C140.611 69.088 140.174 69.36 139.662 69.552C139.15 69.744 138.585 69.84 137.966 69.84C137.241 69.84 136.574 69.7387 135.966 69.536C135.369 69.3333 134.798 68.9813 134.254 68.48L135.23 67.264C135.603 67.6693 136.009 67.9733 136.446 68.176C136.883 68.3893 137.379 68.496 137.934 68.496C138.467 68.496 138.91 68.416 139.262 68.256C139.614 68.1067 139.891 67.9093 140.094 67.664C140.307 67.4187 140.457 67.136 140.542 66.816C140.627 66.5067 140.67 66.192 140.67 65.872V64.752H140.622C140.345 65.2107 139.966 65.552 139.486 65.776C139.017 65.9893 138.521 66.096 137.998 66.096C137.443 66.096 136.926 66 136.446 65.808C135.977 65.6053 135.571 65.3333 135.23 64.992C134.889 64.64 134.622 64.2293 134.43 63.76C134.238 63.28 134.142 62.7627 134.142 62.208C134.142 61.6533 134.233 61.136 134.414 60.656C134.595 60.1653 134.851 59.7387 135.182 59.376C135.523 59.0133 135.929 58.7307 136.398 58.528C136.878 58.3253 137.411 58.224 137.998 58.224C138.51 58.224 139.006 58.336 139.486 58.56C139.977 58.784 140.361 59.0987 140.638 59.504H140.67V58.416H142.11V65.936ZM138.174 59.568C137.79 59.568 137.443 59.6373 137.134 59.776C136.825 59.904 136.563 60.0853 136.35 60.32C136.137 60.544 135.971 60.8213 135.854 61.152C135.737 61.472 135.678 61.824 135.678 62.208C135.678 62.976 135.902 63.5947 136.35 64.064C136.798 64.5227 137.406 64.752 138.174 64.752C138.942 64.752 139.55 64.5227 139.998 64.064C140.446 63.5947 140.67 62.976 140.67 62.208C140.67 61.824 140.611 61.472 140.494 61.152C140.377 60.8213 140.211 60.544 139.998 60.32C139.785 60.0853 139.523 59.904 139.214 59.776C138.905 59.6373 138.558 59.568 138.174 59.568ZM63.2 76.672H67.152C67.952 76.672 68.6507 76.7627 69.248 76.944C69.856 77.1253 70.3787 77.3707 70.816 77.68C71.264 77.9787 71.632 78.3253 71.92 78.72C72.2187 79.1147 72.4533 79.52 72.624 79.936C72.7947 80.352 72.9173 80.768 72.992 81.184C73.0667 81.6 73.104 81.984 73.104 82.336C73.104 83.0613 72.9707 83.7653 72.704 84.448C72.4373 85.12 72.0427 85.7227 71.52 86.256C70.9973 86.7787 70.3467 87.2 69.568 87.52C68.8 87.84 67.9093 88 66.896 88H63.2V76.672ZM64.736 86.56H66.672C67.3227 86.56 67.936 86.4747 68.512 86.304C69.0987 86.1227 69.6107 85.856 70.048 85.504C70.4853 85.152 70.832 84.7147 71.088 84.192C71.344 83.6587 71.472 83.04 71.472 82.336C71.472 81.9733 71.4133 81.552 71.296 81.072C71.1787 80.5813 70.9547 80.1173 70.624 79.68C70.304 79.2427 69.856 78.8747 69.28 78.576C68.704 78.2667 67.9573 78.112 67.04 78.112H64.736V86.56ZM76.1154 84.208C76.1154 84.592 76.174 84.9493 76.2914 85.28C76.4087 85.6 76.574 85.8773 76.7874 86.112C77.0007 86.336 77.262 86.5173 77.5714 86.656C77.8807 86.784 78.2274 86.848 78.6114 86.848C78.9954 86.848 79.342 86.784 79.6514 86.656C79.9607 86.5173 80.222 86.336 80.4354 86.112C80.6487 85.8773 80.814 85.6 80.9314 85.28C81.0487 84.9493 81.1074 84.592 81.1074 84.208C81.1074 83.824 81.0487 83.472 80.9314 83.152C80.814 82.8213 80.6487 82.544 80.4354 82.32C80.222 82.0853 79.9607 81.904 79.6514 81.776C79.342 81.6373 78.9954 81.568 78.6114 81.568C78.2274 81.568 77.8807 81.6373 77.5714 81.776C77.262 81.904 77.0007 82.0853 76.7874 82.32C76.574 82.544 76.4087 82.8213 76.2914 83.152C76.174 83.472 76.1154 83.824 76.1154 84.208ZM74.5794 84.208C74.5794 83.6533 74.6807 83.136 74.8834 82.656C75.0967 82.176 75.3847 81.7547 75.7474 81.392C76.11 81.0293 76.5367 80.7467 77.0274 80.544C77.518 80.3307 78.046 80.224 78.6114 80.224C79.1767 80.224 79.7047 80.3307 80.1954 80.544C80.686 80.7467 81.1127 81.0293 81.4754 81.392C81.838 81.7547 82.1207 82.176 82.3234 82.656C82.5367 83.136 82.6434 83.6533 82.6434 84.208C82.6434 84.7627 82.5367 85.2853 82.3234 85.776C82.1207 86.256 81.838 86.6773 81.4754 87.04C81.1127 87.392 80.686 87.6747 80.1954 87.888C79.7047 88.0907 79.1767 88.192 78.6114 88.192C78.046 88.192 77.518 88.0907 77.0274 87.888C76.5367 87.6747 76.11 87.392 75.7474 87.04C75.3847 86.6773 75.0967 86.256 74.8834 85.776C74.6807 85.2853 74.5794 84.7627 74.5794 84.208ZM89.8714 82.432C89.6047 82.1547 89.322 81.9467 89.0234 81.808C88.7354 81.6587 88.3887 81.584 87.9834 81.584C87.5887 81.584 87.242 81.6587 86.9434 81.808C86.6554 81.9467 86.41 82.144 86.2074 82.4C86.0154 82.6453 85.866 82.9333 85.7594 83.264C85.6634 83.584 85.6154 83.92 85.6154 84.272C85.6154 84.624 85.674 84.96 85.7914 85.28C85.9087 85.5893 86.074 85.8613 86.2874 86.096C86.5007 86.3307 86.7567 86.5173 87.0554 86.656C87.354 86.784 87.69 86.848 88.0634 86.848C88.4687 86.848 88.8154 86.7787 89.1034 86.64C89.3914 86.4907 89.658 86.2773 89.9034 86L90.9274 87.024C90.554 87.44 90.1167 87.7387 89.6154 87.92C89.1247 88.1013 88.602 88.192 88.0474 88.192C87.4607 88.192 86.922 88.096 86.4314 87.904C85.9514 87.712 85.5354 87.4453 85.1834 87.104C84.8314 86.752 84.5594 86.336 84.3674 85.856C84.1754 85.3653 84.0794 84.8267 84.0794 84.24C84.0794 83.6533 84.1754 83.1147 84.3674 82.624C84.5594 82.1333 84.826 81.712 85.1674 81.36C85.5194 81.008 85.9354 80.736 86.4154 80.544C86.906 80.3413 87.45 80.24 88.0474 80.24C88.602 80.24 89.13 80.3413 89.6314 80.544C90.1434 80.736 90.586 81.0347 90.9594 81.44L89.8714 82.432ZM98.8861 88H97.4461V86.832H97.4141C97.2328 87.2373 96.9181 87.568 96.4701 87.824C96.0221 88.0693 95.5048 88.192 94.9181 88.192C94.5448 88.192 94.1928 88.1333 93.8621 88.016C93.5315 87.9093 93.2381 87.7387 92.9821 87.504C92.7368 87.2693 92.5395 86.9707 92.3901 86.608C92.2408 86.2347 92.1661 85.7973 92.1661 85.296V80.416H93.6061V84.896C93.6061 85.248 93.6541 85.552 93.7501 85.808C93.8461 86.0533 93.9741 86.256 94.1341 86.416C94.2941 86.5653 94.4755 86.6773 94.6781 86.752C94.8915 86.816 95.1101 86.848 95.3341 86.848C95.6328 86.848 95.9101 86.8 96.1661 86.704C96.4221 86.608 96.6461 86.4587 96.8381 86.256C97.0301 86.0427 97.1795 85.776 97.2861 85.456C97.3928 85.136 97.4461 84.7573 97.4461 84.32V80.416H98.8861V88ZM101.057 80.416H102.401V81.6H102.433C102.465 81.4933 102.545 81.36 102.673 81.2C102.811 81.04 102.982 80.8907 103.185 80.752C103.398 80.6027 103.643 80.48 103.921 80.384C104.209 80.2773 104.523 80.224 104.865 80.224C105.43 80.224 105.905 80.3413 106.289 80.576C106.673 80.8107 106.987 81.1627 107.233 81.632C107.478 81.1627 107.825 80.8107 108.273 80.576C108.721 80.3413 109.174 80.224 109.633 80.224C110.219 80.224 110.699 80.32 111.073 80.512C111.446 80.704 111.739 80.96 111.953 81.28C112.166 81.5893 112.31 81.9467 112.385 82.352C112.47 82.7467 112.513 83.1573 112.513 83.584V88H111.073V83.776C111.073 83.488 111.051 83.2107 111.009 82.944C110.977 82.6773 110.902 82.4427 110.785 82.24C110.667 82.0373 110.502 81.8773 110.289 81.76C110.075 81.632 109.793 81.568 109.441 81.568C108.747 81.568 108.251 81.7813 107.953 82.208C107.654 82.6347 107.505 83.184 107.505 83.856V88H106.065V84.032C106.065 83.6693 106.043 83.3387 106.001 83.04C105.969 82.7413 105.894 82.4853 105.777 82.272C105.67 82.048 105.51 81.8773 105.297 81.76C105.094 81.632 104.817 81.568 104.465 81.568C104.209 81.568 103.958 81.6213 103.713 81.728C103.478 81.824 103.27 81.9733 103.089 82.176C102.907 82.3787 102.763 82.64 102.657 82.96C102.55 83.2693 102.497 83.6373 102.497 84.064V88H101.057V80.416ZM115.77 84.736C115.77 85.0667 115.839 85.3707 115.978 85.648C116.127 85.9147 116.319 86.144 116.554 86.336C116.788 86.528 117.06 86.6773 117.37 86.784C117.679 86.8907 117.999 86.944 118.33 86.944C118.778 86.944 119.167 86.8427 119.498 86.64C119.828 86.4267 120.132 86.1493 120.41 85.808L121.498 86.64C120.698 87.6747 119.578 88.192 118.138 88.192C117.54 88.192 116.996 88.0907 116.506 87.888C116.026 87.6853 115.615 87.408 115.274 87.056C114.943 86.6933 114.687 86.272 114.506 85.792C114.324 85.3013 114.234 84.7733 114.234 84.208C114.234 83.6427 114.33 83.12 114.522 82.64C114.724 82.1493 114.996 81.728 115.338 81.376C115.69 81.0133 116.106 80.7307 116.586 80.528C117.066 80.3253 117.588 80.224 118.154 80.224C118.826 80.224 119.391 80.3413 119.85 80.576C120.319 80.8107 120.703 81.12 121.002 81.504C121.3 81.8773 121.514 82.304 121.642 82.784C121.78 83.2533 121.85 83.7333 121.85 84.224V84.736H115.77ZM120.314 83.584C120.303 83.264 120.25 82.9707 120.154 82.704C120.068 82.4373 119.935 82.208 119.754 82.016C119.572 81.8133 119.343 81.6587 119.066 81.552C118.799 81.4347 118.484 81.376 118.122 81.376C117.77 81.376 117.444 81.4453 117.146 81.584C116.858 81.712 116.612 81.8827 116.41 82.096C116.207 82.3093 116.047 82.5493 115.93 82.816C115.823 83.072 115.77 83.328 115.77 83.584H120.314ZM123.572 80.416H125.012V81.584H125.044C125.226 81.1787 125.54 80.8533 125.988 80.608C126.436 80.352 126.954 80.224 127.54 80.224C127.903 80.224 128.25 80.2827 128.58 80.4C128.922 80.5067 129.215 80.6773 129.46 80.912C129.716 81.1467 129.919 81.4507 130.068 81.824C130.218 82.1867 130.292 82.6187 130.292 83.12V88H128.852V83.52C128.852 83.168 128.804 82.8693 128.708 82.624C128.612 82.368 128.484 82.1653 128.324 82.016C128.164 81.856 127.978 81.744 127.764 81.68C127.562 81.6053 127.348 81.568 127.124 81.568C126.826 81.568 126.548 81.616 126.292 81.712C126.036 81.808 125.812 81.9627 125.62 82.176C125.428 82.3787 125.279 82.64 125.172 82.96C125.066 83.28 125.012 83.6587 125.012 84.096V88H123.572V80.416ZM136.527 81.664H134.463V85.104C134.463 85.3173 134.468 85.5307 134.479 85.744C134.49 85.9467 134.527 86.1333 134.591 86.304C134.666 86.464 134.772 86.5973 134.911 86.704C135.06 86.8 135.274 86.848 135.551 86.848C135.722 86.848 135.898 86.832 136.079 86.8C136.26 86.768 136.426 86.7093 136.575 86.624V87.936C136.404 88.032 136.18 88.096 135.903 88.128C135.636 88.1707 135.428 88.192 135.279 88.192C134.724 88.192 134.292 88.1173 133.983 87.968C133.684 87.808 133.46 87.6053 133.311 87.36C133.172 87.1147 133.087 86.8427 133.055 86.544C133.034 86.2347 133.023 85.9253 133.023 85.616V81.664H131.359V80.416H133.023V78.288H134.463V80.416H136.527V81.664ZM142.417 82.32C142.246 82.1067 142.033 81.9307 141.777 81.792C141.532 81.6427 141.228 81.568 140.865 81.568C140.524 81.568 140.225 81.6427 139.969 81.792C139.724 81.9307 139.601 82.1387 139.601 82.416C139.601 82.64 139.67 82.8213 139.809 82.96C139.958 83.0987 140.129 83.2107 140.321 83.296C140.524 83.3813 140.737 83.4453 140.961 83.488C141.185 83.5307 141.377 83.568 141.537 83.6C141.846 83.6747 142.134 83.7653 142.401 83.872C142.678 83.9787 142.913 84.1173 143.105 84.288C143.308 84.4587 143.462 84.6667 143.569 84.912C143.686 85.1573 143.745 85.456 143.745 85.808C143.745 86.2347 143.654 86.6027 143.473 86.912C143.292 87.2107 143.057 87.456 142.769 87.648C142.481 87.84 142.15 87.9787 141.777 88.064C141.414 88.1493 141.046 88.192 140.673 88.192C140.044 88.192 139.489 88.096 139.009 87.904C138.54 87.712 138.118 87.36 137.745 86.848L138.833 85.952C139.068 86.1867 139.329 86.3947 139.617 86.576C139.905 86.7573 140.257 86.848 140.673 86.848C140.854 86.848 141.036 86.832 141.217 86.8C141.409 86.7573 141.574 86.6987 141.713 86.624C141.862 86.5387 141.98 86.4373 142.065 86.32C142.161 86.192 142.209 86.048 142.209 85.888C142.209 85.6747 142.14 85.4987 142.001 85.36C141.873 85.2213 141.713 85.1147 141.521 85.04C141.34 84.9547 141.142 84.8907 140.929 84.848C140.726 84.7947 140.545 84.752 140.385 84.72C140.076 84.6453 139.782 84.56 139.505 84.464C139.228 84.368 138.982 84.24 138.769 84.08C138.556 83.92 138.385 83.7173 138.257 83.472C138.129 83.2267 138.065 82.9227 138.065 82.56C138.065 82.1653 138.145 81.824 138.305 81.536C138.476 81.2373 138.694 80.992 138.961 80.8C139.238 80.608 139.548 80.464 139.889 80.368C140.241 80.272 140.593 80.224 140.945 80.224C141.457 80.224 141.948 80.32 142.417 80.512C142.886 80.704 143.26 81.024 143.537 81.472L142.417 82.32Z" fill="black"/>
<rect x="62" y="97" width="59" height="15.1714" rx="7.58571" fill="#CCCFFF"/>
<path d="M77.9378 103.343C77.803 103.168 77.6322 103.033 77.4254 102.939C77.2186 102.844 77.0051 102.797 76.7848 102.797C76.5151 102.797 76.2701 102.849 76.0498 102.952C75.8341 103.051 75.6475 103.188 75.4902 103.364C75.3373 103.539 75.2182 103.746 75.1328 103.984C75.0474 104.218 75.0047 104.469 75.0047 104.739C75.0047 104.991 75.0451 105.229 75.1261 105.454C75.207 105.679 75.3238 105.876 75.4767 106.047C75.6295 106.218 75.8161 106.353 76.0363 106.452C76.2566 106.551 76.5061 106.6 76.7848 106.6C77.059 106.6 77.2995 106.544 77.5063 106.432C77.7131 106.319 77.8884 106.162 78.0322 105.96L78.5784 106.371C78.5424 106.42 78.4795 106.492 78.3896 106.587C78.2997 106.677 78.1806 106.769 78.0322 106.863C77.8839 106.953 77.7041 107.032 77.4928 107.099C77.286 107.171 77.0455 107.207 76.7713 107.207C76.3937 107.207 76.0521 107.135 75.7464 106.991C75.4452 106.847 75.1867 106.659 74.971 106.425C74.7597 106.191 74.5979 105.928 74.4855 105.636C74.3731 105.339 74.3169 105.04 74.3169 104.739C74.3169 104.371 74.3776 104.031 74.499 103.721C74.6203 103.406 74.7889 103.137 75.0047 102.912C75.225 102.683 75.4879 102.505 75.7936 102.379C76.0993 102.253 76.4364 102.19 76.805 102.19C77.1197 102.19 77.4276 102.251 77.7288 102.372C78.0345 102.494 78.284 102.68 78.4773 102.932L77.9378 103.343ZM79.6984 105.488C79.6984 105.649 79.7231 105.8 79.7726 105.939C79.822 106.074 79.8917 106.191 79.9816 106.29C80.0715 106.384 80.1816 106.461 80.312 106.519C80.4424 106.573 80.5885 106.6 80.7503 106.6C80.9121 106.6 81.0582 106.573 81.1886 106.519C81.3189 106.461 81.4291 106.384 81.519 106.29C81.6089 106.191 81.6786 106.074 81.728 105.939C81.7774 105.8 81.8022 105.649 81.8022 105.488C81.8022 105.326 81.7774 105.177 81.728 105.043C81.6786 104.903 81.6089 104.786 81.519 104.692C81.4291 104.593 81.3189 104.517 81.1886 104.463C81.0582 104.404 80.9121 104.375 80.7503 104.375C80.5885 104.375 80.4424 104.404 80.312 104.463C80.1816 104.517 80.0715 104.593 79.9816 104.692C79.8917 104.786 79.822 104.903 79.7726 105.043C79.7231 105.177 79.6984 105.326 79.6984 105.488ZM79.0511 105.488C79.0511 105.254 79.0938 105.036 79.1792 104.834C79.2691 104.631 79.3905 104.454 79.5433 104.301C79.6962 104.148 79.876 104.029 80.0827 103.944C80.2895 103.854 80.512 103.809 80.7503 103.809C80.9885 103.809 81.211 103.854 81.4178 103.944C81.6246 104.029 81.8044 104.148 81.9573 104.301C82.1101 104.454 82.2292 104.631 82.3146 104.834C82.4045 105.036 82.4495 105.254 82.4495 105.488C82.4495 105.721 82.4045 105.942 82.3146 106.148C82.2292 106.351 82.1101 106.528 81.9573 106.681C81.8044 106.829 81.6246 106.949 81.4178 107.038C81.211 107.124 80.9885 107.167 80.7503 107.167C80.512 107.167 80.2895 107.124 80.0827 107.038C79.876 106.949 79.6962 106.829 79.5433 106.681C79.3905 106.528 79.2691 106.351 79.1792 106.148C79.0938 105.942 79.0511 105.721 79.0511 105.488ZM83.2097 103.89H83.7761V104.389H83.7896C83.8031 104.344 83.8368 104.287 83.8908 104.22C83.9492 104.153 84.0211 104.09 84.1065 104.031C84.1964 103.968 84.2998 103.917 84.4167 103.876C84.5381 103.831 84.6707 103.809 84.8145 103.809C85.0528 103.809 85.2528 103.858 85.4147 103.957C85.5765 104.056 85.7091 104.204 85.8125 104.402C85.9159 104.204 86.062 104.056 86.2508 103.957C86.4396 103.858 86.6306 103.809 86.8239 103.809C87.0712 103.809 87.2734 103.849 87.4308 103.93C87.5881 104.011 87.7117 104.119 87.8016 104.254C87.8915 104.384 87.9522 104.535 87.9837 104.705C88.0196 104.872 88.0376 105.045 88.0376 105.225V107.086H87.4308V105.306C87.4308 105.184 87.4218 105.067 87.4038 104.955C87.3903 104.843 87.3588 104.744 87.3094 104.658C87.26 104.573 87.1903 104.505 87.1004 104.456C87.0105 104.402 86.8913 104.375 86.743 104.375C86.4508 104.375 86.2418 104.465 86.1159 104.645C85.99 104.825 85.9271 105.056 85.9271 105.339V107.086H85.3203V105.413C85.3203 105.261 85.3113 105.121 85.2933 104.995C85.2798 104.87 85.2483 104.762 85.1989 104.672C85.1539 104.577 85.0865 104.505 84.9966 104.456C84.9112 104.402 84.7943 104.375 84.646 104.375C84.5381 104.375 84.4324 104.398 84.3291 104.442C84.2302 104.483 84.1425 104.546 84.0661 104.631C83.9897 104.717 83.929 104.827 83.884 104.962C83.8391 105.092 83.8166 105.247 83.8166 105.427V107.086H83.2097V103.89ZM88.9517 103.89H89.5586V104.348H89.572C89.6889 104.177 89.8485 104.045 90.0508 103.95C90.2576 103.856 90.4688 103.809 90.6846 103.809C90.9319 103.809 91.1544 103.851 91.3522 103.937C91.5544 104.022 91.7253 104.141 91.8646 104.294C92.0085 104.447 92.1186 104.627 92.195 104.834C92.2714 105.036 92.3097 105.254 92.3097 105.488C92.3097 105.726 92.2714 105.948 92.195 106.155C92.1186 106.357 92.0085 106.535 91.8646 106.688C91.7253 106.836 91.5544 106.953 91.3522 107.038C91.1544 107.124 90.9319 107.167 90.6846 107.167C90.4554 107.167 90.2396 107.119 90.0373 107.025C89.835 106.926 89.6799 106.794 89.572 106.627H89.5586V108.987H88.9517V103.89ZM90.6104 104.375C90.4486 104.375 90.3025 104.404 90.1722 104.463C90.0418 104.517 89.9317 104.593 89.8418 104.692C89.7519 104.786 89.6822 104.903 89.6327 105.043C89.5833 105.177 89.5586 105.326 89.5586 105.488C89.5586 105.649 89.5833 105.8 89.6327 105.939C89.6822 106.074 89.7519 106.191 89.8418 106.29C89.9317 106.384 90.0418 106.461 90.1722 106.519C90.3025 106.573 90.4486 106.6 90.6104 106.6C90.7723 106.6 90.9184 106.573 91.0487 106.519C91.1791 106.461 91.2892 106.384 91.3791 106.29C91.469 106.191 91.5387 106.074 91.5882 105.939C91.6376 105.8 91.6623 105.649 91.6623 105.488C91.6623 105.326 91.6376 105.177 91.5882 105.043C91.5387 104.903 91.469 104.786 91.3791 104.692C91.2892 104.593 91.1791 104.517 91.0487 104.463C90.9184 104.404 90.7723 104.375 90.6104 104.375ZM93.121 101.988H93.7279V107.086H93.121V101.988ZM95.1522 105.71C95.1522 105.85 95.1814 105.978 95.2398 106.094C95.3028 106.207 95.3837 106.304 95.4826 106.384C95.5815 106.465 95.6961 106.528 95.8265 106.573C95.9568 106.618 96.0917 106.641 96.231 106.641C96.4198 106.641 96.5839 106.598 96.7233 106.513C96.8626 106.423 96.9907 106.306 97.1076 106.162L97.5661 106.513C97.229 106.949 96.757 107.167 96.1501 107.167C95.8984 107.167 95.6691 107.124 95.4624 107.038C95.2601 106.953 95.087 106.836 94.9432 106.688C94.8038 106.535 94.6959 106.357 94.6195 106.155C94.5431 105.948 94.5049 105.726 94.5049 105.488C94.5049 105.249 94.5453 105.029 94.6262 104.827C94.7117 104.62 94.8263 104.442 94.9701 104.294C95.1185 104.141 95.2938 104.022 95.4961 103.937C95.6984 103.851 95.9186 103.809 96.1569 103.809C96.4401 103.809 96.6783 103.858 96.8716 103.957C97.0694 104.056 97.2312 104.186 97.3571 104.348C97.483 104.505 97.5729 104.685 97.6268 104.888C97.6853 105.085 97.7145 105.288 97.7145 105.494V105.71H95.1522ZM97.0672 105.225C97.0627 105.09 97.0402 104.966 96.9997 104.854C96.9638 104.741 96.9076 104.645 96.8312 104.564C96.7547 104.478 96.6581 104.413 96.5412 104.368C96.4288 104.319 96.2962 104.294 96.1434 104.294C95.995 104.294 95.8579 104.323 95.7321 104.382C95.6107 104.436 95.5073 104.508 95.4219 104.598C95.3365 104.687 95.2691 104.789 95.2196 104.901C95.1747 105.009 95.1522 105.117 95.1522 105.225H97.0672ZM100.153 104.416H99.2833V105.865C99.2833 105.955 99.2855 106.045 99.29 106.135C99.2945 106.22 99.3103 106.299 99.3372 106.371C99.3687 106.438 99.4137 106.495 99.4721 106.54C99.535 106.58 99.6249 106.6 99.7418 106.6C99.8137 106.6 99.8879 106.593 99.9643 106.58C100.041 106.566 100.11 106.542 100.173 106.506V107.059C100.101 107.099 100.007 107.126 99.8901 107.14C99.7778 107.158 99.6901 107.167 99.6272 107.167C99.3934 107.167 99.2114 107.135 99.081 107.072C98.9551 107.005 98.8607 106.919 98.7978 106.816C98.7394 106.713 98.7034 106.598 98.6899 106.472C98.6809 106.342 98.6764 106.211 98.6764 106.081V104.416H97.9752V103.89H98.6764V102.993H99.2833V103.89H100.153V104.416ZM101.395 105.71C101.395 105.85 101.424 105.978 101.482 106.094C101.545 106.207 101.626 106.304 101.725 106.384C101.824 106.465 101.939 106.528 102.069 106.573C102.199 106.618 102.334 106.641 102.473 106.641C102.662 106.641 102.826 106.598 102.966 106.513C103.105 106.423 103.233 106.306 103.35 106.162L103.809 106.513C103.471 106.949 102.999 107.167 102.393 107.167C102.141 107.167 101.912 107.124 101.705 107.038C101.502 106.953 101.329 106.836 101.186 106.688C101.046 106.535 100.938 106.357 100.862 106.155C100.785 105.948 100.747 105.726 100.747 105.488C100.747 105.249 100.788 105.029 100.869 104.827C100.954 104.62 101.069 104.442 101.213 104.294C101.361 104.141 101.536 104.022 101.738 103.937C101.941 103.851 102.161 103.809 102.399 103.809C102.682 103.809 102.921 103.858 103.114 103.957C103.312 104.056 103.474 104.186 103.6 104.348C103.725 104.505 103.815 104.685 103.869 104.888C103.928 105.085 103.957 105.288 103.957 105.494V105.71H101.395ZM103.31 105.225C103.305 105.09 103.283 104.966 103.242 104.854C103.206 104.741 103.15 104.645 103.074 104.564C102.997 104.478 102.9 104.413 102.784 104.368C102.671 104.319 102.539 104.294 102.386 104.294C102.237 104.294 102.1 104.323 101.974 104.382C101.853 104.436 101.75 104.508 101.664 104.598C101.579 104.687 101.511 104.789 101.462 104.901C101.417 105.009 101.395 105.117 101.395 105.225H103.31ZM107.886 107.086H107.279V106.627H107.265C107.148 106.798 106.987 106.931 106.78 107.025C106.578 107.119 106.369 107.167 106.153 107.167C105.906 107.167 105.681 107.124 105.479 107.038C105.281 106.953 105.11 106.834 104.966 106.681C104.827 106.528 104.719 106.351 104.642 106.148C104.566 105.946 104.528 105.726 104.528 105.488C104.528 105.249 104.566 105.029 104.642 104.827C104.719 104.62 104.827 104.442 104.966 104.294C105.11 104.141 105.281 104.022 105.479 103.937C105.681 103.851 105.906 103.809 106.153 103.809C106.382 103.809 106.598 103.858 106.8 103.957C107.002 104.051 107.157 104.182 107.265 104.348H107.279V101.988H107.886V107.086ZM106.227 106.6C106.389 106.6 106.535 106.573 106.665 106.519C106.796 106.461 106.906 106.384 106.996 106.29C107.086 106.191 107.155 106.074 107.205 105.939C107.254 105.8 107.279 105.649 107.279 105.488C107.279 105.326 107.254 105.177 107.205 105.043C107.155 104.903 107.086 104.786 106.996 104.692C106.906 104.593 106.796 104.517 106.665 104.463C106.535 104.404 106.389 104.375 106.227 104.375C106.065 104.375 105.919 104.404 105.789 104.463C105.658 104.517 105.548 104.593 105.458 104.692C105.368 104.786 105.299 104.903 105.249 105.043C105.2 105.177 105.175 105.326 105.175 105.488C105.175 105.649 105.2 105.8 105.249 105.939C105.299 106.074 105.368 106.191 105.458 106.29C105.548 106.384 105.658 106.461 105.789 106.519C105.919 106.573 106.065 106.6 106.227 106.6Z" fill="#0000FE"/>
</svg>
