<svg width="190" height="116" viewBox="0 0 190 116" fill="none" xmlns="http://www.w3.org/2000/svg">
<rect x="0.9" y="0.9" width="50.2" height="50.2" rx="25.1" stroke="#0000FE" stroke-width="1.8" stroke-dasharray="3.6 3.6"/>
<mask id="path-2-outside-1_3954_7309" maskUnits="userSpaceOnUse" x="16" y="12.5" width="14" height="25" fill="black">
<rect fill="white" x="16" y="12.5" width="14" height="25"/>
<path d="M24.7709 17.8455L20.4182 21.8709L18.1273 19.1545L25.1309 13.3291H28.6982V36.5H24.7709V17.8455Z"/>
</mask>
<path d="M24.7709 17.8455L20.4182 21.8709L18.1273 19.1545L25.1309 13.3291H28.6982V36.5H24.7709V17.8455Z" fill="#0000FE"/>
<path d="M24.7709 17.8455H25.5891V15.9744L24.2154 17.2448L24.7709 17.8455ZM20.4182 21.8709L19.7927 22.3984L20.3449 23.0531L20.9737 22.4716L20.4182 21.8709ZM18.1273 19.1545L17.6041 18.5255L16.9707 19.0523L17.5018 19.682L18.1273 19.1545ZM25.1309 13.3291V12.5109H24.8351L24.6077 12.7001L25.1309 13.3291ZM28.6982 13.3291H29.5164V12.5109H28.6982V13.3291ZM28.6982 36.5V37.3182H29.5164V36.5H28.6982ZM24.7709 36.5H23.9527V37.3182H24.7709V36.5ZM24.2154 17.2448L19.8627 21.2702L20.9737 22.4716L25.3264 18.4461L24.2154 17.2448ZM21.0436 21.3434L18.7527 18.6271L17.5018 19.682L19.7927 22.3984L21.0436 21.3434ZM18.6505 19.7836L25.6541 13.9581L24.6077 12.7001L17.6041 18.5255L18.6505 19.7836ZM25.1309 14.1473H28.6982V12.5109H25.1309V14.1473ZM27.88 13.3291V36.5H29.5164V13.3291H27.88ZM28.6982 35.6818H24.7709V37.3182H28.6982V35.6818ZM25.5891 36.5V17.8455H23.9527V36.5H25.5891Z" fill="#0000FE" mask="url(#path-2-outside-1_3954_7309)"/>
<rect x="60" y="24" width="130" height="3" rx="1.5" fill="#0000FE"/>
<path d="M65.088 39.004C64.92 38.732 64.696 38.536 64.416 38.416C64.136 38.288 63.844 38.224 63.54 38.224C63.316 38.224 63.096 38.252 62.88 38.308C62.664 38.364 62.468 38.448 62.292 38.56C62.124 38.672 61.988 38.82 61.884 39.004C61.78 39.188 61.728 39.404 61.728 39.652C61.728 39.844 61.756 40.016 61.812 40.168C61.876 40.312 61.976 40.444 62.112 40.564C62.248 40.684 62.432 40.796 62.664 40.9C62.896 41.004 63.18 41.108 63.516 41.212C63.844 41.316 64.16 41.428 64.464 41.548C64.776 41.668 65.048 41.82 65.28 42.004C65.52 42.188 65.708 42.42 65.844 42.7C65.988 42.972 66.06 43.316 66.06 43.732C66.06 44.156 65.976 44.524 65.808 44.836C65.64 45.148 65.416 45.408 65.136 45.616C64.864 45.816 64.548 45.964 64.188 46.06C63.828 46.164 63.456 46.216 63.072 46.216C62.824 46.216 62.576 46.192 62.328 46.144C62.08 46.104 61.84 46.04 61.608 45.952C61.384 45.856 61.172 45.736 60.972 45.592C60.772 45.44 60.6 45.256 60.456 45.04L61.32 44.332C61.504 44.644 61.76 44.88 62.088 45.04C62.416 45.2 62.764 45.28 63.132 45.28C63.348 45.28 63.564 45.248 63.78 45.184C64.004 45.12 64.204 45.028 64.38 44.908C64.556 44.78 64.7 44.624 64.812 44.44C64.924 44.256 64.98 44.044 64.98 43.804C64.98 43.54 64.936 43.328 64.848 43.168C64.76 43 64.624 42.856 64.44 42.736C64.256 42.616 64.024 42.508 63.744 42.412C63.464 42.316 63.136 42.204 62.76 42.076C62.456 41.98 62.176 41.872 61.92 41.752C61.664 41.624 61.44 41.472 61.248 41.296C61.064 41.112 60.916 40.896 60.804 40.648C60.7 40.392 60.648 40.088 60.648 39.736C60.648 39.328 60.728 38.972 60.888 38.668C61.048 38.364 61.264 38.112 61.536 37.912C61.808 37.704 62.116 37.548 62.46 37.444C62.804 37.34 63.164 37.288 63.54 37.288C64.02 37.288 64.456 37.364 64.848 37.516C65.248 37.66 65.604 37.916 65.916 38.284L65.088 39.004ZM75.424 38.44H72.616V46H71.608V38.44H68.8V37.504H75.424V38.44ZM78.6146 37.504H83.9546V38.44H79.6226V41.104H83.6666V42.04H79.6226V45.064H84.1706V46H78.6146V37.504ZM87.7279 37.504H90.2479C90.6399 37.504 91.0119 37.544 91.3639 37.624C91.7239 37.696 92.0399 37.824 92.3119 38.008C92.5919 38.184 92.8119 38.424 92.9719 38.728C93.1399 39.024 93.2239 39.392 93.2239 39.832C93.2239 40.296 93.1359 40.68 92.9599 40.984C92.7839 41.288 92.5559 41.528 92.2759 41.704C92.0039 41.88 91.7039 42.004 91.3759 42.076C91.0479 42.148 90.7359 42.184 90.4399 42.184H88.7359V46H87.7279V37.504ZM88.7359 41.248H90.4399C90.9439 41.248 91.3519 41.136 91.6639 40.912C91.9839 40.68 92.1439 40.324 92.1439 39.844C92.1439 39.364 91.9839 39.012 91.6639 38.788C91.3519 38.556 90.9439 38.44 90.4399 38.44H88.7359V41.248ZM105.445 46H104.437V38.8H104.413L102.889 40.084L102.289 39.352L104.569 37.504H105.445V46Z" fill="black" fill-opacity="0.5"/>
<path d="M61.456 57.672H65.44C66.1653 57.672 66.7627 57.7733 67.232 57.976C67.7013 58.168 68.0693 58.4187 68.336 58.728C68.6133 59.0267 68.8053 59.368 68.912 59.752C69.0187 60.1253 69.072 60.488 69.072 60.84C69.072 61.192 69.0187 61.56 68.912 61.944C68.8053 62.3173 68.6133 62.6587 68.336 62.968C68.0693 63.2667 67.7013 63.5173 67.232 63.72C66.7627 63.912 66.1653 64.008 65.44 64.008H62.992V69H61.456V57.672ZM62.992 62.664H65.008C65.3067 62.664 65.6 62.6427 65.888 62.6C66.1867 62.5467 66.448 62.456 66.672 62.328C66.9067 62.2 67.0933 62.0187 67.232 61.784C67.3707 61.5387 67.44 61.224 67.44 60.84C67.44 60.456 67.3707 60.1467 67.232 59.912C67.0933 59.6667 66.9067 59.48 66.672 59.352C66.448 59.224 66.1867 59.1387 65.888 59.096C65.6 59.0427 65.3067 59.016 65.008 59.016H62.992V62.664ZM71.6604 65.736C71.6604 66.0667 71.7297 66.3707 71.8684 66.648C72.0177 66.9147 72.2097 67.144 72.4444 67.336C72.679 67.528 72.951 67.6773 73.2604 67.784C73.5697 67.8907 73.8897 67.944 74.2204 67.944C74.6684 67.944 75.0577 67.8427 75.3884 67.64C75.719 67.4267 76.023 67.1493 76.3004 66.808L77.3884 67.64C76.5884 68.6747 75.4684 69.192 74.0284 69.192C73.431 69.192 72.887 69.0907 72.3964 68.888C71.9164 68.6853 71.5057 68.408 71.1644 68.056C70.8337 67.6933 70.5777 67.272 70.3964 66.792C70.215 66.3013 70.1244 65.7733 70.1244 65.208C70.1244 64.6427 70.2204 64.12 70.4124 63.64C70.615 63.1493 70.887 62.728 71.2284 62.376C71.5804 62.0133 71.9964 61.7307 72.4764 61.528C72.9564 61.3253 73.479 61.224 74.0444 61.224C74.7164 61.224 75.2817 61.3413 75.7404 61.576C76.2097 61.8107 76.5937 62.12 76.8924 62.504C77.191 62.8773 77.4044 63.304 77.5324 63.784C77.671 64.2533 77.7404 64.7333 77.7404 65.224V65.736H71.6604ZM76.2044 64.584C76.1937 64.264 76.1404 63.9707 76.0444 63.704C75.959 63.4373 75.8257 63.208 75.6444 63.016C75.463 62.8133 75.2337 62.6587 74.9564 62.552C74.6897 62.4347 74.375 62.376 74.0124 62.376C73.6604 62.376 73.335 62.4453 73.0364 62.584C72.7484 62.712 72.503 62.8827 72.3004 63.096C72.0977 63.3093 71.9377 63.5493 71.8204 63.816C71.7137 64.072 71.6604 64.328 71.6604 64.584H76.2044ZM79.463 61.416H80.903V62.584H80.935C81.031 62.3813 81.159 62.2 81.319 62.04C81.479 61.8693 81.655 61.7253 81.847 61.608C82.0497 61.4907 82.2683 61.4 82.503 61.336C82.7377 61.2613 82.9723 61.224 83.207 61.224C83.4417 61.224 83.655 61.256 83.847 61.32L83.783 62.872C83.6657 62.84 83.5483 62.8133 83.431 62.792C83.3137 62.7707 83.1963 62.76 83.079 62.76C82.375 62.76 81.8363 62.9573 81.463 63.352C81.0897 63.7467 80.903 64.36 80.903 65.192V69H79.463V61.416ZM89.4169 63.32C89.2462 63.1067 89.0329 62.9307 88.7769 62.792C88.5315 62.6427 88.2275 62.568 87.8649 62.568C87.5235 62.568 87.2249 62.6427 86.9689 62.792C86.7235 62.9307 86.6009 63.1387 86.6009 63.416C86.6009 63.64 86.6702 63.8213 86.8089 63.96C86.9582 64.0987 87.1289 64.2107 87.3209 64.296C87.5235 64.3813 87.7369 64.4453 87.9609 64.488C88.1849 64.5307 88.3769 64.568 88.5369 64.6C88.8462 64.6747 89.1342 64.7653 89.4009 64.872C89.6782 64.9787 89.9129 65.1173 90.1049 65.288C90.3075 65.4587 90.4622 65.6667 90.5689 65.912C90.6862 66.1573 90.7449 66.456 90.7449 66.808C90.7449 67.2347 90.6542 67.6027 90.4729 67.912C90.2915 68.2107 90.0569 68.456 89.7689 68.648C89.4809 68.84 89.1502 68.9787 88.7769 69.064C88.4142 69.1493 88.0462 69.192 87.6729 69.192C87.0435 69.192 86.4889 69.096 86.0089 68.904C85.5395 68.712 85.1182 68.36 84.7449 67.848L85.8329 66.952C86.0675 67.1867 86.3289 67.3947 86.6169 67.576C86.9049 67.7573 87.2569 67.848 87.6729 67.848C87.8542 67.848 88.0355 67.832 88.2169 67.8C88.4089 67.7573 88.5742 67.6987 88.7129 67.624C88.8622 67.5387 88.9795 67.4373 89.0649 67.32C89.1609 67.192 89.2089 67.048 89.2089 66.888C89.2089 66.6747 89.1395 66.4987 89.0009 66.36C88.8729 66.2213 88.7129 66.1147 88.5209 66.04C88.3395 65.9547 88.1422 65.8907 87.9289 65.848C87.7262 65.7947 87.5449 65.752 87.3849 65.72C87.0755 65.6453 86.7822 65.56 86.5049 65.464C86.2275 65.368 85.9822 65.24 85.7689 65.08C85.5555 64.92 85.3849 64.7173 85.2569 64.472C85.1289 64.2267 85.0649 63.9227 85.0649 63.56C85.0649 63.1653 85.1449 62.824 85.3049 62.536C85.4755 62.2373 85.6942 61.992 85.9609 61.8C86.2382 61.608 86.5475 61.464 86.8889 61.368C87.2409 61.272 87.5929 61.224 87.9449 61.224C88.4569 61.224 88.9475 61.32 89.4169 61.512C89.8862 61.704 90.2595 62.024 90.5369 62.472L89.4169 63.32ZM93.6623 65.208C93.6623 65.592 93.7209 65.9493 93.8383 66.28C93.9556 66.6 94.1209 66.8773 94.3343 67.112C94.5476 67.336 94.8089 67.5173 95.1183 67.656C95.4276 67.784 95.7743 67.848 96.1583 67.848C96.5423 67.848 96.8889 67.784 97.1983 67.656C97.5076 67.5173 97.7689 67.336 97.9823 67.112C98.1956 66.8773 98.3609 66.6 98.4783 66.28C98.5956 65.9493 98.6543 65.592 98.6543 65.208C98.6543 64.824 98.5956 64.472 98.4783 64.152C98.3609 63.8213 98.1956 63.544 97.9823 63.32C97.7689 63.0853 97.5076 62.904 97.1983 62.776C96.8889 62.6373 96.5423 62.568 96.1583 62.568C95.7743 62.568 95.4276 62.6373 95.1183 62.776C94.8089 62.904 94.5476 63.0853 94.3343 63.32C94.1209 63.544 93.9556 63.8213 93.8383 64.152C93.7209 64.472 93.6623 64.824 93.6623 65.208ZM92.1263 65.208C92.1263 64.6533 92.2276 64.136 92.4303 63.656C92.6436 63.176 92.9316 62.7547 93.2943 62.392C93.6569 62.0293 94.0836 61.7467 94.5743 61.544C95.0649 61.3307 95.5929 61.224 96.1583 61.224C96.7236 61.224 97.2516 61.3307 97.7423 61.544C98.2329 61.7467 98.6596 62.0293 99.0223 62.392C99.3849 62.7547 99.6676 63.176 99.8703 63.656C100.084 64.136 100.19 64.6533 100.19 65.208C100.19 65.7627 100.084 66.2853 99.8703 66.776C99.6676 67.256 99.3849 67.6773 99.0223 68.04C98.6596 68.392 98.2329 68.6747 97.7423 68.888C97.2516 69.0907 96.7236 69.192 96.1583 69.192C95.5929 69.192 95.0649 69.0907 94.5743 68.888C94.0836 68.6747 93.6569 68.392 93.2943 68.04C92.9316 67.6773 92.6436 67.256 92.4303 66.776C92.2276 66.2853 92.1263 65.7627 92.1263 65.208ZM101.994 61.416H103.434V62.584H103.466C103.648 62.1787 103.962 61.8533 104.41 61.608C104.858 61.352 105.376 61.224 105.962 61.224C106.325 61.224 106.672 61.2827 107.002 61.4C107.344 61.5067 107.637 61.6773 107.882 61.912C108.138 62.1467 108.341 62.4507 108.49 62.824C108.64 63.1867 108.714 63.6187 108.714 64.12V69H107.274V64.52C107.274 64.168 107.226 63.8693 107.13 63.624C107.034 63.368 106.906 63.1653 106.746 63.016C106.586 62.856 106.4 62.744 106.186 62.68C105.984 62.6053 105.77 62.568 105.546 62.568C105.248 62.568 104.97 62.616 104.714 62.712C104.458 62.808 104.234 62.9627 104.042 63.176C103.85 63.3787 103.701 63.64 103.594 63.96C103.488 64.28 103.434 64.6587 103.434 65.096V69H101.994V61.416ZM110.917 62.344C111.322 61.9707 111.792 61.6933 112.325 61.512C112.858 61.32 113.392 61.224 113.925 61.224C114.48 61.224 114.954 61.2933 115.349 61.432C115.754 61.5707 116.085 61.7573 116.341 61.992C116.597 62.2267 116.784 62.4987 116.901 62.808C117.029 63.1067 117.093 63.4213 117.093 63.752V67.624C117.093 67.8907 117.098 68.136 117.109 68.36C117.12 68.584 117.136 68.7973 117.157 69H115.877C115.845 68.616 115.829 68.232 115.829 67.848H115.797C115.477 68.3387 115.098 68.6853 114.661 68.888C114.224 69.0907 113.717 69.192 113.141 69.192C112.789 69.192 112.453 69.144 112.133 69.048C111.813 68.952 111.53 68.808 111.285 68.616C111.05 68.424 110.864 68.1893 110.725 67.912C110.586 67.624 110.517 67.2933 110.517 66.92C110.517 66.4293 110.624 66.0187 110.837 65.688C111.061 65.3573 111.36 65.0907 111.733 64.888C112.117 64.6747 112.56 64.5253 113.061 64.44C113.573 64.344 114.117 64.296 114.693 64.296H115.749V63.976C115.749 63.784 115.712 63.592 115.637 63.4C115.562 63.208 115.45 63.0373 115.301 62.888C115.152 62.728 114.965 62.6053 114.741 62.52C114.517 62.424 114.25 62.376 113.941 62.376C113.664 62.376 113.418 62.4027 113.205 62.456C113.002 62.5093 112.816 62.5787 112.645 62.664C112.474 62.7387 112.32 62.8293 112.181 62.936C112.042 63.0427 111.909 63.144 111.781 63.24L110.917 62.344ZM114.981 65.352C114.64 65.352 114.288 65.3733 113.925 65.416C113.573 65.448 113.248 65.5173 112.949 65.624C112.661 65.7307 112.421 65.88 112.229 66.072C112.048 66.264 111.957 66.5093 111.957 66.808C111.957 67.2453 112.101 67.56 112.389 67.752C112.688 67.944 113.088 68.04 113.589 68.04C113.984 68.04 114.32 67.976 114.597 67.848C114.874 67.7093 115.098 67.5333 115.269 67.32C115.44 67.1067 115.562 66.872 115.637 66.616C115.712 66.3493 115.749 66.088 115.749 65.832V65.352H114.981ZM119.294 56.904H120.734V69H119.294V56.904ZM61.2 79.672H65.152C65.952 79.672 66.6507 79.7627 67.248 79.944C67.856 80.1253 68.3787 80.3707 68.816 80.68C69.264 80.9787 69.632 81.3253 69.92 81.72C70.2187 82.1147 70.4533 82.52 70.624 82.936C70.7947 83.352 70.9173 83.768 70.992 84.184C71.0667 84.6 71.104 84.984 71.104 85.336C71.104 86.0613 70.9707 86.7653 70.704 87.448C70.4373 88.12 70.0427 88.7227 69.52 89.256C68.9973 89.7787 68.3467 90.2 67.568 90.52C66.8 90.84 65.9093 91 64.896 91H61.2V79.672ZM62.736 89.56H64.672C65.3227 89.56 65.936 89.4747 66.512 89.304C67.0987 89.1227 67.6107 88.856 68.048 88.504C68.4853 88.152 68.832 87.7147 69.088 87.192C69.344 86.6587 69.472 86.04 69.472 85.336C69.472 84.9733 69.4133 84.552 69.296 84.072C69.1787 83.5813 68.9547 83.1173 68.624 82.68C68.304 82.2427 67.856 81.8747 67.28 81.576C66.704 81.2667 65.9573 81.112 65.04 81.112H62.736V89.56ZM74.0354 87.736C74.0354 88.0667 74.1047 88.3707 74.2434 88.648C74.3927 88.9147 74.5847 89.144 74.8194 89.336C75.054 89.528 75.326 89.6773 75.6354 89.784C75.9447 89.8907 76.2647 89.944 76.5954 89.944C77.0434 89.944 77.4327 89.8427 77.7634 89.64C78.094 89.4267 78.398 89.1493 78.6754 88.808L79.7634 89.64C78.9634 90.6747 77.8434 91.192 76.4034 91.192C75.806 91.192 75.262 91.0907 74.7714 90.888C74.2914 90.6853 73.8807 90.408 73.5394 90.056C73.2087 89.6933 72.9527 89.272 72.7714 88.792C72.59 88.3013 72.4994 87.7733 72.4994 87.208C72.4994 86.6427 72.5954 86.12 72.7874 85.64C72.99 85.1493 73.262 84.728 73.6034 84.376C73.9554 84.0133 74.3714 83.7307 74.8514 83.528C75.3314 83.3253 75.854 83.224 76.4194 83.224C77.0914 83.224 77.6567 83.3413 78.1154 83.576C78.5847 83.8107 78.9687 84.12 79.2674 84.504C79.566 84.8773 79.7794 85.304 79.9074 85.784C80.046 86.2533 80.1154 86.7333 80.1154 87.224V87.736H74.0354ZM78.5794 86.584C78.5687 86.264 78.5154 85.9707 78.4194 85.704C78.334 85.4373 78.2007 85.208 78.0194 85.016C77.838 84.8133 77.6087 84.6587 77.3314 84.552C77.0647 84.4347 76.75 84.376 76.3874 84.376C76.0354 84.376 75.71 84.4453 75.4114 84.584C75.1234 84.712 74.878 84.8827 74.6754 85.096C74.4727 85.3093 74.3127 85.5493 74.1954 85.816C74.0887 86.072 74.0354 86.328 74.0354 86.584H78.5794ZM85.902 84.664H83.838V88.104C83.838 88.3173 83.8433 88.5307 83.854 88.744C83.8647 88.9467 83.902 89.1333 83.966 89.304C84.0407 89.464 84.1473 89.5973 84.286 89.704C84.4353 89.8 84.6487 89.848 84.926 89.848C85.0967 89.848 85.2727 89.832 85.454 89.8C85.6353 89.768 85.8007 89.7093 85.95 89.624V90.936C85.7793 91.032 85.5553 91.096 85.278 91.128C85.0113 91.1707 84.8033 91.192 84.654 91.192C84.0993 91.192 83.6673 91.1173 83.358 90.968C83.0593 90.808 82.8353 90.6053 82.686 90.36C82.5473 90.1147 82.462 89.8427 82.43 89.544C82.4087 89.2347 82.398 88.9253 82.398 88.616V84.664H80.734V83.416H82.398V81.288H83.838V83.416H85.902V84.664ZM87.7919 84.344C88.1972 83.9707 88.6665 83.6933 89.1999 83.512C89.7332 83.32 90.2665 83.224 90.7999 83.224C91.3545 83.224 91.8292 83.2933 92.2239 83.432C92.6292 83.5707 92.9599 83.7573 93.2159 83.992C93.4719 84.2267 93.6585 84.4987 93.7759 84.808C93.9039 85.1067 93.9679 85.4213 93.9679 85.752V89.624C93.9679 89.8907 93.9732 90.136 93.9839 90.36C93.9945 90.584 94.0105 90.7973 94.0319 91H92.7519C92.7199 90.616 92.7039 90.232 92.7039 89.848H92.6719C92.3519 90.3387 91.9732 90.6853 91.5359 90.888C91.0985 91.0907 90.5919 91.192 90.0159 91.192C89.6639 91.192 89.3279 91.144 89.0079 91.048C88.6879 90.952 88.4052 90.808 88.1599 90.616C87.9252 90.424 87.7385 90.1893 87.5999 89.912C87.4612 89.624 87.3919 89.2933 87.3919 88.92C87.3919 88.4293 87.4985 88.0187 87.7119 87.688C87.9359 87.3573 88.2345 87.0907 88.6079 86.888C88.9919 86.6747 89.4345 86.5253 89.9359 86.44C90.4479 86.344 90.9919 86.296 91.5679 86.296H92.6239V85.976C92.6239 85.784 92.5865 85.592 92.5119 85.4C92.4372 85.208 92.3252 85.0373 92.1759 84.888C92.0265 84.728 91.8399 84.6053 91.6159 84.52C91.3919 84.424 91.1252 84.376 90.8159 84.376C90.5385 84.376 90.2932 84.4027 90.0799 84.456C89.8772 84.5093 89.6905 84.5787 89.5199 84.664C89.3492 84.7387 89.1945 84.8293 89.0559 84.936C88.9172 85.0427 88.7839 85.144 88.6559 85.24L87.7919 84.344ZM91.8559 87.352C91.5145 87.352 91.1625 87.3733 90.7999 87.416C90.4479 87.448 90.1225 87.5173 89.8239 87.624C89.5359 87.7307 89.2959 87.88 89.1039 88.072C88.9225 88.264 88.8319 88.5093 88.8319 88.808C88.8319 89.2453 88.9759 89.56 89.2639 89.752C89.5625 89.944 89.9625 90.04 90.4639 90.04C90.8585 90.04 91.1945 89.976 91.4719 89.848C91.7492 89.7093 91.9732 89.5333 92.1439 89.32C92.3145 89.1067 92.4372 88.872 92.5119 88.616C92.5865 88.3493 92.6239 88.088 92.6239 87.832V87.352H91.8559ZM96.1688 83.416H97.6088V91H96.1688V83.416ZM95.8328 80.696C95.8328 80.408 95.9341 80.1627 96.1368 79.96C96.3501 79.7467 96.6008 79.64 96.8888 79.64C97.1768 79.64 97.4221 79.7467 97.6248 79.96C97.8381 80.1627 97.9448 80.408 97.9448 80.696C97.9448 80.984 97.8381 81.2347 97.6248 81.448C97.4221 81.6507 97.1768 81.752 96.8888 81.752C96.6008 81.752 96.3501 81.6507 96.1368 81.448C95.9341 81.2347 95.8328 80.984 95.8328 80.696ZM100.013 78.904H101.453V91H100.013V78.904ZM107.776 85.32C107.606 85.1067 107.392 84.9307 107.136 84.792C106.891 84.6427 106.587 84.568 106.224 84.568C105.883 84.568 105.584 84.6427 105.328 84.792C105.083 84.9307 104.96 85.1387 104.96 85.416C104.96 85.64 105.03 85.8213 105.168 85.96C105.318 86.0987 105.488 86.2107 105.68 86.296C105.883 86.3813 106.096 86.4453 106.32 86.488C106.544 86.5307 106.736 86.568 106.896 86.6C107.206 86.6747 107.494 86.7653 107.76 86.872C108.038 86.9787 108.272 87.1173 108.464 87.288C108.667 87.4587 108.822 87.6667 108.928 87.912C109.046 88.1573 109.104 88.456 109.104 88.808C109.104 89.2347 109.014 89.6027 108.832 89.912C108.651 90.2107 108.416 90.456 108.128 90.648C107.84 90.84 107.51 90.9787 107.136 91.064C106.774 91.1493 106.406 91.192 106.032 91.192C105.403 91.192 104.848 91.096 104.368 90.904C103.899 90.712 103.478 90.36 103.104 89.848L104.192 88.952C104.427 89.1867 104.688 89.3947 104.976 89.576C105.264 89.7573 105.616 89.848 106.032 89.848C106.214 89.848 106.395 89.832 106.576 89.8C106.768 89.7573 106.934 89.6987 107.072 89.624C107.222 89.5387 107.339 89.4373 107.424 89.32C107.52 89.192 107.568 89.048 107.568 88.888C107.568 88.6747 107.499 88.4987 107.36 88.36C107.232 88.2213 107.072 88.1147 106.88 88.04C106.699 87.9547 106.502 87.8907 106.288 87.848C106.086 87.7947 105.904 87.752 105.744 87.72C105.435 87.6453 105.142 87.56 104.864 87.464C104.587 87.368 104.342 87.24 104.128 87.08C103.915 86.92 103.744 86.7173 103.616 86.472C103.488 86.2267 103.424 85.9227 103.424 85.56C103.424 85.1653 103.504 84.824 103.664 84.536C103.835 84.2373 104.054 83.992 104.32 83.8C104.598 83.608 104.907 83.464 105.248 83.368C105.6 83.272 105.952 83.224 106.304 83.224C106.816 83.224 107.307 83.32 107.776 83.512C108.246 83.704 108.619 84.024 108.896 84.472L107.776 85.32Z" fill="black"/>
<rect x="60" y="100" width="59" height="15.1714" rx="7.58571" fill="#CCCFFF"/>
<path d="M75.9378 106.343C75.803 106.168 75.6322 106.033 75.4254 105.939C75.2186 105.844 75.0051 105.797 74.7848 105.797C74.5151 105.797 74.2701 105.849 74.0498 105.952C73.8341 106.051 73.6475 106.188 73.4902 106.364C73.3373 106.539 73.2182 106.746 73.1328 106.984C73.0474 107.218 73.0047 107.469 73.0047 107.739C73.0047 107.991 73.0451 108.229 73.1261 108.454C73.207 108.679 73.3238 108.876 73.4767 109.047C73.6295 109.218 73.8161 109.353 74.0363 109.452C74.2566 109.551 74.5061 109.6 74.7848 109.6C75.059 109.6 75.2995 109.544 75.5063 109.432C75.7131 109.319 75.8884 109.162 76.0322 108.96L76.5784 109.371C76.5424 109.42 76.4795 109.492 76.3896 109.587C76.2997 109.677 76.1806 109.769 76.0322 109.863C75.8839 109.953 75.7041 110.032 75.4928 110.099C75.286 110.171 75.0455 110.207 74.7713 110.207C74.3937 110.207 74.0521 110.135 73.7464 109.991C73.4452 109.847 73.1867 109.659 72.971 109.425C72.7597 109.191 72.5979 108.928 72.4855 108.636C72.3731 108.339 72.3169 108.04 72.3169 107.739C72.3169 107.371 72.3776 107.031 72.499 106.721C72.6203 106.406 72.7889 106.137 73.0047 105.912C73.225 105.683 73.4879 105.505 73.7936 105.379C74.0993 105.253 74.4364 105.19 74.805 105.19C75.1197 105.19 75.4276 105.251 75.7288 105.372C76.0345 105.494 76.284 105.68 76.4773 105.932L75.9378 106.343ZM77.6984 108.488C77.6984 108.649 77.7231 108.8 77.7726 108.939C77.822 109.074 77.8917 109.191 77.9816 109.29C78.0715 109.384 78.1816 109.461 78.312 109.519C78.4424 109.573 78.5885 109.6 78.7503 109.6C78.9121 109.6 79.0582 109.573 79.1886 109.519C79.3189 109.461 79.4291 109.384 79.519 109.29C79.6089 109.191 79.6786 109.074 79.728 108.939C79.7774 108.8 79.8022 108.649 79.8022 108.488C79.8022 108.326 79.7774 108.177 79.728 108.043C79.6786 107.903 79.6089 107.786 79.519 107.692C79.4291 107.593 79.3189 107.517 79.1886 107.463C79.0582 107.404 78.9121 107.375 78.7503 107.375C78.5885 107.375 78.4424 107.404 78.312 107.463C78.1816 107.517 78.0715 107.593 77.9816 107.692C77.8917 107.786 77.822 107.903 77.7726 108.043C77.7231 108.177 77.6984 108.326 77.6984 108.488ZM77.0511 108.488C77.0511 108.254 77.0938 108.036 77.1792 107.834C77.2691 107.631 77.3905 107.454 77.5433 107.301C77.6962 107.148 77.876 107.029 78.0827 106.944C78.2895 106.854 78.512 106.809 78.7503 106.809C78.9885 106.809 79.211 106.854 79.4178 106.944C79.6246 107.029 79.8044 107.148 79.9573 107.301C80.1101 107.454 80.2292 107.631 80.3146 107.834C80.4045 108.036 80.4495 108.254 80.4495 108.488C80.4495 108.721 80.4045 108.942 80.3146 109.148C80.2292 109.351 80.1101 109.528 79.9573 109.681C79.8044 109.829 79.6246 109.949 79.4178 110.038C79.211 110.124 78.9885 110.167 78.7503 110.167C78.512 110.167 78.2895 110.124 78.0827 110.038C77.876 109.949 77.6962 109.829 77.5433 109.681C77.3905 109.528 77.2691 109.351 77.1792 109.148C77.0938 108.942 77.0511 108.721 77.0511 108.488ZM81.2097 106.89H81.7761V107.389H81.7896C81.8031 107.344 81.8368 107.287 81.8908 107.22C81.9492 107.153 82.0211 107.09 82.1065 107.031C82.1964 106.968 82.2998 106.917 82.4167 106.876C82.5381 106.831 82.6707 106.809 82.8145 106.809C83.0528 106.809 83.2528 106.858 83.4147 106.957C83.5765 107.056 83.7091 107.204 83.8125 107.402C83.9159 107.204 84.062 107.056 84.2508 106.957C84.4396 106.858 84.6306 106.809 84.8239 106.809C85.0712 106.809 85.2734 106.849 85.4308 106.93C85.5881 107.011 85.7117 107.119 85.8016 107.254C85.8915 107.384 85.9522 107.535 85.9837 107.705C86.0196 107.872 86.0376 108.045 86.0376 108.225V110.086H85.4308V108.306C85.4308 108.184 85.4218 108.067 85.4038 107.955C85.3903 107.843 85.3588 107.744 85.3094 107.658C85.26 107.573 85.1903 107.505 85.1004 107.456C85.0105 107.402 84.8913 107.375 84.743 107.375C84.4508 107.375 84.2418 107.465 84.1159 107.645C83.99 107.825 83.9271 108.056 83.9271 108.339V110.086H83.3203V108.413C83.3203 108.261 83.3113 108.121 83.2933 107.995C83.2798 107.87 83.2483 107.762 83.1989 107.672C83.1539 107.577 83.0865 107.505 82.9966 107.456C82.9112 107.402 82.7943 107.375 82.646 107.375C82.5381 107.375 82.4324 107.398 82.3291 107.442C82.2302 107.483 82.1425 107.546 82.0661 107.631C81.9897 107.717 81.929 107.827 81.884 107.962C81.8391 108.092 81.8166 108.247 81.8166 108.427V110.086H81.2097V106.89ZM86.9517 106.89H87.5586V107.348H87.572C87.6889 107.177 87.8485 107.045 88.0508 106.95C88.2576 106.856 88.4688 106.809 88.6846 106.809C88.9319 106.809 89.1544 106.851 89.3522 106.937C89.5544 107.022 89.7253 107.141 89.8646 107.294C90.0085 107.447 90.1186 107.627 90.195 107.834C90.2714 108.036 90.3097 108.254 90.3097 108.488C90.3097 108.726 90.2714 108.948 90.195 109.155C90.1186 109.357 90.0085 109.535 89.8646 109.688C89.7253 109.836 89.5544 109.953 89.3522 110.038C89.1544 110.124 88.9319 110.167 88.6846 110.167C88.4554 110.167 88.2396 110.119 88.0373 110.025C87.835 109.926 87.6799 109.794 87.572 109.627H87.5586V111.987H86.9517V106.89ZM88.6104 107.375C88.4486 107.375 88.3025 107.404 88.1722 107.463C88.0418 107.517 87.9317 107.593 87.8418 107.692C87.7519 107.786 87.6822 107.903 87.6327 108.043C87.5833 108.177 87.5586 108.326 87.5586 108.488C87.5586 108.649 87.5833 108.8 87.6327 108.939C87.6822 109.074 87.7519 109.191 87.8418 109.29C87.9317 109.384 88.0418 109.461 88.1722 109.519C88.3025 109.573 88.4486 109.6 88.6104 109.6C88.7723 109.6 88.9184 109.573 89.0487 109.519C89.1791 109.461 89.2892 109.384 89.3791 109.29C89.469 109.191 89.5387 109.074 89.5882 108.939C89.6376 108.8 89.6623 108.649 89.6623 108.488C89.6623 108.326 89.6376 108.177 89.5882 108.043C89.5387 107.903 89.469 107.786 89.3791 107.692C89.2892 107.593 89.1791 107.517 89.0487 107.463C88.9184 107.404 88.7723 107.375 88.6104 107.375ZM91.121 104.988H91.7279V110.086H91.121V104.988ZM93.1522 108.71C93.1522 108.85 93.1814 108.978 93.2398 109.094C93.3028 109.207 93.3837 109.304 93.4826 109.384C93.5815 109.465 93.6961 109.528 93.8265 109.573C93.9568 109.618 94.0917 109.641 94.231 109.641C94.4198 109.641 94.5839 109.598 94.7233 109.513C94.8626 109.423 94.9907 109.306 95.1076 109.162L95.5661 109.513C95.229 109.949 94.757 110.167 94.1501 110.167C93.8984 110.167 93.6691 110.124 93.4624 110.038C93.2601 109.953 93.087 109.836 92.9432 109.688C92.8038 109.535 92.6959 109.357 92.6195 109.155C92.5431 108.948 92.5049 108.726 92.5049 108.488C92.5049 108.249 92.5453 108.029 92.6262 107.827C92.7117 107.62 92.8263 107.442 92.9701 107.294C93.1185 107.141 93.2938 107.022 93.4961 106.937C93.6984 106.851 93.9186 106.809 94.1569 106.809C94.4401 106.809 94.6783 106.858 94.8716 106.957C95.0694 107.056 95.2312 107.186 95.3571 107.348C95.483 107.505 95.5729 107.685 95.6268 107.888C95.6853 108.085 95.7145 108.288 95.7145 108.494V108.71H93.1522ZM95.0672 108.225C95.0627 108.09 95.0402 107.966 94.9997 107.854C94.9638 107.741 94.9076 107.645 94.8312 107.564C94.7547 107.478 94.6581 107.413 94.5412 107.368C94.4288 107.319 94.2962 107.294 94.1434 107.294C93.995 107.294 93.8579 107.323 93.7321 107.382C93.6107 107.436 93.5073 107.508 93.4219 107.598C93.3365 107.687 93.2691 107.789 93.2196 107.901C93.1747 108.009 93.1522 108.117 93.1522 108.225H95.0672ZM98.1531 107.416H97.2833V108.865C97.2833 108.955 97.2855 109.045 97.29 109.135C97.2945 109.22 97.3103 109.299 97.3372 109.371C97.3687 109.438 97.4137 109.495 97.4721 109.54C97.535 109.58 97.6249 109.6 97.7418 109.6C97.8137 109.6 97.8879 109.593 97.9643 109.58C98.0407 109.566 98.1104 109.542 98.1733 109.506V110.059C98.1014 110.099 98.007 110.126 97.8901 110.14C97.7778 110.158 97.6901 110.167 97.6272 110.167C97.3934 110.167 97.2114 110.135 97.081 110.072C96.9551 110.005 96.8607 109.919 96.7978 109.816C96.7394 109.713 96.7034 109.598 96.6899 109.472C96.6809 109.342 96.6764 109.211 96.6764 109.081V107.416H95.9752V106.89H96.6764V105.993H97.2833V106.89H98.1531V107.416ZM99.3946 108.71C99.3946 108.85 99.4238 108.978 99.4823 109.094C99.5452 109.207 99.6261 109.304 99.725 109.384C99.8239 109.465 99.9385 109.528 100.069 109.573C100.199 109.618 100.334 109.641 100.473 109.641C100.662 109.641 100.826 109.598 100.966 109.513C101.105 109.423 101.233 109.306 101.35 109.162L101.809 109.513C101.471 109.949 100.999 110.167 100.393 110.167C100.141 110.167 99.9115 110.124 99.7048 110.038C99.5025 109.953 99.3294 109.836 99.1856 109.688C99.0462 109.535 98.9383 109.357 98.8619 109.155C98.7855 108.948 98.7473 108.726 98.7473 108.488C98.7473 108.249 98.7877 108.029 98.8687 107.827C98.9541 107.62 99.0687 107.442 99.2125 107.294C99.3609 107.141 99.5362 107.022 99.7385 106.937C99.9408 106.851 100.161 106.809 100.399 106.809C100.682 106.809 100.921 106.858 101.114 106.957C101.312 107.056 101.474 107.186 101.6 107.348C101.725 107.505 101.815 107.685 101.869 107.888C101.928 108.085 101.957 108.288 101.957 108.494V108.71H99.3946ZM101.31 108.225C101.305 108.09 101.283 107.966 101.242 107.854C101.206 107.741 101.15 107.645 101.074 107.564C100.997 107.478 100.9 107.413 100.784 107.368C100.671 107.319 100.539 107.294 100.386 107.294C100.237 107.294 100.1 107.323 99.9745 107.382C99.8531 107.436 99.7497 107.508 99.6643 107.598C99.5789 107.687 99.5115 107.789 99.462 107.901C99.4171 108.009 99.3946 108.117 99.3946 108.225H101.31ZM105.886 110.086H105.279V109.627H105.265C105.148 109.798 104.987 109.931 104.78 110.025C104.578 110.119 104.369 110.167 104.153 110.167C103.906 110.167 103.681 110.124 103.479 110.038C103.281 109.953 103.11 109.834 102.966 109.681C102.827 109.528 102.719 109.351 102.642 109.148C102.566 108.946 102.528 108.726 102.528 108.488C102.528 108.249 102.566 108.029 102.642 107.827C102.719 107.62 102.827 107.442 102.966 107.294C103.11 107.141 103.281 107.022 103.479 106.937C103.681 106.851 103.906 106.809 104.153 106.809C104.382 106.809 104.598 106.858 104.8 106.957C105.002 107.051 105.157 107.182 105.265 107.348H105.279V104.988H105.886V110.086ZM104.227 109.6C104.389 109.6 104.535 109.573 104.665 109.519C104.796 109.461 104.906 109.384 104.996 109.29C105.086 109.191 105.155 109.074 105.205 108.939C105.254 108.8 105.279 108.649 105.279 108.488C105.279 108.326 105.254 108.177 105.205 108.043C105.155 107.903 105.086 107.786 104.996 107.692C104.906 107.593 104.796 107.517 104.665 107.463C104.535 107.404 104.389 107.375 104.227 107.375C104.065 107.375 103.919 107.404 103.789 107.463C103.658 107.517 103.548 107.593 103.458 107.692C103.368 107.786 103.299 107.903 103.249 108.043C103.2 108.177 103.175 108.326 103.175 108.488C103.175 108.649 103.2 108.8 103.249 108.939C103.299 109.074 103.368 109.191 103.458 109.29C103.548 109.384 103.658 109.461 103.789 109.519C103.919 109.573 104.065 109.6 104.227 109.6Z" fill="#0000FE"/>
</svg>
