<svg width="241" height="113" viewBox="0 0 241 113" fill="none" xmlns="http://www.w3.org/2000/svg">
<rect x="0.9" y="0.9" width="50.2" height="50.2" rx="25.1" stroke="#0000FE" stroke-width="1.8" stroke-dasharray="3.6 3.6"/>
<mask id="path-2-outside-1_3954_8120" maskUnits="userSpaceOnUse" x="16" y="12.5" width="20" height="25" fill="black">
<rect fill="white" x="16" y="12.5" width="20" height="25"/>
<path d="M26.9636 31.7873H17.1127V27.8927L26.44 13.3291H30.8909V28.2527H34.2618V31.7873H30.8909V36.5H26.9636V31.7873ZM26.9636 18.8927H26.8982L21.1055 28.2527H26.9636V18.8927Z"/>
</mask>
<path d="M26.9636 31.7873H17.1127V27.8927L26.44 13.3291H30.8909V28.2527H34.2618V31.7873H30.8909V36.5H26.9636V31.7873ZM26.9636 18.8927H26.8982L21.1055 28.2527H26.9636V18.8927Z" fill="#0000FE"/>
<path d="M26.9636 31.7873H27.7818V30.9691H26.9636V31.7873ZM17.1127 31.7873H16.2945V32.6055H17.1127V31.7873ZM17.1127 27.8927L16.4237 27.4515L16.2945 27.6532V27.8927H17.1127ZM26.44 13.3291V12.5109H25.9924L25.751 12.8878L26.44 13.3291ZM30.8909 13.3291H31.7091V12.5109H30.8909V13.3291ZM30.8909 28.2527H30.0727V29.0709H30.8909V28.2527ZM34.2618 28.2527H35.08V27.4345H34.2618V28.2527ZM34.2618 31.7873V32.6055H35.08V31.7873H34.2618ZM30.8909 31.7873V30.9691H30.0727V31.7873H30.8909ZM30.8909 36.5V37.3182H31.7091V36.5H30.8909ZM26.9636 36.5H26.1455V37.3182H26.9636V36.5ZM26.9636 18.8927H27.7818V18.0745H26.9636V18.8927ZM26.8982 18.8927V18.0745H26.4423L26.2025 18.4622L26.8982 18.8927ZM21.1055 28.2527L20.4097 27.8222L19.6369 29.0709H21.1055V28.2527ZM26.9636 28.2527V29.0709H27.7818V28.2527H26.9636ZM26.9636 30.9691H17.1127V32.6055H26.9636V30.9691ZM17.9309 31.7873V27.8927H16.2945V31.7873H17.9309ZM17.8017 28.334L27.129 13.7704L25.751 12.8878L16.4237 27.4515L17.8017 28.334ZM26.44 14.1473H30.8909V12.5109H26.44V14.1473ZM30.0727 13.3291V28.2527H31.7091V13.3291H30.0727ZM30.8909 29.0709H34.2618V27.4345H30.8909V29.0709ZM33.4436 28.2527V31.7873H35.08V28.2527H33.4436ZM34.2618 30.9691H30.8909V32.6055H34.2618V30.9691ZM30.0727 31.7873V36.5H31.7091V31.7873H30.0727ZM30.8909 35.6818H26.9636V37.3182H30.8909V35.6818ZM27.7818 36.5V31.7873H26.1455V36.5H27.7818ZM26.9636 18.0745H26.8982V19.7109H26.9636V18.0745ZM26.2025 18.4622L20.4097 27.8222L21.8012 28.6833L27.5939 19.3233L26.2025 18.4622ZM21.1055 29.0709H26.9636V27.4345H21.1055V29.0709ZM27.7818 28.2527V18.8927H26.1455V28.2527H27.7818Z" fill="#0000FE" mask="url(#path-2-outside-1_3954_8120)"/>
<rect x="62" y="21" width="130" height="3" rx="1.5" fill="#0000FE"/>
<path d="M67.088 36.004C66.92 35.732 66.696 35.536 66.416 35.416C66.136 35.288 65.844 35.224 65.54 35.224C65.316 35.224 65.096 35.252 64.88 35.308C64.664 35.364 64.468 35.448 64.292 35.56C64.124 35.672 63.988 35.82 63.884 36.004C63.78 36.188 63.728 36.404 63.728 36.652C63.728 36.844 63.756 37.016 63.812 37.168C63.876 37.312 63.976 37.444 64.112 37.564C64.248 37.684 64.432 37.796 64.664 37.9C64.896 38.004 65.18 38.108 65.516 38.212C65.844 38.316 66.16 38.428 66.464 38.548C66.776 38.668 67.048 38.82 67.28 39.004C67.52 39.188 67.708 39.42 67.844 39.7C67.988 39.972 68.06 40.316 68.06 40.732C68.06 41.156 67.976 41.524 67.808 41.836C67.64 42.148 67.416 42.408 67.136 42.616C66.864 42.816 66.548 42.964 66.188 43.06C65.828 43.164 65.456 43.216 65.072 43.216C64.824 43.216 64.576 43.192 64.328 43.144C64.08 43.104 63.84 43.04 63.608 42.952C63.384 42.856 63.172 42.736 62.972 42.592C62.772 42.44 62.6 42.256 62.456 42.04L63.32 41.332C63.504 41.644 63.76 41.88 64.088 42.04C64.416 42.2 64.764 42.28 65.132 42.28C65.348 42.28 65.564 42.248 65.78 42.184C66.004 42.12 66.204 42.028 66.38 41.908C66.556 41.78 66.7 41.624 66.812 41.44C66.924 41.256 66.98 41.044 66.98 40.804C66.98 40.54 66.936 40.328 66.848 40.168C66.76 40 66.624 39.856 66.44 39.736C66.256 39.616 66.024 39.508 65.744 39.412C65.464 39.316 65.136 39.204 64.76 39.076C64.456 38.98 64.176 38.872 63.92 38.752C63.664 38.624 63.44 38.472 63.248 38.296C63.064 38.112 62.916 37.896 62.804 37.648C62.7 37.392 62.648 37.088 62.648 36.736C62.648 36.328 62.728 35.972 62.888 35.668C63.048 35.364 63.264 35.112 63.536 34.912C63.808 34.704 64.116 34.548 64.46 34.444C64.804 34.34 65.164 34.288 65.54 34.288C66.02 34.288 66.456 34.364 66.848 34.516C67.248 34.66 67.604 34.916 67.916 35.284L67.088 36.004ZM77.424 35.44H74.616V43H73.608V35.44H70.8V34.504H77.424V35.44ZM80.6146 34.504H85.9546V35.44H81.6226V38.104H85.6666V39.04H81.6226V42.064H86.1706V43H80.6146V34.504ZM89.7279 34.504H92.2479C92.6399 34.504 93.0119 34.544 93.3639 34.624C93.7239 34.696 94.0399 34.824 94.3119 35.008C94.5919 35.184 94.8119 35.424 94.9719 35.728C95.1399 36.024 95.2239 36.392 95.2239 36.832C95.2239 37.296 95.1359 37.68 94.9599 37.984C94.7839 38.288 94.5559 38.528 94.2759 38.704C94.0039 38.88 93.7039 39.004 93.3759 39.076C93.0479 39.148 92.7359 39.184 92.4399 39.184H90.7359V43H89.7279V34.504ZM90.7359 38.248H92.4399C92.9439 38.248 93.3519 38.136 93.6639 37.912C93.9839 37.68 94.1439 37.324 94.1439 36.844C94.1439 36.364 93.9839 36.012 93.6639 35.788C93.3519 35.556 92.9439 35.44 92.4399 35.44H90.7359V38.248ZM108.153 40.12H109.377V41.056H108.153V43H107.145V41.056H103.545V39.94L106.917 34.504H108.153V40.12ZM107.145 35.68H107.121L104.409 40.12H107.145V35.68Z" fill="black" fill-opacity="0.5"/>
<path d="M62.016 54.672H63.616L66.112 63.728H66.144L68.816 54.672H70.576L73.248 63.728H73.28L75.776 54.672H77.376L74.08 66H72.464L69.712 56.752H69.68L66.944 66H65.328L62.016 54.672ZM78.1974 58.416H79.6374V59.584H79.6694C79.7654 59.3813 79.8934 59.2 80.0534 59.04C80.2134 58.8693 80.3894 58.7253 80.5814 58.608C80.784 58.4907 81.0027 58.4 81.2374 58.336C81.472 58.2613 81.7067 58.224 81.9414 58.224C82.176 58.224 82.3894 58.256 82.5814 58.32L82.5174 59.872C82.4 59.84 82.2827 59.8133 82.1654 59.792C82.048 59.7707 81.9307 59.76 81.8134 59.76C81.1094 59.76 80.5707 59.9573 80.1974 60.352C79.824 60.7467 79.6374 61.36 79.6374 62.192V66H78.1974V58.416ZM84.2313 58.416H85.6713V66H84.2313V58.416ZM83.8953 55.696C83.8953 55.408 83.9966 55.1627 84.1993 54.96C84.4126 54.7467 84.6633 54.64 84.9513 54.64C85.2393 54.64 85.4846 54.7467 85.6873 54.96C85.9006 55.1627 86.0073 55.408 86.0073 55.696C86.0073 55.984 85.9006 56.2347 85.6873 56.448C85.4846 56.6507 85.2393 56.752 84.9513 56.752C84.6633 56.752 84.4126 56.6507 84.1993 56.448C83.9966 56.2347 83.8953 55.984 83.8953 55.696ZM92.027 59.664H89.963V63.104C89.963 63.3173 89.9683 63.5307 89.979 63.744C89.9897 63.9467 90.027 64.1333 90.091 64.304C90.1657 64.464 90.2723 64.5973 90.411 64.704C90.5603 64.8 90.7737 64.848 91.051 64.848C91.2217 64.848 91.3977 64.832 91.579 64.8C91.7603 64.768 91.9257 64.7093 92.075 64.624V65.936C91.9043 66.032 91.6803 66.096 91.403 66.128C91.1363 66.1707 90.9283 66.192 90.779 66.192C90.2243 66.192 89.7923 66.1173 89.483 65.968C89.1843 65.808 88.9603 65.6053 88.811 65.36C88.6723 65.1147 88.587 64.8427 88.555 64.544C88.5337 64.2347 88.523 63.9253 88.523 63.616V59.664H86.859V58.416H88.523V56.288H89.963V58.416H92.027V59.664ZM94.9729 62.736C94.9729 63.0667 95.0422 63.3707 95.1809 63.648C95.3302 63.9147 95.5222 64.144 95.7569 64.336C95.9915 64.528 96.2635 64.6773 96.5729 64.784C96.8822 64.8907 97.2022 64.944 97.5329 64.944C97.9809 64.944 98.3702 64.8427 98.7009 64.64C99.0315 64.4267 99.3355 64.1493 99.6129 63.808L100.701 64.64C99.9009 65.6747 98.7809 66.192 97.3409 66.192C96.7435 66.192 96.1995 66.0907 95.7089 65.888C95.2289 65.6853 94.8182 65.408 94.4769 65.056C94.1462 64.6933 93.8902 64.272 93.7089 63.792C93.5275 63.3013 93.4369 62.7733 93.4369 62.208C93.4369 61.6427 93.5329 61.12 93.7249 60.64C93.9275 60.1493 94.1995 59.728 94.5409 59.376C94.8929 59.0133 95.3089 58.7307 95.7889 58.528C96.2689 58.3253 96.7915 58.224 97.3569 58.224C98.0289 58.224 98.5942 58.3413 99.0529 58.576C99.5222 58.8107 99.9062 59.12 100.205 59.504C100.504 59.8773 100.717 60.304 100.845 60.784C100.984 61.2533 101.053 61.7333 101.053 62.224V62.736H94.9729ZM99.5169 61.584C99.5062 61.264 99.4529 60.9707 99.3569 60.704C99.2715 60.4373 99.1382 60.208 98.9569 60.016C98.7755 59.8133 98.5462 59.6587 98.2689 59.552C98.0022 59.4347 97.6875 59.376 97.3249 59.376C96.9729 59.376 96.6475 59.4453 96.3489 59.584C96.0609 59.712 95.8155 59.8827 95.6129 60.096C95.4102 60.3093 95.2502 60.5493 95.1329 60.816C95.0262 61.072 94.9729 61.328 94.9729 61.584H99.5169ZM106.317 58.416H107.981L110.237 64.336H110.269L112.413 58.416H113.965L110.365 67.632C110.237 67.9627 110.103 68.2613 109.965 68.528C109.826 68.8053 109.661 69.04 109.469 69.232C109.277 69.424 109.042 69.5733 108.765 69.68C108.498 69.7867 108.167 69.84 107.773 69.84C107.559 69.84 107.341 69.824 107.117 69.792C106.903 69.7707 106.695 69.7173 106.493 69.632L106.669 68.32C106.957 68.4373 107.245 68.496 107.533 68.496C107.757 68.496 107.943 68.464 108.093 68.4C108.253 68.3467 108.386 68.2613 108.493 68.144C108.61 68.0373 108.706 67.9093 108.781 67.76C108.855 67.6107 108.93 67.44 109.005 67.248L109.469 66.048L106.317 58.416ZM116.397 62.208C116.397 62.592 116.455 62.9493 116.573 63.28C116.69 63.6 116.855 63.8773 117.069 64.112C117.282 64.336 117.543 64.5173 117.853 64.656C118.162 64.784 118.509 64.848 118.893 64.848C119.277 64.848 119.623 64.784 119.933 64.656C120.242 64.5173 120.503 64.336 120.717 64.112C120.93 63.8773 121.095 63.6 121.213 63.28C121.33 62.9493 121.389 62.592 121.389 62.208C121.389 61.824 121.33 61.472 121.213 61.152C121.095 60.8213 120.93 60.544 120.717 60.32C120.503 60.0853 120.242 59.904 119.933 59.776C119.623 59.6373 119.277 59.568 118.893 59.568C118.509 59.568 118.162 59.6373 117.853 59.776C117.543 59.904 117.282 60.0853 117.069 60.32C116.855 60.544 116.69 60.8213 116.573 61.152C116.455 61.472 116.397 61.824 116.397 62.208ZM114.861 62.208C114.861 61.6533 114.962 61.136 115.165 60.656C115.378 60.176 115.666 59.7547 116.029 59.392C116.391 59.0293 116.818 58.7467 117.309 58.544C117.799 58.3307 118.327 58.224 118.893 58.224C119.458 58.224 119.986 58.3307 120.477 58.544C120.967 58.7467 121.394 59.0293 121.757 59.392C122.119 59.7547 122.402 60.176 122.605 60.656C122.818 61.136 122.925 61.6533 122.925 62.208C122.925 62.7627 122.818 63.2853 122.605 63.776C122.402 64.256 122.119 64.6773 121.757 65.04C121.394 65.392 120.967 65.6747 120.477 65.888C119.986 66.0907 119.458 66.192 118.893 66.192C118.327 66.192 117.799 66.0907 117.309 65.888C116.818 65.6747 116.391 65.392 116.029 65.04C115.666 64.6773 115.378 64.256 115.165 63.776C114.962 63.2853 114.861 62.7627 114.861 62.208ZM131.449 66H130.009V64.832H129.977C129.795 65.2373 129.481 65.568 129.033 65.824C128.585 66.0693 128.067 66.192 127.481 66.192C127.107 66.192 126.755 66.1333 126.425 66.016C126.094 65.9093 125.801 65.7387 125.545 65.504C125.299 65.2693 125.102 64.9707 124.953 64.608C124.803 64.2347 124.729 63.7973 124.729 63.296V58.416H126.169V62.896C126.169 63.248 126.217 63.552 126.313 63.808C126.409 64.0533 126.537 64.256 126.697 64.416C126.857 64.5653 127.038 64.6773 127.241 64.752C127.454 64.816 127.673 64.848 127.897 64.848C128.195 64.848 128.473 64.8 128.729 64.704C128.985 64.608 129.209 64.4587 129.401 64.256C129.593 64.0427 129.742 63.776 129.849 63.456C129.955 63.136 130.009 62.7573 130.009 62.32V58.416H131.449V66ZM133.619 58.416H135.059V59.584H135.091C135.187 59.3813 135.315 59.2 135.475 59.04C135.635 58.8693 135.811 58.7253 136.003 58.608C136.206 58.4907 136.425 58.4 136.659 58.336C136.894 58.2613 137.129 58.224 137.363 58.224C137.598 58.224 137.811 58.256 138.003 58.32L137.939 59.872C137.822 59.84 137.705 59.8133 137.587 59.792C137.47 59.7707 137.353 59.76 137.235 59.76C136.531 59.76 135.993 59.9573 135.619 60.352C135.246 60.7467 135.059 61.36 135.059 62.192V66H133.619V58.416ZM144.698 63.632C144.976 64.048 145.328 64.3573 145.754 64.56C146.192 64.752 146.64 64.848 147.098 64.848C147.354 64.848 147.616 64.8107 147.882 64.736C148.149 64.6507 148.389 64.528 148.602 64.368C148.826 64.208 149.008 64.0107 149.146 63.776C149.285 63.5413 149.354 63.2693 149.354 62.96C149.354 62.5227 149.216 62.192 148.938 61.968C148.661 61.7333 148.314 61.5413 147.898 61.392C147.493 61.232 147.045 61.0827 146.554 60.944C146.074 60.7947 145.626 60.592 145.21 60.336C144.805 60.08 144.464 59.7387 144.186 59.312C143.909 58.8747 143.77 58.288 143.77 57.552C143.77 57.2213 143.84 56.8693 143.978 56.496C144.128 56.1227 144.357 55.7813 144.666 55.472C144.976 55.1627 145.37 54.9067 145.85 54.704C146.341 54.4907 146.928 54.384 147.61 54.384C148.229 54.384 148.821 54.4693 149.386 54.64C149.952 54.8107 150.448 55.1573 150.874 55.68L149.626 56.816C149.434 56.5173 149.162 56.2773 148.81 56.096C148.458 55.9147 148.058 55.824 147.61 55.824C147.184 55.824 146.826 55.8827 146.538 56C146.261 56.1067 146.037 56.2507 145.866 56.432C145.696 56.6027 145.573 56.7893 145.498 56.992C145.434 57.1947 145.402 57.3813 145.402 57.552C145.402 58.032 145.541 58.4 145.818 58.656C146.096 58.912 146.437 59.12 146.842 59.28C147.258 59.44 147.706 59.584 148.186 59.712C148.677 59.84 149.125 60.0213 149.53 60.256C149.946 60.48 150.293 60.7893 150.57 61.184C150.848 61.568 150.986 62.1013 150.986 62.784C150.986 63.328 150.88 63.8187 150.666 64.256C150.464 64.6933 150.186 65.0613 149.834 65.36C149.482 65.6587 149.066 65.888 148.586 66.048C148.106 66.208 147.594 66.288 147.05 66.288C146.325 66.288 145.637 66.16 144.986 65.904C144.336 65.648 143.818 65.2533 143.434 64.72L144.698 63.632ZM156.949 59.664H154.885V63.104C154.885 63.3173 154.89 63.5307 154.901 63.744C154.912 63.9467 154.949 64.1333 155.013 64.304C155.088 64.464 155.194 64.5973 155.333 64.704C155.482 64.8 155.696 64.848 155.973 64.848C156.144 64.848 156.32 64.832 156.501 64.8C156.682 64.768 156.848 64.7093 156.997 64.624V65.936C156.826 66.032 156.602 66.096 156.325 66.128C156.058 66.1707 155.85 66.192 155.701 66.192C155.146 66.192 154.714 66.1173 154.405 65.968C154.106 65.808 153.882 65.6053 153.733 65.36C153.594 65.1147 153.509 64.8427 153.477 64.544C153.456 64.2347 153.445 63.9253 153.445 63.616V59.664H151.781V58.416H153.445V56.288H154.885V58.416H156.949V59.664ZM158.839 59.344C159.244 58.9707 159.713 58.6933 160.247 58.512C160.78 58.32 161.313 58.224 161.847 58.224C162.401 58.224 162.876 58.2933 163.271 58.432C163.676 58.5707 164.007 58.7573 164.263 58.992C164.519 59.2267 164.705 59.4987 164.823 59.808C164.951 60.1067 165.015 60.4213 165.015 60.752V64.624C165.015 64.8907 165.02 65.136 165.031 65.36C165.041 65.584 165.057 65.7973 165.079 66H163.799C163.767 65.616 163.751 65.232 163.751 64.848H163.719C163.399 65.3387 163.02 65.6853 162.583 65.888C162.145 66.0907 161.639 66.192 161.063 66.192C160.711 66.192 160.375 66.144 160.055 66.048C159.735 65.952 159.452 65.808 159.207 65.616C158.972 65.424 158.785 65.1893 158.647 64.912C158.508 64.624 158.439 64.2933 158.439 63.92C158.439 63.4293 158.545 63.0187 158.759 62.688C158.983 62.3573 159.281 62.0907 159.655 61.888C160.039 61.6747 160.481 61.5253 160.983 61.44C161.495 61.344 162.039 61.296 162.615 61.296H163.671V60.976C163.671 60.784 163.633 60.592 163.559 60.4C163.484 60.208 163.372 60.0373 163.223 59.888C163.073 59.728 162.887 59.6053 162.663 59.52C162.439 59.424 162.172 59.376 161.863 59.376C161.585 59.376 161.34 59.4027 161.127 59.456C160.924 59.5093 160.737 59.5787 160.567 59.664C160.396 59.7387 160.241 59.8293 160.103 59.936C159.964 60.0427 159.831 60.144 159.703 60.24L158.839 59.344ZM162.903 62.352C162.561 62.352 162.209 62.3733 161.847 62.416C161.495 62.448 161.169 62.5173 160.871 62.624C160.583 62.7307 160.343 62.88 160.151 63.072C159.969 63.264 159.879 63.5093 159.879 63.808C159.879 64.2453 160.023 64.56 160.311 64.752C160.609 64.944 161.009 65.04 161.511 65.04C161.905 65.04 162.241 64.976 162.519 64.848C162.796 64.7093 163.02 64.5333 163.191 64.32C163.361 64.1067 163.484 63.872 163.559 63.616C163.633 63.3493 163.671 63.088 163.671 62.832V62.352H162.903ZM171.168 59.664H169.104V63.104C169.104 63.3173 169.109 63.5307 169.12 63.744C169.13 63.9467 169.168 64.1333 169.232 64.304C169.306 64.464 169.413 64.5973 169.552 64.704C169.701 64.8 169.914 64.848 170.192 64.848C170.362 64.848 170.538 64.832 170.72 64.8C170.901 64.768 171.066 64.7093 171.216 64.624V65.936C171.045 66.032 170.821 66.096 170.544 66.128C170.277 66.1707 170.069 66.192 169.92 66.192C169.365 66.192 168.933 66.1173 168.624 65.968C168.325 65.808 168.101 65.6053 167.952 65.36C167.813 65.1147 167.728 64.8427 167.696 64.544C167.674 64.2347 167.664 63.9253 167.664 63.616V59.664H166V58.416H167.664V56.288H169.104V58.416H171.168V59.664ZM174.114 62.736C174.114 63.0667 174.183 63.3707 174.322 63.648C174.471 63.9147 174.663 64.144 174.898 64.336C175.132 64.528 175.404 64.6773 175.714 64.784C176.023 64.8907 176.343 64.944 176.674 64.944C177.122 64.944 177.511 64.8427 177.842 64.64C178.172 64.4267 178.476 64.1493 178.754 63.808L179.842 64.64C179.042 65.6747 177.922 66.192 176.482 66.192C175.884 66.192 175.34 66.0907 174.85 65.888C174.37 65.6853 173.959 65.408 173.618 65.056C173.287 64.6933 173.031 64.272 172.85 63.792C172.668 63.3013 172.578 62.7733 172.578 62.208C172.578 61.6427 172.674 61.12 172.866 60.64C173.068 60.1493 173.34 59.728 173.682 59.376C174.034 59.0133 174.45 58.7307 174.93 58.528C175.41 58.3253 175.932 58.224 176.498 58.224C177.17 58.224 177.735 58.3413 178.194 58.576C178.663 58.8107 179.047 59.12 179.346 59.504C179.644 59.8773 179.858 60.304 179.986 60.784C180.124 61.2533 180.194 61.7333 180.194 62.224V62.736H174.114ZM178.658 61.584C178.647 61.264 178.594 60.9707 178.498 60.704C178.412 60.4373 178.279 60.208 178.098 60.016C177.916 59.8133 177.687 59.6587 177.41 59.552C177.143 59.4347 176.828 59.376 176.466 59.376C176.114 59.376 175.788 59.4453 175.49 59.584C175.202 59.712 174.956 59.8827 174.754 60.096C174.551 60.3093 174.391 60.5493 174.274 60.816C174.167 61.072 174.114 61.328 174.114 61.584H178.658ZM181.916 58.416H183.26V59.6H183.292C183.324 59.4933 183.404 59.36 183.532 59.2C183.671 59.04 183.841 58.8907 184.044 58.752C184.257 58.6027 184.503 58.48 184.78 58.384C185.068 58.2773 185.383 58.224 185.724 58.224C186.289 58.224 186.764 58.3413 187.148 58.576C187.532 58.8107 187.847 59.1627 188.092 59.632C188.337 59.1627 188.684 58.8107 189.132 58.576C189.58 58.3413 190.033 58.224 190.492 58.224C191.079 58.224 191.559 58.32 191.932 58.512C192.305 58.704 192.599 58.96 192.812 59.28C193.025 59.5893 193.169 59.9467 193.244 60.352C193.329 60.7467 193.372 61.1573 193.372 61.584V66H191.932V61.776C191.932 61.488 191.911 61.2107 191.868 60.944C191.836 60.6773 191.761 60.4427 191.644 60.24C191.527 60.0373 191.361 59.8773 191.148 59.76C190.935 59.632 190.652 59.568 190.3 59.568C189.607 59.568 189.111 59.7813 188.812 60.208C188.513 60.6347 188.364 61.184 188.364 61.856V66H186.924V62.032C186.924 61.6693 186.903 61.3387 186.86 61.04C186.828 60.7413 186.753 60.4853 186.636 60.272C186.529 60.048 186.369 59.8773 186.156 59.76C185.953 59.632 185.676 59.568 185.324 59.568C185.068 59.568 184.817 59.6213 184.572 59.728C184.337 59.824 184.129 59.9733 183.948 60.176C183.767 60.3787 183.623 60.64 183.516 60.96C183.409 61.2693 183.356 61.6373 183.356 62.064V66H181.916V58.416ZM196.629 62.736C196.629 63.0667 196.698 63.3707 196.837 63.648C196.986 63.9147 197.178 64.144 197.413 64.336C197.648 64.528 197.92 64.6773 198.229 64.784C198.538 64.8907 198.858 64.944 199.189 64.944C199.637 64.944 200.026 64.8427 200.357 64.64C200.688 64.4267 200.992 64.1493 201.269 63.808L202.357 64.64C201.557 65.6747 200.437 66.192 198.997 66.192C198.4 66.192 197.856 66.0907 197.365 65.888C196.885 65.6853 196.474 65.408 196.133 65.056C195.802 64.6933 195.546 64.272 195.365 63.792C195.184 63.3013 195.093 62.7733 195.093 62.208C195.093 61.6427 195.189 61.12 195.381 60.64C195.584 60.1493 195.856 59.728 196.197 59.376C196.549 59.0133 196.965 58.7307 197.445 58.528C197.925 58.3253 198.448 58.224 199.013 58.224C199.685 58.224 200.25 58.3413 200.709 58.576C201.178 58.8107 201.562 59.12 201.861 59.504C202.16 59.8773 202.373 60.304 202.501 60.784C202.64 61.2533 202.709 61.7333 202.709 62.224V62.736H196.629ZM201.173 61.584C201.162 61.264 201.109 60.9707 201.013 60.704C200.928 60.4373 200.794 60.208 200.613 60.016C200.432 59.8133 200.202 59.6587 199.925 59.552C199.658 59.4347 199.344 59.376 198.981 59.376C198.629 59.376 198.304 59.4453 198.005 59.584C197.717 59.712 197.472 59.8827 197.269 60.096C197.066 60.3093 196.906 60.5493 196.789 60.816C196.682 61.072 196.629 61.328 196.629 61.584H201.173ZM204.432 58.416H205.872V59.584H205.904C206.085 59.1787 206.4 58.8533 206.848 58.608C207.296 58.352 207.813 58.224 208.4 58.224C208.762 58.224 209.109 58.2827 209.44 58.4C209.781 58.5067 210.074 58.6773 210.32 58.912C210.576 59.1467 210.778 59.4507 210.928 59.824C211.077 60.1867 211.152 60.6187 211.152 61.12V66H209.712V61.52C209.712 61.168 209.664 60.8693 209.568 60.624C209.472 60.368 209.344 60.1653 209.184 60.016C209.024 59.856 208.837 59.744 208.624 59.68C208.421 59.6053 208.208 59.568 207.984 59.568C207.685 59.568 207.408 59.616 207.152 59.712C206.896 59.808 206.672 59.9627 206.48 60.176C206.288 60.3787 206.138 60.64 206.032 60.96C205.925 61.28 205.872 61.6587 205.872 62.096V66H204.432V58.416ZM217.386 59.664H215.322V63.104C215.322 63.3173 215.328 63.5307 215.338 63.744C215.349 63.9467 215.386 64.1333 215.45 64.304C215.525 64.464 215.632 64.5973 215.77 64.704C215.92 64.8 216.133 64.848 216.41 64.848C216.581 64.848 216.757 64.832 216.938 64.8C217.12 64.768 217.285 64.7093 217.434 64.624V65.936C217.264 66.032 217.04 66.096 216.762 66.128C216.496 66.1707 216.288 66.192 216.138 66.192C215.584 66.192 215.152 66.1173 214.842 65.968C214.544 65.808 214.32 65.6053 214.17 65.36C214.032 65.1147 213.946 64.8427 213.914 64.544C213.893 64.2347 213.882 63.9253 213.882 63.616V59.664H212.218V58.416H213.882V56.288H215.322V58.416H217.386V59.664ZM64.256 84.208C64.256 84.592 64.3147 84.9493 64.432 85.28C64.5493 85.6 64.7147 85.8773 64.928 86.112C65.1413 86.336 65.4027 86.5173 65.712 86.656C66.0213 86.784 66.368 86.848 66.752 86.848C67.136 86.848 67.4827 86.784 67.792 86.656C68.1013 86.5173 68.3627 86.336 68.576 86.112C68.7893 85.8773 68.9547 85.6 69.072 85.28C69.1893 84.9493 69.248 84.592 69.248 84.208C69.248 83.824 69.1893 83.472 69.072 83.152C68.9547 82.8213 68.7893 82.544 68.576 82.32C68.3627 82.0853 68.1013 81.904 67.792 81.776C67.4827 81.6373 67.136 81.568 66.752 81.568C66.368 81.568 66.0213 81.6373 65.712 81.776C65.4027 81.904 65.1413 82.0853 64.928 82.32C64.7147 82.544 64.5493 82.8213 64.432 83.152C64.3147 83.472 64.256 83.824 64.256 84.208ZM62.72 84.208C62.72 83.6533 62.8213 83.136 63.024 82.656C63.2373 82.176 63.5253 81.7547 63.888 81.392C64.2507 81.0293 64.6773 80.7467 65.168 80.544C65.6587 80.3307 66.1867 80.224 66.752 80.224C67.3173 80.224 67.8453 80.3307 68.336 80.544C68.8267 80.7467 69.2533 81.0293 69.616 81.392C69.9787 81.7547 70.2613 82.176 70.464 82.656C70.6773 83.136 70.784 83.6533 70.784 84.208C70.784 84.7627 70.6773 85.2853 70.464 85.776C70.2613 86.256 69.9787 86.6773 69.616 87.04C69.2533 87.392 68.8267 87.6747 68.336 87.888C67.8453 88.0907 67.3173 88.192 66.752 88.192C66.1867 88.192 65.6587 88.0907 65.168 87.888C64.6773 87.6747 64.2507 87.392 63.888 87.04C63.5253 86.6773 63.2373 86.256 63.024 85.776C62.8213 85.2853 62.72 84.7627 62.72 84.208ZM73.148 81.664H71.516V80.416H73.148V78.72C73.148 77.7067 73.34 76.9547 73.724 76.464C74.1187 75.9627 74.7907 75.712 75.74 75.712C75.9 75.712 76.0653 75.7173 76.236 75.728C76.4173 75.7387 76.6093 75.7707 76.812 75.824L76.652 77.104C76.5133 77.0507 76.38 77.0133 76.252 76.992C76.124 76.9707 75.9853 76.96 75.836 76.96C75.5693 76.96 75.356 77.0027 75.196 77.088C75.036 77.1627 74.908 77.2747 74.812 77.424C74.7267 77.5733 74.668 77.7547 74.636 77.968C74.6147 78.1707 74.604 78.4053 74.604 78.672V80.416H76.316V81.664H74.588V88H73.148V81.664ZM82.7373 76.672H86.7213C87.4466 76.672 88.0439 76.7733 88.5133 76.976C88.9826 77.168 89.3506 77.4187 89.6173 77.728C89.8946 78.0267 90.0866 78.368 90.1933 78.752C90.2999 79.1253 90.3533 79.488 90.3533 79.84C90.3533 80.192 90.2999 80.56 90.1933 80.944C90.0866 81.3173 89.8946 81.6587 89.6173 81.968C89.3506 82.2667 88.9826 82.5173 88.5133 82.72C88.0439 82.912 87.4466 83.008 86.7213 83.008H84.2733V88H82.7373V76.672ZM84.2733 81.664H86.2893C86.5879 81.664 86.8813 81.6427 87.1693 81.6C87.4679 81.5467 87.7293 81.456 87.9533 81.328C88.1879 81.2 88.3746 81.0187 88.5133 80.784C88.6519 80.5387 88.7213 80.224 88.7213 79.84C88.7213 79.456 88.6519 79.1467 88.5133 78.912C88.3746 78.6667 88.1879 78.48 87.9533 78.352C87.7293 78.224 87.4679 78.1387 87.1693 78.096C86.8813 78.0427 86.5879 78.016 86.2893 78.016H84.2733V81.664ZM98.5736 88H97.1336V86.832H97.1016C96.9203 87.2373 96.6056 87.568 96.1576 87.824C95.7096 88.0693 95.1923 88.192 94.6056 88.192C94.2323 88.192 93.8803 88.1333 93.5496 88.016C93.219 87.9093 92.9256 87.7387 92.6696 87.504C92.4243 87.2693 92.227 86.9707 92.0776 86.608C91.9283 86.2347 91.8536 85.7973 91.8536 85.296V80.416H93.2936V84.896C93.2936 85.248 93.3416 85.552 93.4376 85.808C93.5336 86.0533 93.6616 86.256 93.8216 86.416C93.9816 86.5653 94.163 86.6773 94.3656 86.752C94.579 86.816 94.7976 86.848 95.0216 86.848C95.3203 86.848 95.5976 86.8 95.8536 86.704C96.1096 86.608 96.3336 86.4587 96.5256 86.256C96.7176 86.0427 96.867 85.776 96.9736 85.456C97.0803 85.136 97.1336 84.7573 97.1336 84.32V80.416H98.5736V88ZM100.744 80.416H102.184V81.584H102.216C102.312 81.3813 102.44 81.2 102.6 81.04C102.76 80.8693 102.936 80.7253 103.128 80.608C103.331 80.4907 103.55 80.4 103.784 80.336C104.019 80.2613 104.254 80.224 104.488 80.224C104.723 80.224 104.936 80.256 105.128 80.32L105.064 81.872C104.947 81.84 104.83 81.8133 104.712 81.792C104.595 81.7707 104.478 81.76 104.36 81.76C103.656 81.76 103.118 81.9573 102.744 82.352C102.371 82.7467 102.184 83.36 102.184 84.192V88H100.744V80.416ZM106.666 80.416H108.106V81.504H108.138C108.415 81.0987 108.794 80.784 109.274 80.56C109.765 80.336 110.266 80.224 110.778 80.224C111.365 80.224 111.893 80.3253 112.362 80.528C112.842 80.7307 113.247 81.0133 113.578 81.376C113.919 81.7387 114.181 82.1653 114.362 82.656C114.543 83.136 114.634 83.6533 114.634 84.208C114.634 84.7733 114.543 85.3013 114.362 85.792C114.181 86.272 113.919 86.6933 113.578 87.056C113.247 87.408 112.842 87.6853 112.362 87.888C111.893 88.0907 111.365 88.192 110.778 88.192C110.234 88.192 109.722 88.08 109.242 87.856C108.762 87.6213 108.394 87.3067 108.138 86.912H108.106V92.512H106.666V80.416ZM110.602 81.568C110.218 81.568 109.871 81.6373 109.562 81.776C109.253 81.904 108.991 82.0853 108.778 82.32C108.565 82.544 108.399 82.8213 108.282 83.152C108.165 83.472 108.106 83.824 108.106 84.208C108.106 84.592 108.165 84.9493 108.282 85.28C108.399 85.6 108.565 85.8773 108.778 86.112C108.991 86.336 109.253 86.5173 109.562 86.656C109.871 86.784 110.218 86.848 110.602 86.848C110.986 86.848 111.333 86.784 111.642 86.656C111.951 86.5173 112.213 86.336 112.426 86.112C112.639 85.8773 112.805 85.6 112.922 85.28C113.039 84.9493 113.098 84.592 113.098 84.208C113.098 83.824 113.039 83.472 112.922 83.152C112.805 82.8213 112.639 82.544 112.426 82.32C112.213 82.0853 111.951 81.904 111.642 81.776C111.333 81.6373 110.986 81.568 110.602 81.568ZM117.615 84.208C117.615 84.592 117.674 84.9493 117.791 85.28C117.909 85.6 118.074 85.8773 118.287 86.112C118.501 86.336 118.762 86.5173 119.071 86.656C119.381 86.784 119.727 86.848 120.111 86.848C120.495 86.848 120.842 86.784 121.151 86.656C121.461 86.5173 121.722 86.336 121.935 86.112C122.149 85.8773 122.314 85.6 122.431 85.28C122.549 84.9493 122.607 84.592 122.607 84.208C122.607 83.824 122.549 83.472 122.431 83.152C122.314 82.8213 122.149 82.544 121.935 82.32C121.722 82.0853 121.461 81.904 121.151 81.776C120.842 81.6373 120.495 81.568 120.111 81.568C119.727 81.568 119.381 81.6373 119.071 81.776C118.762 81.904 118.501 82.0853 118.287 82.32C118.074 82.544 117.909 82.8213 117.791 83.152C117.674 83.472 117.615 83.824 117.615 84.208ZM116.079 84.208C116.079 83.6533 116.181 83.136 116.383 82.656C116.597 82.176 116.885 81.7547 117.247 81.392C117.61 81.0293 118.037 80.7467 118.527 80.544C119.018 80.3307 119.546 80.224 120.111 80.224C120.677 80.224 121.205 80.3307 121.695 80.544C122.186 80.7467 122.613 81.0293 122.975 81.392C123.338 81.7547 123.621 82.176 123.823 82.656C124.037 83.136 124.143 83.6533 124.143 84.208C124.143 84.7627 124.037 85.2853 123.823 85.776C123.621 86.256 123.338 86.6773 122.975 87.04C122.613 87.392 122.186 87.6747 121.695 87.888C121.205 88.0907 120.677 88.192 120.111 88.192C119.546 88.192 119.018 88.0907 118.527 87.888C118.037 87.6747 117.61 87.392 117.247 87.04C116.885 86.6773 116.597 86.256 116.383 85.776C116.181 85.2853 116.079 84.7627 116.079 84.208ZM129.979 82.32C129.809 82.1067 129.595 81.9307 129.339 81.792C129.094 81.6427 128.79 81.568 128.427 81.568C128.086 81.568 127.787 81.6427 127.531 81.792C127.286 81.9307 127.163 82.1387 127.163 82.416C127.163 82.64 127.233 82.8213 127.371 82.96C127.521 83.0987 127.691 83.2107 127.883 83.296C128.086 83.3813 128.299 83.4453 128.523 83.488C128.747 83.5307 128.939 83.568 129.099 83.6C129.409 83.6747 129.697 83.7653 129.963 83.872C130.241 83.9787 130.475 84.1173 130.667 84.288C130.87 84.4587 131.025 84.6667 131.131 84.912C131.249 85.1573 131.307 85.456 131.307 85.808C131.307 86.2347 131.217 86.6027 131.035 86.912C130.854 87.2107 130.619 87.456 130.331 87.648C130.043 87.84 129.713 87.9787 129.339 88.064C128.977 88.1493 128.609 88.192 128.235 88.192C127.606 88.192 127.051 88.096 126.571 87.904C126.102 87.712 125.681 87.36 125.307 86.848L126.395 85.952C126.63 86.1867 126.891 86.3947 127.179 86.576C127.467 86.7573 127.819 86.848 128.235 86.848C128.417 86.848 128.598 86.832 128.779 86.8C128.971 86.7573 129.137 86.6987 129.275 86.624C129.425 86.5387 129.542 86.4373 129.627 86.32C129.723 86.192 129.771 86.048 129.771 85.888C129.771 85.6747 129.702 85.4987 129.563 85.36C129.435 85.2213 129.275 85.1147 129.083 85.04C128.902 84.9547 128.705 84.8907 128.491 84.848C128.289 84.7947 128.107 84.752 127.947 84.72C127.638 84.6453 127.345 84.56 127.067 84.464C126.79 84.368 126.545 84.24 126.331 84.08C126.118 83.92 125.947 83.7173 125.819 83.472C125.691 83.2267 125.627 82.9227 125.627 82.56C125.627 82.1653 125.707 81.824 125.867 81.536C126.038 81.2373 126.257 80.992 126.523 80.8C126.801 80.608 127.11 80.464 127.451 80.368C127.803 80.272 128.155 80.224 128.507 80.224C129.019 80.224 129.51 80.32 129.979 80.512C130.449 80.704 130.822 81.024 131.099 81.472L129.979 82.32ZM134.145 84.736C134.145 85.0667 134.214 85.3707 134.353 85.648C134.502 85.9147 134.694 86.144 134.929 86.336C135.163 86.528 135.435 86.6773 135.745 86.784C136.054 86.8907 136.374 86.944 136.705 86.944C137.153 86.944 137.542 86.8427 137.873 86.64C138.203 86.4267 138.507 86.1493 138.785 85.808L139.873 86.64C139.073 87.6747 137.953 88.192 136.513 88.192C135.915 88.192 135.371 88.0907 134.881 87.888C134.401 87.6853 133.99 87.408 133.649 87.056C133.318 86.6933 133.062 86.272 132.881 85.792C132.699 85.3013 132.609 84.7733 132.609 84.208C132.609 83.6427 132.705 83.12 132.897 82.64C133.099 82.1493 133.371 81.728 133.713 81.376C134.065 81.0133 134.481 80.7307 134.961 80.528C135.441 80.3253 135.963 80.224 136.529 80.224C137.201 80.224 137.766 80.3413 138.225 80.576C138.694 80.8107 139.078 81.12 139.377 81.504C139.675 81.8773 139.889 82.304 140.017 82.784C140.155 83.2533 140.225 83.7333 140.225 84.224V84.736H134.145ZM138.689 83.584C138.678 83.264 138.625 82.9707 138.529 82.704C138.443 82.4373 138.31 82.208 138.129 82.016C137.947 81.8133 137.718 81.6587 137.441 81.552C137.174 81.4347 136.859 81.376 136.497 81.376C136.145 81.376 135.819 81.4453 135.521 81.584C135.233 81.712 134.987 81.8827 134.785 82.096C134.582 82.3093 134.422 82.5493 134.305 82.816C134.198 83.072 134.145 83.328 134.145 83.584H138.689Z" fill="black"/>
<rect x="62" y="97" width="59" height="15.1714" rx="7.58571" fill="#CCCFFF"/>
<path d="M77.9378 103.343C77.803 103.168 77.6322 103.033 77.4254 102.939C77.2186 102.844 77.0051 102.797 76.7848 102.797C76.5151 102.797 76.2701 102.849 76.0498 102.952C75.8341 103.051 75.6475 103.188 75.4902 103.364C75.3373 103.539 75.2182 103.746 75.1328 103.984C75.0474 104.218 75.0047 104.469 75.0047 104.739C75.0047 104.991 75.0451 105.229 75.1261 105.454C75.207 105.679 75.3238 105.876 75.4767 106.047C75.6295 106.218 75.8161 106.353 76.0363 106.452C76.2566 106.551 76.5061 106.6 76.7848 106.6C77.059 106.6 77.2995 106.544 77.5063 106.432C77.7131 106.319 77.8884 106.162 78.0322 105.96L78.5784 106.371C78.5424 106.42 78.4795 106.492 78.3896 106.587C78.2997 106.677 78.1806 106.769 78.0322 106.863C77.8839 106.953 77.7041 107.032 77.4928 107.099C77.286 107.171 77.0455 107.207 76.7713 107.207C76.3937 107.207 76.0521 107.135 75.7464 106.991C75.4452 106.847 75.1867 106.659 74.971 106.425C74.7597 106.191 74.5979 105.928 74.4855 105.636C74.3731 105.339 74.3169 105.04 74.3169 104.739C74.3169 104.371 74.3776 104.031 74.499 103.721C74.6203 103.406 74.7889 103.137 75.0047 102.912C75.225 102.683 75.4879 102.505 75.7936 102.379C76.0993 102.253 76.4364 102.19 76.805 102.19C77.1197 102.19 77.4276 102.251 77.7288 102.372C78.0345 102.494 78.284 102.68 78.4773 102.932L77.9378 103.343ZM79.6984 105.488C79.6984 105.649 79.7231 105.8 79.7726 105.939C79.822 106.074 79.8917 106.191 79.9816 106.29C80.0715 106.384 80.1816 106.461 80.312 106.519C80.4424 106.573 80.5885 106.6 80.7503 106.6C80.9121 106.6 81.0582 106.573 81.1886 106.519C81.3189 106.461 81.4291 106.384 81.519 106.29C81.6089 106.191 81.6786 106.074 81.728 105.939C81.7774 105.8 81.8022 105.649 81.8022 105.488C81.8022 105.326 81.7774 105.177 81.728 105.043C81.6786 104.903 81.6089 104.786 81.519 104.692C81.4291 104.593 81.3189 104.517 81.1886 104.463C81.0582 104.404 80.9121 104.375 80.7503 104.375C80.5885 104.375 80.4424 104.404 80.312 104.463C80.1816 104.517 80.0715 104.593 79.9816 104.692C79.8917 104.786 79.822 104.903 79.7726 105.043C79.7231 105.177 79.6984 105.326 79.6984 105.488ZM79.0511 105.488C79.0511 105.254 79.0938 105.036 79.1792 104.834C79.2691 104.631 79.3905 104.454 79.5433 104.301C79.6962 104.148 79.876 104.029 80.0827 103.944C80.2895 103.854 80.512 103.809 80.7503 103.809C80.9885 103.809 81.211 103.854 81.4178 103.944C81.6246 104.029 81.8044 104.148 81.9573 104.301C82.1101 104.454 82.2292 104.631 82.3146 104.834C82.4045 105.036 82.4495 105.254 82.4495 105.488C82.4495 105.721 82.4045 105.942 82.3146 106.148C82.2292 106.351 82.1101 106.528 81.9573 106.681C81.8044 106.829 81.6246 106.949 81.4178 107.038C81.211 107.124 80.9885 107.167 80.7503 107.167C80.512 107.167 80.2895 107.124 80.0827 107.038C79.876 106.949 79.6962 106.829 79.5433 106.681C79.3905 106.528 79.2691 106.351 79.1792 106.148C79.0938 105.942 79.0511 105.721 79.0511 105.488ZM83.2097 103.89H83.7761V104.389H83.7896C83.8031 104.344 83.8368 104.287 83.8908 104.22C83.9492 104.153 84.0211 104.09 84.1065 104.031C84.1964 103.968 84.2998 103.917 84.4167 103.876C84.5381 103.831 84.6707 103.809 84.8145 103.809C85.0528 103.809 85.2528 103.858 85.4147 103.957C85.5765 104.056 85.7091 104.204 85.8125 104.402C85.9159 104.204 86.062 104.056 86.2508 103.957C86.4396 103.858 86.6306 103.809 86.8239 103.809C87.0712 103.809 87.2734 103.849 87.4308 103.93C87.5881 104.011 87.7117 104.119 87.8016 104.254C87.8915 104.384 87.9522 104.535 87.9837 104.705C88.0196 104.872 88.0376 105.045 88.0376 105.225V107.086H87.4308V105.306C87.4308 105.184 87.4218 105.067 87.4038 104.955C87.3903 104.843 87.3588 104.744 87.3094 104.658C87.26 104.573 87.1903 104.505 87.1004 104.456C87.0105 104.402 86.8913 104.375 86.743 104.375C86.4508 104.375 86.2418 104.465 86.1159 104.645C85.99 104.825 85.9271 105.056 85.9271 105.339V107.086H85.3203V105.413C85.3203 105.261 85.3113 105.121 85.2933 104.995C85.2798 104.87 85.2483 104.762 85.1989 104.672C85.1539 104.577 85.0865 104.505 84.9966 104.456C84.9112 104.402 84.7943 104.375 84.646 104.375C84.5381 104.375 84.4324 104.398 84.3291 104.442C84.2302 104.483 84.1425 104.546 84.0661 104.631C83.9897 104.717 83.929 104.827 83.884 104.962C83.8391 105.092 83.8166 105.247 83.8166 105.427V107.086H83.2097V103.89ZM88.9517 103.89H89.5586V104.348H89.572C89.6889 104.177 89.8485 104.045 90.0508 103.95C90.2576 103.856 90.4688 103.809 90.6846 103.809C90.9319 103.809 91.1544 103.851 91.3522 103.937C91.5544 104.022 91.7253 104.141 91.8646 104.294C92.0085 104.447 92.1186 104.627 92.195 104.834C92.2714 105.036 92.3097 105.254 92.3097 105.488C92.3097 105.726 92.2714 105.948 92.195 106.155C92.1186 106.357 92.0085 106.535 91.8646 106.688C91.7253 106.836 91.5544 106.953 91.3522 107.038C91.1544 107.124 90.9319 107.167 90.6846 107.167C90.4554 107.167 90.2396 107.119 90.0373 107.025C89.835 106.926 89.6799 106.794 89.572 106.627H89.5586V108.987H88.9517V103.89ZM90.6104 104.375C90.4486 104.375 90.3025 104.404 90.1722 104.463C90.0418 104.517 89.9317 104.593 89.8418 104.692C89.7519 104.786 89.6822 104.903 89.6327 105.043C89.5833 105.177 89.5586 105.326 89.5586 105.488C89.5586 105.649 89.5833 105.8 89.6327 105.939C89.6822 106.074 89.7519 106.191 89.8418 106.29C89.9317 106.384 90.0418 106.461 90.1722 106.519C90.3025 106.573 90.4486 106.6 90.6104 106.6C90.7723 106.6 90.9184 106.573 91.0487 106.519C91.1791 106.461 91.2892 106.384 91.3791 106.29C91.469 106.191 91.5387 106.074 91.5882 105.939C91.6376 105.8 91.6623 105.649 91.6623 105.488C91.6623 105.326 91.6376 105.177 91.5882 105.043C91.5387 104.903 91.469 104.786 91.3791 104.692C91.2892 104.593 91.1791 104.517 91.0487 104.463C90.9184 104.404 90.7723 104.375 90.6104 104.375ZM93.121 101.988H93.7279V107.086H93.121V101.988ZM95.1522 105.71C95.1522 105.85 95.1814 105.978 95.2398 106.094C95.3028 106.207 95.3837 106.304 95.4826 106.384C95.5815 106.465 95.6961 106.528 95.8265 106.573C95.9568 106.618 96.0917 106.641 96.231 106.641C96.4198 106.641 96.5839 106.598 96.7233 106.513C96.8626 106.423 96.9907 106.306 97.1076 106.162L97.5661 106.513C97.229 106.949 96.757 107.167 96.1501 107.167C95.8984 107.167 95.6691 107.124 95.4624 107.038C95.2601 106.953 95.087 106.836 94.9432 106.688C94.8038 106.535 94.6959 106.357 94.6195 106.155C94.5431 105.948 94.5049 105.726 94.5049 105.488C94.5049 105.249 94.5453 105.029 94.6262 104.827C94.7117 104.62 94.8263 104.442 94.9701 104.294C95.1185 104.141 95.2938 104.022 95.4961 103.937C95.6984 103.851 95.9186 103.809 96.1569 103.809C96.4401 103.809 96.6783 103.858 96.8716 103.957C97.0694 104.056 97.2312 104.186 97.3571 104.348C97.483 104.505 97.5729 104.685 97.6268 104.888C97.6853 105.085 97.7145 105.288 97.7145 105.494V105.71H95.1522ZM97.0672 105.225C97.0627 105.09 97.0402 104.966 96.9997 104.854C96.9638 104.741 96.9076 104.645 96.8312 104.564C96.7547 104.478 96.6581 104.413 96.5412 104.368C96.4288 104.319 96.2962 104.294 96.1434 104.294C95.995 104.294 95.8579 104.323 95.7321 104.382C95.6107 104.436 95.5073 104.508 95.4219 104.598C95.3365 104.687 95.2691 104.789 95.2196 104.901C95.1747 105.009 95.1522 105.117 95.1522 105.225H97.0672ZM100.153 104.416H99.2833V105.865C99.2833 105.955 99.2855 106.045 99.29 106.135C99.2945 106.22 99.3103 106.299 99.3372 106.371C99.3687 106.438 99.4137 106.495 99.4721 106.54C99.535 106.58 99.6249 106.6 99.7418 106.6C99.8137 106.6 99.8879 106.593 99.9643 106.58C100.041 106.566 100.11 106.542 100.173 106.506V107.059C100.101 107.099 100.007 107.126 99.8901 107.14C99.7778 107.158 99.6901 107.167 99.6272 107.167C99.3934 107.167 99.2114 107.135 99.081 107.072C98.9551 107.005 98.8607 106.919 98.7978 106.816C98.7394 106.713 98.7034 106.598 98.6899 106.472C98.6809 106.342 98.6764 106.211 98.6764 106.081V104.416H97.9752V103.89H98.6764V102.993H99.2833V103.89H100.153V104.416ZM101.395 105.71C101.395 105.85 101.424 105.978 101.482 106.094C101.545 106.207 101.626 106.304 101.725 106.384C101.824 106.465 101.939 106.528 102.069 106.573C102.199 106.618 102.334 106.641 102.473 106.641C102.662 106.641 102.826 106.598 102.966 106.513C103.105 106.423 103.233 106.306 103.35 106.162L103.809 106.513C103.471 106.949 102.999 107.167 102.393 107.167C102.141 107.167 101.912 107.124 101.705 107.038C101.502 106.953 101.329 106.836 101.186 106.688C101.046 106.535 100.938 106.357 100.862 106.155C100.785 105.948 100.747 105.726 100.747 105.488C100.747 105.249 100.788 105.029 100.869 104.827C100.954 104.62 101.069 104.442 101.213 104.294C101.361 104.141 101.536 104.022 101.738 103.937C101.941 103.851 102.161 103.809 102.399 103.809C102.682 103.809 102.921 103.858 103.114 103.957C103.312 104.056 103.474 104.186 103.6 104.348C103.725 104.505 103.815 104.685 103.869 104.888C103.928 105.085 103.957 105.288 103.957 105.494V105.71H101.395ZM103.31 105.225C103.305 105.09 103.283 104.966 103.242 104.854C103.206 104.741 103.15 104.645 103.074 104.564C102.997 104.478 102.9 104.413 102.784 104.368C102.671 104.319 102.539 104.294 102.386 104.294C102.237 104.294 102.1 104.323 101.974 104.382C101.853 104.436 101.75 104.508 101.664 104.598C101.579 104.687 101.511 104.789 101.462 104.901C101.417 105.009 101.395 105.117 101.395 105.225H103.31ZM107.886 107.086H107.279V106.627H107.265C107.148 106.798 106.987 106.931 106.78 107.025C106.578 107.119 106.369 107.167 106.153 107.167C105.906 107.167 105.681 107.124 105.479 107.038C105.281 106.953 105.11 106.834 104.966 106.681C104.827 106.528 104.719 106.351 104.642 106.148C104.566 105.946 104.528 105.726 104.528 105.488C104.528 105.249 104.566 105.029 104.642 104.827C104.719 104.62 104.827 104.442 104.966 104.294C105.11 104.141 105.281 104.022 105.479 103.937C105.681 103.851 105.906 103.809 106.153 103.809C106.382 103.809 106.598 103.858 106.8 103.957C107.002 104.051 107.157 104.182 107.265 104.348H107.279V101.988H107.886V107.086ZM106.227 106.6C106.389 106.6 106.535 106.573 106.665 106.519C106.796 106.461 106.906 106.384 106.996 106.29C107.086 106.191 107.155 106.074 107.205 105.939C107.254 105.8 107.279 105.649 107.279 105.488C107.279 105.326 107.254 105.177 107.205 105.043C107.155 104.903 107.086 104.786 106.996 104.692C106.906 104.593 106.796 104.517 106.665 104.463C106.535 104.404 106.389 104.375 106.227 104.375C106.065 104.375 105.919 104.404 105.789 104.463C105.658 104.517 105.548 104.593 105.458 104.692C105.368 104.786 105.299 104.903 105.249 105.043C105.2 105.177 105.175 105.326 105.175 105.488C105.175 105.649 105.2 105.8 105.249 105.939C105.299 106.074 105.368 106.191 105.458 106.29C105.548 106.384 105.658 106.461 105.789 106.519C105.919 106.573 106.065 106.6 106.227 106.6Z" fill="#0000FE"/>
</svg>
