<svg width="203" height="116" viewBox="0 0 203 116" fill="none" xmlns="http://www.w3.org/2000/svg">
<rect x="0.9" y="0.9" width="50.2" height="50.2" rx="25.1" stroke="#0000FE" stroke-width="1.8" stroke-dasharray="3.6 3.6"/>
<mask id="path-2-outside-1_3954_7320" maskUnits="userSpaceOnUse" x="17" y="11.5" width="18" height="26" fill="black">
<rect fill="white" x="17" y="11.5" width="18" height="26"/>
<path d="M17.9309 32.3436L26.9309 23.6382C27.1927 23.3764 27.4655 23.1036 27.7491 22.82C28.0327 22.5145 28.2836 22.1982 28.5018 21.8709C28.7418 21.5436 28.9382 21.2055 29.0909 20.8564C29.2436 20.4855 29.32 20.1036 29.32 19.7109C29.32 19.2309 29.2218 18.8055 29.0255 18.4345C28.8509 18.0636 28.6109 17.7473 28.3055 17.4855C28 17.2236 27.64 17.0273 27.2255 16.8964C26.8327 16.7436 26.4073 16.6673 25.9491 16.6673C24.9673 16.6673 24.16 16.9509 23.5273 17.5182C22.8945 18.0855 22.5127 18.8491 22.3818 19.8091L18.2582 19.4818C18.3455 18.4127 18.5964 17.4745 19.0109 16.6673C19.4473 15.8382 20.0036 15.1509 20.68 14.6055C21.3564 14.06 22.1418 13.6455 23.0364 13.3618C23.9309 13.0782 24.9018 12.9364 25.9491 12.9364C26.9964 12.9364 27.9673 13.0782 28.8618 13.3618C29.7782 13.6236 30.5745 14.0273 31.2509 14.5727C31.9273 15.0964 32.4618 15.7727 32.8545 16.6018C33.2473 17.4309 33.4436 18.4018 33.4436 19.5145C33.4436 20.9764 33.1055 22.2418 32.4291 23.3109C31.7745 24.3582 30.9236 25.3618 29.8764 26.3218L22.7091 32.9655H33.4436V36.5H17.9309V32.3436Z"/>
</mask>
<path d="M17.9309 32.3436L26.9309 23.6382C27.1927 23.3764 27.4655 23.1036 27.7491 22.82C28.0327 22.5145 28.2836 22.1982 28.5018 21.8709C28.7418 21.5436 28.9382 21.2055 29.0909 20.8564C29.2436 20.4855 29.32 20.1036 29.32 19.7109C29.32 19.2309 29.2218 18.8055 29.0255 18.4345C28.8509 18.0636 28.6109 17.7473 28.3055 17.4855C28 17.2236 27.64 17.0273 27.2255 16.8964C26.8327 16.7436 26.4073 16.6673 25.9491 16.6673C24.9673 16.6673 24.16 16.9509 23.5273 17.5182C22.8945 18.0855 22.5127 18.8491 22.3818 19.8091L18.2582 19.4818C18.3455 18.4127 18.5964 17.4745 19.0109 16.6673C19.4473 15.8382 20.0036 15.1509 20.68 14.6055C21.3564 14.06 22.1418 13.6455 23.0364 13.3618C23.9309 13.0782 24.9018 12.9364 25.9491 12.9364C26.9964 12.9364 27.9673 13.0782 28.8618 13.3618C29.7782 13.6236 30.5745 14.0273 31.2509 14.5727C31.9273 15.0964 32.4618 15.7727 32.8545 16.6018C33.2473 17.4309 33.4436 18.4018 33.4436 19.5145C33.4436 20.9764 33.1055 22.2418 32.4291 23.3109C31.7745 24.3582 30.9236 25.3618 29.8764 26.3218L22.7091 32.9655H33.4436V36.5H17.9309V32.3436Z" fill="#0000FE"/>
<path d="M17.9309 32.3436L17.3621 31.7556L17.1127 31.9967V32.3436H17.9309ZM26.9309 23.6382L27.4998 24.2263L27.5095 24.2167L26.9309 23.6382ZM27.7491 22.82L28.3276 23.3985L28.3383 23.3878L28.3486 23.3767L27.7491 22.82ZM28.5018 21.8709L27.842 21.3871L27.8312 21.4018L27.8211 21.4171L28.5018 21.8709ZM29.0909 20.8564L29.8405 21.1843L29.8441 21.1761L29.8475 21.1679L29.0909 20.8564ZM29.0255 18.4345L28.2851 18.7829L28.2933 18.8003L28.3024 18.8174L29.0255 18.4345ZM27.2255 16.8964L26.9289 17.6589L26.9537 17.6686L26.9791 17.6766L27.2255 16.8964ZM23.5273 17.5182L22.9811 16.909L22.9811 16.909L23.5273 17.5182ZM22.3818 19.8091L22.3171 20.6247L23.088 20.6859L23.1925 19.9196L22.3818 19.8091ZM18.2582 19.4818L17.4427 19.4152L17.376 20.2326L18.1935 20.2974L18.2582 19.4818ZM19.0109 16.6673L18.2868 16.2862L18.2831 16.2935L19.0109 16.6673ZM20.68 14.6055L21.1936 15.2423L20.68 14.6055ZM23.0364 13.3618L22.7891 12.5819L23.0364 13.3618ZM28.8618 13.3618L28.6145 14.1417L28.6257 14.1453L28.637 14.1485L28.8618 13.3618ZM31.2509 14.5727L30.7373 15.2096L30.7436 15.2147L30.75 15.2197L31.2509 14.5727ZM32.8545 16.6018L33.594 16.2516V16.2516L32.8545 16.6018ZM32.4291 23.3109L31.7377 22.8735L31.7353 22.8773L32.4291 23.3109ZM29.8764 26.3218L29.3235 25.7187L29.3202 25.7218L29.8764 26.3218ZM22.7091 32.9655L22.1529 32.3654L20.6229 33.7836H22.7091V32.9655ZM33.4436 32.9655H34.2618V32.1473H33.4436V32.9655ZM33.4436 36.5V37.3182H34.2618V36.5H33.4436ZM17.9309 36.5H17.1127V37.3182H17.9309V36.5ZM18.4997 32.9317L27.4997 24.2263L26.3621 23.0501L17.3621 31.7556L18.4997 32.9317ZM27.5095 24.2167C27.7713 23.9549 28.044 23.6822 28.3276 23.3985L27.1706 22.2415C26.8869 22.5251 26.6142 22.7978 26.3524 23.0596L27.5095 24.2167ZM28.3486 23.3767C28.6603 23.0411 28.9387 22.6905 29.1826 22.3248L27.8211 21.4171C27.6285 21.7058 27.4052 21.988 27.1495 22.2633L28.3486 23.3767ZM29.1616 22.3548C29.4349 21.9821 29.6621 21.592 29.8405 21.1843L28.3413 20.5284C28.2142 20.819 28.0488 21.1052 27.842 21.3871L29.1616 22.3548ZM29.8475 21.1679C30.04 20.7003 30.1382 20.2128 30.1382 19.7109H28.5018C28.5018 19.9945 28.4473 20.2706 28.3344 20.5448L29.8475 21.1679ZM30.1382 19.7109C30.1382 19.1168 30.0158 18.5566 29.7486 18.0517L28.3024 18.8174C28.4278 19.0543 28.5018 19.345 28.5018 19.7109H30.1382ZM29.7658 18.0862C29.5429 17.6127 29.2328 17.2028 28.8379 16.8642L27.773 18.1067C27.989 18.2918 28.1589 18.5146 28.2851 18.7829L29.7658 18.0862ZM28.8379 16.8642C28.4422 16.5251 27.9829 16.2776 27.4718 16.1162L26.9791 17.6766C27.2971 17.777 27.5578 17.9222 27.773 18.1067L28.8379 16.8642ZM27.522 16.1338C27.0268 15.9412 26.4998 15.8491 25.9491 15.8491V17.4855C26.3147 17.4855 26.6387 17.546 26.9289 17.6589L27.522 16.1338ZM25.9491 15.8491C24.7991 15.8491 23.787 16.1864 22.9811 16.909L24.0734 18.1274C24.533 17.7154 25.1355 17.4855 25.9491 17.4855V15.8491ZM22.9811 16.909C22.1837 17.6239 21.7244 18.5748 21.5711 19.6985L23.1925 19.9196C23.3011 19.1234 23.6054 18.547 24.0734 18.1274L22.9811 16.909ZM22.4465 18.9935L18.3229 18.6662L18.1935 20.2974L22.3171 20.6247L22.4465 18.9935ZM19.0737 19.5484C19.1537 18.5673 19.3814 17.7369 19.7387 17.041L18.2831 16.2935C17.8113 17.2122 17.5372 18.2582 17.4427 19.4152L19.0737 19.5484ZM19.7349 17.0483C20.1235 16.3102 20.6107 15.7124 21.1936 15.2423L20.1664 13.9686C19.3966 14.5894 18.7711 15.3662 18.2869 16.2862L19.7349 17.0483ZM21.1936 15.2423C21.7847 14.7656 22.4782 14.3971 23.2837 14.1417L22.7891 12.5819C21.8054 12.8938 20.928 13.3544 20.1664 13.9686L21.1936 15.2423ZM23.2837 14.1417C24.0895 13.8862 24.9761 13.7545 25.9491 13.7545V12.1182C24.8275 12.1182 23.7723 12.2702 22.7891 12.5819L23.2837 14.1417ZM25.9491 13.7545C26.9221 13.7545 27.8086 13.8862 28.6145 14.1417L29.1091 12.5819C28.1259 12.2702 27.0707 12.1182 25.9491 12.1182V13.7545ZM28.637 14.1485C29.4583 14.3832 30.1541 14.7393 30.7373 15.2096L31.7645 13.9358C30.995 13.3152 30.098 12.8641 29.0866 12.5751L28.637 14.1485ZM30.75 15.2197C31.3174 15.6589 31.7734 16.2306 32.1151 16.9521L33.594 16.2516C33.1502 15.3148 32.5372 14.5338 31.7518 13.9258L30.75 15.2197ZM32.1151 16.9521C32.4461 17.6509 32.6255 18.4976 32.6255 19.5145H34.2618C34.2618 18.306 34.0484 17.2109 33.594 16.2516L32.1151 16.9521ZM32.6255 19.5145C32.6255 20.8461 32.319 21.9546 31.7377 22.8735L33.1205 23.7483C33.8919 22.529 34.2618 21.1066 34.2618 19.5145H32.6255ZM31.7353 22.8773C31.1252 23.8534 30.3243 24.8013 29.3235 25.7187L30.4292 26.9249C31.5229 25.9224 32.4239 24.863 33.1229 23.7445L31.7353 22.8773ZM29.3202 25.7218L22.1529 32.3654L23.2653 33.5655L30.4326 26.9219L29.3202 25.7218ZM22.7091 33.7836H33.4436V32.1473H22.7091V33.7836ZM32.6255 32.9655V36.5H34.2618V32.9655H32.6255ZM33.4436 35.6818H17.9309V37.3182H33.4436V35.6818ZM18.7491 36.5V32.3436H17.1127V36.5H18.7491Z" fill="#0000FE" mask="url(#path-2-outside-1_3954_7320)"/>
<rect x="62" y="24" width="130" height="3" rx="1.5" fill="#0000FE"/>
<path d="M67.088 39.004C66.92 38.732 66.696 38.536 66.416 38.416C66.136 38.288 65.844 38.224 65.54 38.224C65.316 38.224 65.096 38.252 64.88 38.308C64.664 38.364 64.468 38.448 64.292 38.56C64.124 38.672 63.988 38.82 63.884 39.004C63.78 39.188 63.728 39.404 63.728 39.652C63.728 39.844 63.756 40.016 63.812 40.168C63.876 40.312 63.976 40.444 64.112 40.564C64.248 40.684 64.432 40.796 64.664 40.9C64.896 41.004 65.18 41.108 65.516 41.212C65.844 41.316 66.16 41.428 66.464 41.548C66.776 41.668 67.048 41.82 67.28 42.004C67.52 42.188 67.708 42.42 67.844 42.7C67.988 42.972 68.06 43.316 68.06 43.732C68.06 44.156 67.976 44.524 67.808 44.836C67.64 45.148 67.416 45.408 67.136 45.616C66.864 45.816 66.548 45.964 66.188 46.06C65.828 46.164 65.456 46.216 65.072 46.216C64.824 46.216 64.576 46.192 64.328 46.144C64.08 46.104 63.84 46.04 63.608 45.952C63.384 45.856 63.172 45.736 62.972 45.592C62.772 45.44 62.6 45.256 62.456 45.04L63.32 44.332C63.504 44.644 63.76 44.88 64.088 45.04C64.416 45.2 64.764 45.28 65.132 45.28C65.348 45.28 65.564 45.248 65.78 45.184C66.004 45.12 66.204 45.028 66.38 44.908C66.556 44.78 66.7 44.624 66.812 44.44C66.924 44.256 66.98 44.044 66.98 43.804C66.98 43.54 66.936 43.328 66.848 43.168C66.76 43 66.624 42.856 66.44 42.736C66.256 42.616 66.024 42.508 65.744 42.412C65.464 42.316 65.136 42.204 64.76 42.076C64.456 41.98 64.176 41.872 63.92 41.752C63.664 41.624 63.44 41.472 63.248 41.296C63.064 41.112 62.916 40.896 62.804 40.648C62.7 40.392 62.648 40.088 62.648 39.736C62.648 39.328 62.728 38.972 62.888 38.668C63.048 38.364 63.264 38.112 63.536 37.912C63.808 37.704 64.116 37.548 64.46 37.444C64.804 37.34 65.164 37.288 65.54 37.288C66.02 37.288 66.456 37.364 66.848 37.516C67.248 37.66 67.604 37.916 67.916 38.284L67.088 39.004ZM77.424 38.44H74.616V46H73.608V38.44H70.8V37.504H77.424V38.44ZM80.6146 37.504H85.9546V38.44H81.6226V41.104H85.6666V42.04H81.6226V45.064H86.1706V46H80.6146V37.504ZM89.7279 37.504H92.2479C92.6399 37.504 93.0119 37.544 93.3639 37.624C93.7239 37.696 94.0399 37.824 94.3119 38.008C94.5919 38.184 94.8119 38.424 94.9719 38.728C95.1399 39.024 95.2239 39.392 95.2239 39.832C95.2239 40.296 95.1359 40.68 94.9599 40.984C94.7839 41.288 94.5559 41.528 94.2759 41.704C94.0039 41.88 93.7039 42.004 93.3759 42.076C93.0479 42.148 92.7359 42.184 92.4399 42.184H90.7359V46H89.7279V37.504ZM90.7359 41.248H92.4399C92.9439 41.248 93.3519 41.136 93.6639 40.912C93.9839 40.68 94.1439 40.324 94.1439 39.844C94.1439 39.364 93.9839 39.012 93.6639 38.788C93.3519 38.556 92.9439 38.44 92.4399 38.44H90.7359V41.248ZM103.725 44.848L106.929 41.728C107.129 41.536 107.305 41.36 107.457 41.2C107.609 41.032 107.733 40.872 107.829 40.72C107.933 40.56 108.009 40.396 108.057 40.228C108.105 40.06 108.129 39.872 108.129 39.664C108.129 39.44 108.089 39.24 108.009 39.064C107.929 38.888 107.817 38.74 107.673 38.62C107.537 38.492 107.373 38.396 107.181 38.332C106.997 38.26 106.797 38.224 106.581 38.224C106.149 38.224 105.793 38.348 105.513 38.596C105.233 38.844 105.053 39.172 104.973 39.58L103.881 39.484C103.937 39.14 104.041 38.836 104.193 38.572C104.353 38.3 104.549 38.076 104.781 37.9C105.021 37.724 105.289 37.592 105.585 37.504C105.881 37.408 106.201 37.36 106.545 37.36C106.897 37.36 107.229 37.412 107.541 37.516C107.853 37.612 108.125 37.756 108.357 37.948C108.597 38.14 108.785 38.38 108.921 38.668C109.065 38.956 109.137 39.288 109.137 39.664C109.137 40 109.089 40.304 108.993 40.576C108.905 40.848 108.781 41.1 108.621 41.332C108.469 41.556 108.293 41.772 108.093 41.98C107.901 42.18 107.697 42.38 107.481 42.58L104.865 45.04V45.064H109.197V46H103.725V44.848Z" fill="black" fill-opacity="0.5"/>
<path d="M67.008 57.672H68.4L73.248 69H71.456L70.32 66.2H64.928L63.808 69H62.016L67.008 57.672ZM69.76 64.856L67.648 59.656H67.616L65.472 64.856H69.76ZM79.7776 63.432C79.511 63.1547 79.2283 62.9467 78.9296 62.808C78.6416 62.6587 78.295 62.584 77.8896 62.584C77.495 62.584 77.1483 62.6587 76.8496 62.808C76.5616 62.9467 76.3163 63.144 76.1136 63.4C75.9216 63.6453 75.7723 63.9333 75.6656 64.264C75.5696 64.584 75.5216 64.92 75.5216 65.272C75.5216 65.624 75.5803 65.96 75.6976 66.28C75.815 66.5893 75.9803 66.8613 76.1936 67.096C76.407 67.3307 76.663 67.5173 76.9616 67.656C77.2603 67.784 77.5963 67.848 77.9696 67.848C78.375 67.848 78.7216 67.7787 79.0096 67.64C79.2976 67.4907 79.5643 67.2773 79.8096 67L80.8336 68.024C80.4603 68.44 80.023 68.7387 79.5216 68.92C79.031 69.1013 78.5083 69.192 77.9536 69.192C77.367 69.192 76.8283 69.096 76.3376 68.904C75.8576 68.712 75.4416 68.4453 75.0896 68.104C74.7376 67.752 74.4656 67.336 74.2736 66.856C74.0816 66.3653 73.9856 65.8267 73.9856 65.24C73.9856 64.6533 74.0816 64.1147 74.2736 63.624C74.4656 63.1333 74.7323 62.712 75.0736 62.36C75.4256 62.008 75.8416 61.736 76.3216 61.544C76.8123 61.3413 77.3563 61.24 77.9536 61.24C78.5083 61.24 79.0363 61.3413 79.5376 61.544C80.0496 61.736 80.4923 62.0347 80.8656 62.44L79.7776 63.432ZM82.1044 62.344C82.5097 61.9707 82.979 61.6933 83.5124 61.512C84.0457 61.32 84.579 61.224 85.1124 61.224C85.667 61.224 86.1417 61.2933 86.5364 61.432C86.9417 61.5707 87.2724 61.7573 87.5284 61.992C87.7844 62.2267 87.971 62.4987 88.0884 62.808C88.2164 63.1067 88.2804 63.4213 88.2804 63.752V67.624C88.2804 67.8907 88.2857 68.136 88.2964 68.36C88.307 68.584 88.323 68.7973 88.3444 69H87.0644C87.0324 68.616 87.0164 68.232 87.0164 67.848H86.9844C86.6644 68.3387 86.2857 68.6853 85.8484 68.888C85.411 69.0907 84.9044 69.192 84.3284 69.192C83.9764 69.192 83.6404 69.144 83.3204 69.048C83.0004 68.952 82.7177 68.808 82.4724 68.616C82.2377 68.424 82.051 68.1893 81.9124 67.912C81.7737 67.624 81.7044 67.2933 81.7044 66.92C81.7044 66.4293 81.811 66.0187 82.0244 65.688C82.2484 65.3573 82.547 65.0907 82.9204 64.888C83.3044 64.6747 83.747 64.5253 84.2484 64.44C84.7604 64.344 85.3044 64.296 85.8804 64.296H86.9364V63.976C86.9364 63.784 86.899 63.592 86.8244 63.4C86.7497 63.208 86.6377 63.0373 86.4884 62.888C86.339 62.728 86.1524 62.6053 85.9284 62.52C85.7044 62.424 85.4377 62.376 85.1284 62.376C84.851 62.376 84.6057 62.4027 84.3924 62.456C84.1897 62.5093 84.003 62.5787 83.8324 62.664C83.6617 62.7387 83.507 62.8293 83.3684 62.936C83.2297 63.0427 83.0964 63.144 82.9684 63.24L82.1044 62.344ZM86.1684 65.352C85.827 65.352 85.475 65.3733 85.1124 65.416C84.7604 65.448 84.435 65.5173 84.1364 65.624C83.8484 65.7307 83.6084 65.88 83.4164 66.072C83.235 66.264 83.1444 66.5093 83.1444 66.808C83.1444 67.2453 83.2884 67.56 83.5764 67.752C83.875 67.944 84.275 68.04 84.7764 68.04C85.171 68.04 85.507 67.976 85.7844 67.848C86.0617 67.7093 86.2857 67.5333 86.4564 67.32C86.627 67.1067 86.7497 66.872 86.8244 66.616C86.899 66.3493 86.9364 66.088 86.9364 65.832V65.352H86.1684ZM97.9693 69H96.5293V67.912H96.4973C96.2199 68.3173 95.8359 68.632 95.3453 68.856C94.8653 69.08 94.3693 69.192 93.8573 69.192C93.2706 69.192 92.7373 69.0907 92.2573 68.888C91.7879 68.6853 91.3826 68.4027 91.0413 68.04C90.7106 67.6773 90.4546 67.256 90.2733 66.776C90.0919 66.296 90.0013 65.7733 90.0013 65.208C90.0013 64.6427 90.0919 64.12 90.2733 63.64C90.4546 63.1493 90.7106 62.728 91.0413 62.376C91.3826 62.0133 91.7879 61.7307 92.2573 61.528C92.7373 61.3253 93.2706 61.224 93.8573 61.224C94.4013 61.224 94.9133 61.3413 95.3933 61.576C95.8733 61.8 96.2413 62.1093 96.4973 62.504H96.5293V56.904H97.9693V69ZM94.0333 67.848C94.4173 67.848 94.7639 67.784 95.0733 67.656C95.3826 67.5173 95.6439 67.336 95.8573 67.112C96.0706 66.8773 96.2359 66.6 96.3533 66.28C96.4706 65.9493 96.5293 65.592 96.5293 65.208C96.5293 64.824 96.4706 64.472 96.3533 64.152C96.2359 63.8213 96.0706 63.544 95.8573 63.32C95.6439 63.0853 95.3826 62.904 95.0733 62.776C94.7639 62.6373 94.4173 62.568 94.0333 62.568C93.6493 62.568 93.3026 62.6373 92.9933 62.776C92.6839 62.904 92.4226 63.0853 92.2093 63.32C91.9959 63.544 91.8306 63.8213 91.7133 64.152C91.5959 64.472 91.5373 64.824 91.5373 65.208C91.5373 65.592 91.5959 65.9493 91.7133 66.28C91.8306 66.6 91.9959 66.8773 92.2093 67.112C92.4226 67.336 92.6839 67.5173 92.9933 67.656C93.3026 67.784 93.6493 67.848 94.0333 67.848ZM101.239 65.736C101.239 66.0667 101.308 66.3707 101.447 66.648C101.596 66.9147 101.788 67.144 102.023 67.336C102.257 67.528 102.529 67.6773 102.839 67.784C103.148 67.8907 103.468 67.944 103.799 67.944C104.247 67.944 104.636 67.8427 104.967 67.64C105.297 67.4267 105.601 67.1493 105.879 66.808L106.967 67.64C106.167 68.6747 105.047 69.192 103.607 69.192C103.009 69.192 102.465 69.0907 101.975 68.888C101.495 68.6853 101.084 68.408 100.743 68.056C100.412 67.6933 100.156 67.272 99.9745 66.792C99.7932 66.3013 99.7025 65.7733 99.7025 65.208C99.7025 64.6427 99.7985 64.12 99.9905 63.64C100.193 63.1493 100.465 62.728 100.807 62.376C101.159 62.0133 101.575 61.7307 102.055 61.528C102.535 61.3253 103.057 61.224 103.623 61.224C104.295 61.224 104.86 61.3413 105.319 61.576C105.788 61.8107 106.172 62.12 106.471 62.504C106.769 62.8773 106.983 63.304 107.111 63.784C107.249 64.2533 107.319 64.7333 107.319 65.224V65.736H101.239ZM105.783 64.584C105.772 64.264 105.719 63.9707 105.623 63.704C105.537 63.4373 105.404 63.208 105.223 63.016C105.041 62.8133 104.812 62.6587 104.535 62.552C104.268 62.4347 103.953 62.376 103.591 62.376C103.239 62.376 102.913 62.4453 102.615 62.584C102.327 62.712 102.081 62.8827 101.879 63.096C101.676 63.3093 101.516 63.5493 101.399 63.816C101.292 64.072 101.239 64.328 101.239 64.584H105.783ZM109.041 61.416H110.385V62.6H110.417C110.449 62.4933 110.529 62.36 110.657 62.2C110.796 62.04 110.966 61.8907 111.169 61.752C111.382 61.6027 111.628 61.48 111.905 61.384C112.193 61.2773 112.508 61.224 112.849 61.224C113.414 61.224 113.889 61.3413 114.273 61.576C114.657 61.8107 114.972 62.1627 115.217 62.632C115.462 62.1627 115.809 61.8107 116.257 61.576C116.705 61.3413 117.158 61.224 117.617 61.224C118.204 61.224 118.684 61.32 119.057 61.512C119.43 61.704 119.724 61.96 119.937 62.28C120.15 62.5893 120.294 62.9467 120.369 63.352C120.454 63.7467 120.497 64.1573 120.497 64.584V69H119.057V64.776C119.057 64.488 119.036 64.2107 118.993 63.944C118.961 63.6773 118.886 63.4427 118.769 63.24C118.652 63.0373 118.486 62.8773 118.273 62.76C118.06 62.632 117.777 62.568 117.425 62.568C116.732 62.568 116.236 62.7813 115.937 63.208C115.638 63.6347 115.489 64.184 115.489 64.856V69H114.049V65.032C114.049 64.6693 114.028 64.3387 113.985 64.04C113.953 63.7413 113.878 63.4853 113.761 63.272C113.654 63.048 113.494 62.8773 113.281 62.76C113.078 62.632 112.801 62.568 112.449 62.568C112.193 62.568 111.942 62.6213 111.697 62.728C111.462 62.824 111.254 62.9733 111.073 63.176C110.892 63.3787 110.748 63.64 110.641 63.96C110.534 64.2693 110.481 64.6373 110.481 65.064V69H109.041V61.416ZM122.778 61.416H124.218V69H122.778V61.416ZM122.442 58.696C122.442 58.408 122.543 58.1627 122.746 57.96C122.959 57.7467 123.21 57.64 123.498 57.64C123.786 57.64 124.031 57.7467 124.234 57.96C124.447 58.1627 124.554 58.408 124.554 58.696C124.554 58.984 124.447 59.2347 124.234 59.448C124.031 59.6507 123.786 59.752 123.498 59.752C123.21 59.752 122.959 59.6507 122.746 59.448C122.543 59.2347 122.442 58.984 122.442 58.696ZM131.934 63.432C131.667 63.1547 131.385 62.9467 131.086 62.808C130.798 62.6587 130.451 62.584 130.046 62.584C129.651 62.584 129.305 62.6587 129.006 62.808C128.718 62.9467 128.473 63.144 128.27 63.4C128.078 63.6453 127.929 63.9333 127.822 64.264C127.726 64.584 127.678 64.92 127.678 65.272C127.678 65.624 127.737 65.96 127.854 66.28C127.971 66.5893 128.137 66.8613 128.35 67.096C128.563 67.3307 128.819 67.5173 129.118 67.656C129.417 67.784 129.753 67.848 130.126 67.848C130.531 67.848 130.878 67.7787 131.166 67.64C131.454 67.4907 131.721 67.2773 131.966 67L132.99 68.024C132.617 68.44 132.179 68.7387 131.678 68.92C131.187 69.1013 130.665 69.192 130.11 69.192C129.523 69.192 128.985 69.096 128.494 68.904C128.014 68.712 127.598 68.4453 127.246 68.104C126.894 67.752 126.622 67.336 126.43 66.856C126.238 66.3653 126.142 65.8267 126.142 65.24C126.142 64.6533 126.238 64.1147 126.43 63.624C126.622 63.1333 126.889 62.712 127.23 62.36C127.582 62.008 127.998 61.736 128.478 61.544C128.969 61.3413 129.513 61.24 130.11 61.24C130.665 61.24 131.193 61.3413 131.694 61.544C132.206 61.736 132.649 62.0347 133.022 62.44L131.934 63.432ZM63.456 79.672H64.992V91H63.456V79.672ZM67.5411 83.416H68.9811V84.584H69.0131C69.1945 84.1787 69.5091 83.8533 69.9571 83.608C70.4051 83.352 70.9225 83.224 71.5091 83.224C71.8718 83.224 72.2185 83.2827 72.5491 83.4C72.8905 83.5067 73.1838 83.6773 73.4291 83.912C73.6851 84.1467 73.8878 84.4507 74.0371 84.824C74.1865 85.1867 74.2611 85.6187 74.2611 86.12V91H72.8211V86.52C72.8211 86.168 72.7731 85.8693 72.6771 85.624C72.5811 85.368 72.4531 85.1653 72.2931 85.016C72.1331 84.856 71.9465 84.744 71.7331 84.68C71.5305 84.6053 71.3171 84.568 71.0931 84.568C70.7945 84.568 70.5171 84.616 70.2611 84.712C70.0051 84.808 69.7811 84.9627 69.5891 85.176C69.3971 85.3787 69.2478 85.64 69.1411 85.96C69.0345 86.28 68.9811 86.6587 68.9811 87.096V91H67.5411V83.416ZM76.9918 84.664H75.3598V83.416H76.9918V81.72C76.9918 80.7067 77.1838 79.9547 77.5678 79.464C77.9624 78.9627 78.6344 78.712 79.5838 78.712C79.7438 78.712 79.9091 78.7173 80.0798 78.728C80.2611 78.7387 80.4531 78.7707 80.6558 78.824L80.4958 80.104C80.3571 80.0507 80.2238 80.0133 80.0958 79.992C79.9678 79.9707 79.8291 79.96 79.6798 79.96C79.4131 79.96 79.1998 80.0027 79.0398 80.088C78.8798 80.1627 78.7518 80.2747 78.6558 80.424C78.5704 80.5733 78.5118 80.7547 78.4798 80.968C78.4584 81.1707 78.4478 81.4053 78.4478 81.672V83.416H80.1598V84.664H78.4318V91H76.9918V84.664ZM82.9279 87.208C82.9279 87.592 82.9865 87.9493 83.1039 88.28C83.2212 88.6 83.3865 88.8773 83.5999 89.112C83.8132 89.336 84.0745 89.5173 84.3839 89.656C84.6932 89.784 85.0399 89.848 85.4239 89.848C85.8079 89.848 86.1545 89.784 86.4639 89.656C86.7732 89.5173 87.0345 89.336 87.2479 89.112C87.4612 88.8773 87.6265 88.6 87.7439 88.28C87.8612 87.9493 87.9199 87.592 87.9199 87.208C87.9199 86.824 87.8612 86.472 87.7439 86.152C87.6265 85.8213 87.4612 85.544 87.2479 85.32C87.0345 85.0853 86.7732 84.904 86.4639 84.776C86.1545 84.6373 85.8079 84.568 85.4239 84.568C85.0399 84.568 84.6932 84.6373 84.3839 84.776C84.0745 84.904 83.8132 85.0853 83.5999 85.32C83.3865 85.544 83.2212 85.8213 83.1039 86.152C82.9865 86.472 82.9279 86.824 82.9279 87.208ZM81.3919 87.208C81.3919 86.6533 81.4932 86.136 81.6959 85.656C81.9092 85.176 82.1972 84.7547 82.5599 84.392C82.9225 84.0293 83.3492 83.7467 83.8399 83.544C84.3305 83.3307 84.8585 83.224 85.4239 83.224C85.9892 83.224 86.5172 83.3307 87.0079 83.544C87.4985 83.7467 87.9252 84.0293 88.2879 84.392C88.6505 84.7547 88.9332 85.176 89.1359 85.656C89.3492 86.136 89.4559 86.6533 89.4559 87.208C89.4559 87.7627 89.3492 88.2853 89.1359 88.776C88.9332 89.256 88.6505 89.6773 88.2879 90.04C87.9252 90.392 87.4985 90.6747 87.0079 90.888C86.5172 91.0907 85.9892 91.192 85.4239 91.192C84.8585 91.192 84.3305 91.0907 83.8399 90.888C83.3492 90.6747 82.9225 90.392 82.5599 90.04C82.1972 89.6773 81.9092 89.256 81.6959 88.776C81.4932 88.2853 81.3919 87.7627 81.3919 87.208ZM91.2599 83.416H92.6999V84.584H92.7319C92.8279 84.3813 92.9559 84.2 93.1159 84.04C93.2759 83.8693 93.4519 83.7253 93.6439 83.608C93.8465 83.4907 94.0652 83.4 94.2999 83.336C94.5345 83.2613 94.7692 83.224 95.0039 83.224C95.2385 83.224 95.4519 83.256 95.6439 83.32L95.5799 84.872C95.4625 84.84 95.3452 84.8133 95.2279 84.792C95.1105 84.7707 94.9932 84.76 94.8759 84.76C94.1719 84.76 93.6332 84.9573 93.2599 85.352C92.8865 85.7467 92.6999 86.36 92.6999 87.192V91H91.2599V83.416ZM97.1818 83.416H98.5258V84.6H98.5578C98.5898 84.4933 98.6698 84.36 98.7978 84.2C98.9364 84.04 99.1071 83.8907 99.3098 83.752C99.5231 83.6027 99.7684 83.48 100.046 83.384C100.334 83.2773 100.648 83.224 100.99 83.224C101.555 83.224 102.03 83.3413 102.414 83.576C102.798 83.8107 103.112 84.1627 103.358 84.632C103.603 84.1627 103.95 83.8107 104.398 83.576C104.846 83.3413 105.299 83.224 105.758 83.224C106.344 83.224 106.824 83.32 107.198 83.512C107.571 83.704 107.864 83.96 108.078 84.28C108.291 84.5893 108.435 84.9467 108.51 85.352C108.595 85.7467 108.638 86.1573 108.638 86.584V91H107.198V86.776C107.198 86.488 107.176 86.2107 107.134 85.944C107.102 85.6773 107.027 85.4427 106.91 85.24C106.792 85.0373 106.627 84.8773 106.414 84.76C106.2 84.632 105.918 84.568 105.566 84.568C104.872 84.568 104.376 84.7813 104.078 85.208C103.779 85.6347 103.63 86.184 103.63 86.856V91H102.19V87.032C102.19 86.6693 102.168 86.3387 102.126 86.04C102.094 85.7413 102.019 85.4853 101.902 85.272C101.795 85.048 101.635 84.8773 101.422 84.76C101.219 84.632 100.942 84.568 100.59 84.568C100.334 84.568 100.083 84.6213 99.8378 84.728C99.6031 84.824 99.3951 84.9733 99.2138 85.176C99.0324 85.3787 98.8884 85.64 98.7818 85.96C98.6751 86.2693 98.6218 86.6373 98.6218 87.064V91H97.1818V83.416ZM110.839 84.344C111.244 83.9707 111.713 83.6933 112.247 83.512C112.78 83.32 113.313 83.224 113.847 83.224C114.401 83.224 114.876 83.2933 115.271 83.432C115.676 83.5707 116.007 83.7573 116.263 83.992C116.519 84.2267 116.705 84.4987 116.823 84.808C116.951 85.1067 117.015 85.4213 117.015 85.752V89.624C117.015 89.8907 117.02 90.136 117.031 90.36C117.041 90.584 117.057 90.7973 117.079 91H115.799C115.767 90.616 115.751 90.232 115.751 89.848H115.719C115.399 90.3387 115.02 90.6853 114.583 90.888C114.145 91.0907 113.639 91.192 113.063 91.192C112.711 91.192 112.375 91.144 112.055 91.048C111.735 90.952 111.452 90.808 111.207 90.616C110.972 90.424 110.785 90.1893 110.647 89.912C110.508 89.624 110.439 89.2933 110.439 88.92C110.439 88.4293 110.545 88.0187 110.759 87.688C110.983 87.3573 111.281 87.0907 111.655 86.888C112.039 86.6747 112.481 86.5253 112.983 86.44C113.495 86.344 114.039 86.296 114.615 86.296H115.671V85.976C115.671 85.784 115.633 85.592 115.559 85.4C115.484 85.208 115.372 85.0373 115.223 84.888C115.073 84.728 114.887 84.6053 114.663 84.52C114.439 84.424 114.172 84.376 113.863 84.376C113.585 84.376 113.34 84.4027 113.127 84.456C112.924 84.5093 112.737 84.5787 112.567 84.664C112.396 84.7387 112.241 84.8293 112.103 84.936C111.964 85.0427 111.831 85.144 111.703 85.24L110.839 84.344ZM114.903 87.352C114.561 87.352 114.209 87.3733 113.847 87.416C113.495 87.448 113.169 87.5173 112.871 87.624C112.583 87.7307 112.343 87.88 112.151 88.072C111.969 88.264 111.879 88.5093 111.879 88.808C111.879 89.2453 112.023 89.56 112.311 89.752C112.609 89.944 113.009 90.04 113.511 90.04C113.905 90.04 114.241 89.976 114.519 89.848C114.796 89.7093 115.02 89.5333 115.191 89.32C115.361 89.1067 115.484 88.872 115.559 88.616C115.633 88.3493 115.671 88.088 115.671 87.832V87.352H114.903ZM123.168 84.664H121.104V88.104C121.104 88.3173 121.109 88.5307 121.12 88.744C121.13 88.9467 121.168 89.1333 121.232 89.304C121.306 89.464 121.413 89.5973 121.552 89.704C121.701 89.8 121.914 89.848 122.192 89.848C122.362 89.848 122.538 89.832 122.72 89.8C122.901 89.768 123.066 89.7093 123.216 89.624V90.936C123.045 91.032 122.821 91.096 122.544 91.128C122.277 91.1707 122.069 91.192 121.92 91.192C121.365 91.192 120.933 91.1173 120.624 90.968C120.325 90.808 120.101 90.6053 119.952 90.36C119.813 90.1147 119.728 89.8427 119.696 89.544C119.674 89.2347 119.664 88.9253 119.664 88.616V84.664H118V83.416H119.664V81.288H121.104V83.416H123.168V84.664ZM125.138 83.416H126.578V91H125.138V83.416ZM124.802 80.696C124.802 80.408 124.903 80.1627 125.106 79.96C125.319 79.7467 125.57 79.64 125.858 79.64C126.146 79.64 126.391 79.7467 126.594 79.96C126.807 80.1627 126.914 80.408 126.914 80.696C126.914 80.984 126.807 81.2347 126.594 81.448C126.391 81.6507 126.146 81.752 125.858 81.752C125.57 81.752 125.319 81.6507 125.106 81.448C124.903 81.2347 124.802 80.984 124.802 80.696ZM130.037 87.208C130.037 87.592 130.096 87.9493 130.213 88.28C130.331 88.6 130.496 88.8773 130.709 89.112C130.923 89.336 131.184 89.5173 131.493 89.656C131.803 89.784 132.149 89.848 132.533 89.848C132.917 89.848 133.264 89.784 133.573 89.656C133.883 89.5173 134.144 89.336 134.357 89.112C134.571 88.8773 134.736 88.6 134.853 88.28C134.971 87.9493 135.029 87.592 135.029 87.208C135.029 86.824 134.971 86.472 134.853 86.152C134.736 85.8213 134.571 85.544 134.357 85.32C134.144 85.0853 133.883 84.904 133.573 84.776C133.264 84.6373 132.917 84.568 132.533 84.568C132.149 84.568 131.803 84.6373 131.493 84.776C131.184 84.904 130.923 85.0853 130.709 85.32C130.496 85.544 130.331 85.8213 130.213 86.152C130.096 86.472 130.037 86.824 130.037 87.208ZM128.501 87.208C128.501 86.6533 128.603 86.136 128.805 85.656C129.019 85.176 129.307 84.7547 129.669 84.392C130.032 84.0293 130.459 83.7467 130.949 83.544C131.44 83.3307 131.968 83.224 132.533 83.224C133.099 83.224 133.627 83.3307 134.117 83.544C134.608 83.7467 135.035 84.0293 135.397 84.392C135.76 84.7547 136.043 85.176 136.245 85.656C136.459 86.136 136.565 86.6533 136.565 87.208C136.565 87.7627 136.459 88.2853 136.245 88.776C136.043 89.256 135.76 89.6773 135.397 90.04C135.035 90.392 134.608 90.6747 134.117 90.888C133.627 91.0907 133.099 91.192 132.533 91.192C131.968 91.192 131.44 91.0907 130.949 90.888C130.459 90.6747 130.032 90.392 129.669 90.04C129.307 89.6773 129.019 89.256 128.805 88.776C128.603 88.2853 128.501 87.7627 128.501 87.208ZM138.369 83.416H139.809V84.584H139.841C140.023 84.1787 140.337 83.8533 140.785 83.608C141.233 83.352 141.751 83.224 142.337 83.224C142.7 83.224 143.047 83.2827 143.377 83.4C143.719 83.5067 144.012 83.6773 144.257 83.912C144.513 84.1467 144.716 84.4507 144.865 84.824C145.015 85.1867 145.089 85.6187 145.089 86.12V91H143.649V86.52C143.649 86.168 143.601 85.8693 143.505 85.624C143.409 85.368 143.281 85.1653 143.121 85.016C142.961 84.856 142.775 84.744 142.561 84.68C142.359 84.6053 142.145 84.568 141.921 84.568C141.623 84.568 141.345 84.616 141.089 84.712C140.833 84.808 140.609 84.9627 140.417 85.176C140.225 85.3787 140.076 85.64 139.969 85.96C139.863 86.28 139.809 86.6587 139.809 87.096V91H138.369V83.416Z" fill="black"/>
<rect x="62" y="100" width="59" height="15.1714" rx="7.58571" fill="#CCCFFF"/>
<path d="M77.9378 106.343C77.803 106.168 77.6322 106.033 77.4254 105.939C77.2186 105.844 77.0051 105.797 76.7848 105.797C76.5151 105.797 76.2701 105.849 76.0498 105.952C75.8341 106.051 75.6475 106.188 75.4902 106.364C75.3373 106.539 75.2182 106.746 75.1328 106.984C75.0474 107.218 75.0047 107.469 75.0047 107.739C75.0047 107.991 75.0451 108.229 75.1261 108.454C75.207 108.679 75.3238 108.876 75.4767 109.047C75.6295 109.218 75.8161 109.353 76.0363 109.452C76.2566 109.551 76.5061 109.6 76.7848 109.6C77.059 109.6 77.2995 109.544 77.5063 109.432C77.7131 109.319 77.8884 109.162 78.0322 108.96L78.5784 109.371C78.5424 109.42 78.4795 109.492 78.3896 109.587C78.2997 109.677 78.1806 109.769 78.0322 109.863C77.8839 109.953 77.7041 110.032 77.4928 110.099C77.286 110.171 77.0455 110.207 76.7713 110.207C76.3937 110.207 76.0521 110.135 75.7464 109.991C75.4452 109.847 75.1867 109.659 74.971 109.425C74.7597 109.191 74.5979 108.928 74.4855 108.636C74.3731 108.339 74.3169 108.04 74.3169 107.739C74.3169 107.371 74.3776 107.031 74.499 106.721C74.6203 106.406 74.7889 106.137 75.0047 105.912C75.225 105.683 75.4879 105.505 75.7936 105.379C76.0993 105.253 76.4364 105.19 76.805 105.19C77.1197 105.19 77.4276 105.251 77.7288 105.372C78.0345 105.494 78.284 105.68 78.4773 105.932L77.9378 106.343ZM79.6984 108.488C79.6984 108.649 79.7231 108.8 79.7726 108.939C79.822 109.074 79.8917 109.191 79.9816 109.29C80.0715 109.384 80.1816 109.461 80.312 109.519C80.4424 109.573 80.5885 109.6 80.7503 109.6C80.9121 109.6 81.0582 109.573 81.1886 109.519C81.3189 109.461 81.4291 109.384 81.519 109.29C81.6089 109.191 81.6786 109.074 81.728 108.939C81.7774 108.8 81.8022 108.649 81.8022 108.488C81.8022 108.326 81.7774 108.177 81.728 108.043C81.6786 107.903 81.6089 107.786 81.519 107.692C81.4291 107.593 81.3189 107.517 81.1886 107.463C81.0582 107.404 80.9121 107.375 80.7503 107.375C80.5885 107.375 80.4424 107.404 80.312 107.463C80.1816 107.517 80.0715 107.593 79.9816 107.692C79.8917 107.786 79.822 107.903 79.7726 108.043C79.7231 108.177 79.6984 108.326 79.6984 108.488ZM79.0511 108.488C79.0511 108.254 79.0938 108.036 79.1792 107.834C79.2691 107.631 79.3905 107.454 79.5433 107.301C79.6962 107.148 79.876 107.029 80.0827 106.944C80.2895 106.854 80.512 106.809 80.7503 106.809C80.9885 106.809 81.211 106.854 81.4178 106.944C81.6246 107.029 81.8044 107.148 81.9573 107.301C82.1101 107.454 82.2292 107.631 82.3146 107.834C82.4045 108.036 82.4495 108.254 82.4495 108.488C82.4495 108.721 82.4045 108.942 82.3146 109.148C82.2292 109.351 82.1101 109.528 81.9573 109.681C81.8044 109.829 81.6246 109.949 81.4178 110.038C81.211 110.124 80.9885 110.167 80.7503 110.167C80.512 110.167 80.2895 110.124 80.0827 110.038C79.876 109.949 79.6962 109.829 79.5433 109.681C79.3905 109.528 79.2691 109.351 79.1792 109.148C79.0938 108.942 79.0511 108.721 79.0511 108.488ZM83.2097 106.89H83.7761V107.389H83.7896C83.8031 107.344 83.8368 107.287 83.8908 107.22C83.9492 107.153 84.0211 107.09 84.1065 107.031C84.1964 106.968 84.2998 106.917 84.4167 106.876C84.5381 106.831 84.6707 106.809 84.8145 106.809C85.0528 106.809 85.2528 106.858 85.4147 106.957C85.5765 107.056 85.7091 107.204 85.8125 107.402C85.9159 107.204 86.062 107.056 86.2508 106.957C86.4396 106.858 86.6306 106.809 86.8239 106.809C87.0712 106.809 87.2734 106.849 87.4308 106.93C87.5881 107.011 87.7117 107.119 87.8016 107.254C87.8915 107.384 87.9522 107.535 87.9837 107.705C88.0196 107.872 88.0376 108.045 88.0376 108.225V110.086H87.4308V108.306C87.4308 108.184 87.4218 108.067 87.4038 107.955C87.3903 107.843 87.3588 107.744 87.3094 107.658C87.26 107.573 87.1903 107.505 87.1004 107.456C87.0105 107.402 86.8913 107.375 86.743 107.375C86.4508 107.375 86.2418 107.465 86.1159 107.645C85.99 107.825 85.9271 108.056 85.9271 108.339V110.086H85.3203V108.413C85.3203 108.261 85.3113 108.121 85.2933 107.995C85.2798 107.87 85.2483 107.762 85.1989 107.672C85.1539 107.577 85.0865 107.505 84.9966 107.456C84.9112 107.402 84.7943 107.375 84.646 107.375C84.5381 107.375 84.4324 107.398 84.3291 107.442C84.2302 107.483 84.1425 107.546 84.0661 107.631C83.9897 107.717 83.929 107.827 83.884 107.962C83.8391 108.092 83.8166 108.247 83.8166 108.427V110.086H83.2097V106.89ZM88.9517 106.89H89.5586V107.348H89.572C89.6889 107.177 89.8485 107.045 90.0508 106.95C90.2576 106.856 90.4688 106.809 90.6846 106.809C90.9319 106.809 91.1544 106.851 91.3522 106.937C91.5544 107.022 91.7253 107.141 91.8646 107.294C92.0085 107.447 92.1186 107.627 92.195 107.834C92.2714 108.036 92.3097 108.254 92.3097 108.488C92.3097 108.726 92.2714 108.948 92.195 109.155C92.1186 109.357 92.0085 109.535 91.8646 109.688C91.7253 109.836 91.5544 109.953 91.3522 110.038C91.1544 110.124 90.9319 110.167 90.6846 110.167C90.4554 110.167 90.2396 110.119 90.0373 110.025C89.835 109.926 89.6799 109.794 89.572 109.627H89.5586V111.987H88.9517V106.89ZM90.6104 107.375C90.4486 107.375 90.3025 107.404 90.1722 107.463C90.0418 107.517 89.9317 107.593 89.8418 107.692C89.7519 107.786 89.6822 107.903 89.6327 108.043C89.5833 108.177 89.5586 108.326 89.5586 108.488C89.5586 108.649 89.5833 108.8 89.6327 108.939C89.6822 109.074 89.7519 109.191 89.8418 109.29C89.9317 109.384 90.0418 109.461 90.1722 109.519C90.3025 109.573 90.4486 109.6 90.6104 109.6C90.7723 109.6 90.9184 109.573 91.0487 109.519C91.1791 109.461 91.2892 109.384 91.3791 109.29C91.469 109.191 91.5387 109.074 91.5882 108.939C91.6376 108.8 91.6623 108.649 91.6623 108.488C91.6623 108.326 91.6376 108.177 91.5882 108.043C91.5387 107.903 91.469 107.786 91.3791 107.692C91.2892 107.593 91.1791 107.517 91.0487 107.463C90.9184 107.404 90.7723 107.375 90.6104 107.375ZM93.121 104.988H93.7279V110.086H93.121V104.988ZM95.1522 108.71C95.1522 108.85 95.1814 108.978 95.2398 109.094C95.3028 109.207 95.3837 109.304 95.4826 109.384C95.5815 109.465 95.6961 109.528 95.8265 109.573C95.9568 109.618 96.0917 109.641 96.231 109.641C96.4198 109.641 96.5839 109.598 96.7233 109.513C96.8626 109.423 96.9907 109.306 97.1076 109.162L97.5661 109.513C97.229 109.949 96.757 110.167 96.1501 110.167C95.8984 110.167 95.6691 110.124 95.4624 110.038C95.2601 109.953 95.087 109.836 94.9432 109.688C94.8038 109.535 94.6959 109.357 94.6195 109.155C94.5431 108.948 94.5049 108.726 94.5049 108.488C94.5049 108.249 94.5453 108.029 94.6262 107.827C94.7117 107.62 94.8263 107.442 94.9701 107.294C95.1185 107.141 95.2938 107.022 95.4961 106.937C95.6984 106.851 95.9186 106.809 96.1569 106.809C96.4401 106.809 96.6783 106.858 96.8716 106.957C97.0694 107.056 97.2312 107.186 97.3571 107.348C97.483 107.505 97.5729 107.685 97.6268 107.888C97.6853 108.085 97.7145 108.288 97.7145 108.494V108.71H95.1522ZM97.0672 108.225C97.0627 108.09 97.0402 107.966 96.9997 107.854C96.9638 107.741 96.9076 107.645 96.8312 107.564C96.7547 107.478 96.6581 107.413 96.5412 107.368C96.4288 107.319 96.2962 107.294 96.1434 107.294C95.995 107.294 95.8579 107.323 95.7321 107.382C95.6107 107.436 95.5073 107.508 95.4219 107.598C95.3365 107.687 95.2691 107.789 95.2196 107.901C95.1747 108.009 95.1522 108.117 95.1522 108.225H97.0672ZM100.153 107.416H99.2833V108.865C99.2833 108.955 99.2855 109.045 99.29 109.135C99.2945 109.22 99.3103 109.299 99.3372 109.371C99.3687 109.438 99.4137 109.495 99.4721 109.54C99.535 109.58 99.6249 109.6 99.7418 109.6C99.8137 109.6 99.8879 109.593 99.9643 109.58C100.041 109.566 100.11 109.542 100.173 109.506V110.059C100.101 110.099 100.007 110.126 99.8901 110.14C99.7778 110.158 99.6901 110.167 99.6272 110.167C99.3934 110.167 99.2114 110.135 99.081 110.072C98.9551 110.005 98.8607 109.919 98.7978 109.816C98.7394 109.713 98.7034 109.598 98.6899 109.472C98.6809 109.342 98.6764 109.211 98.6764 109.081V107.416H97.9752V106.89H98.6764V105.993H99.2833V106.89H100.153V107.416ZM101.395 108.71C101.395 108.85 101.424 108.978 101.482 109.094C101.545 109.207 101.626 109.304 101.725 109.384C101.824 109.465 101.939 109.528 102.069 109.573C102.199 109.618 102.334 109.641 102.473 109.641C102.662 109.641 102.826 109.598 102.966 109.513C103.105 109.423 103.233 109.306 103.35 109.162L103.809 109.513C103.471 109.949 102.999 110.167 102.393 110.167C102.141 110.167 101.912 110.124 101.705 110.038C101.502 109.953 101.329 109.836 101.186 109.688C101.046 109.535 100.938 109.357 100.862 109.155C100.785 108.948 100.747 108.726 100.747 108.488C100.747 108.249 100.788 108.029 100.869 107.827C100.954 107.62 101.069 107.442 101.213 107.294C101.361 107.141 101.536 107.022 101.738 106.937C101.941 106.851 102.161 106.809 102.399 106.809C102.682 106.809 102.921 106.858 103.114 106.957C103.312 107.056 103.474 107.186 103.6 107.348C103.725 107.505 103.815 107.685 103.869 107.888C103.928 108.085 103.957 108.288 103.957 108.494V108.71H101.395ZM103.31 108.225C103.305 108.09 103.283 107.966 103.242 107.854C103.206 107.741 103.15 107.645 103.074 107.564C102.997 107.478 102.9 107.413 102.784 107.368C102.671 107.319 102.539 107.294 102.386 107.294C102.237 107.294 102.1 107.323 101.974 107.382C101.853 107.436 101.75 107.508 101.664 107.598C101.579 107.687 101.511 107.789 101.462 107.901C101.417 108.009 101.395 108.117 101.395 108.225H103.31ZM107.886 110.086H107.279V109.627H107.265C107.148 109.798 106.987 109.931 106.78 110.025C106.578 110.119 106.369 110.167 106.153 110.167C105.906 110.167 105.681 110.124 105.479 110.038C105.281 109.953 105.11 109.834 104.966 109.681C104.827 109.528 104.719 109.351 104.642 109.148C104.566 108.946 104.528 108.726 104.528 108.488C104.528 108.249 104.566 108.029 104.642 107.827C104.719 107.62 104.827 107.442 104.966 107.294C105.11 107.141 105.281 107.022 105.479 106.937C105.681 106.851 105.906 106.809 106.153 106.809C106.382 106.809 106.598 106.858 106.8 106.957C107.002 107.051 107.157 107.182 107.265 107.348H107.279V104.988H107.886V110.086ZM106.227 109.6C106.389 109.6 106.535 109.573 106.665 109.519C106.796 109.461 106.906 109.384 106.996 109.29C107.086 109.191 107.155 109.074 107.205 108.939C107.254 108.8 107.279 108.649 107.279 108.488C107.279 108.326 107.254 108.177 107.205 108.043C107.155 107.903 107.086 107.786 106.996 107.692C106.906 107.593 106.796 107.517 106.665 107.463C106.535 107.404 106.389 107.375 106.227 107.375C106.065 107.375 105.919 107.404 105.789 107.463C105.658 107.517 105.548 107.593 105.458 107.692C105.368 107.786 105.299 107.903 105.249 108.043C105.2 108.177 105.175 108.326 105.175 108.488C105.175 108.649 105.2 108.8 105.249 108.939C105.299 109.074 105.368 109.191 105.458 109.29C105.548 109.384 105.658 109.461 105.789 109.519C105.919 109.573 106.065 109.6 106.227 109.6Z" fill="#0000FE"/>
</svg>
