<svg width="15" height="15" viewBox="0 0 15 15" fill="none" xmlns="http://www.w3.org/2000/svg">
<mask id="path-1-inside-1_5208_10030" fill="white">
<path d="M3.125 1.875H11.25C11.7473 1.875 12.2242 2.07254 12.5758 2.42417C12.9275 2.77581 13.125 3.25272 13.125 3.75V11.875C13.125 12.3723 12.9275 12.8492 12.5758 13.2008C12.2242 13.5525 11.7473 13.75 11.25 13.75H3.125C2.62772 13.75 2.15081 13.5525 1.79917 13.2008C1.44754 12.8492 1.25 12.3723 1.25 11.875V3.75C1.25 3.25272 1.44754 2.77581 1.79917 2.42417C2.15081 2.07254 2.62772 1.875 3.125 1.875ZM3.125 2.5C2.79348 2.5 2.47554 2.6317 2.24112 2.86612C2.0067 3.10054 1.875 3.41848 1.875 3.75V10.9938L4.55625 8.30625L6.11875 9.86875L9.24375 6.74375L12.5 10V3.75C12.5 3.41848 12.3683 3.10054 12.1339 2.86612C11.8995 2.6317 11.5815 2.5 11.25 2.5H3.125ZM6.11875 10.7562L4.55625 9.19375L1.875 11.875C1.875 12.2065 2.0067 12.5245 2.24112 12.7589C2.47554 12.9933 2.79348 13.125 3.125 13.125H11.25C11.5815 13.125 11.8995 12.9933 12.1339 12.7589C12.3683 12.5245 12.5 12.2065 12.5 11.875V10.8812L9.24375 7.63125L6.11875 10.7562ZM4.6875 3.75C5.1019 3.75 5.49933 3.91462 5.79235 4.20765C6.08538 4.50067 6.25 4.8981 6.25 5.3125C6.25 5.7269 6.08538 6.12433 5.79235 6.41735C5.49933 6.71038 5.1019 6.875 4.6875 6.875C4.2731 6.875 3.87567 6.71038 3.58265 6.41735C3.28962 6.12433 3.125 5.7269 3.125 5.3125C3.125 4.8981 3.28962 4.50067 3.58265 4.20765C3.87567 3.91462 4.2731 3.75 4.6875 3.75ZM4.6875 4.375C4.43886 4.375 4.2004 4.47377 4.02459 4.64959C3.84877 4.8254 3.75 5.06386 3.75 5.3125C3.75 5.56114 3.84877 5.7996 4.02459 5.97541C4.2004 6.15123 4.43886 6.25 4.6875 6.25C4.93614 6.25 5.1746 6.15123 5.35041 5.97541C5.52623 5.7996 5.625 5.56114 5.625 5.3125C5.625 5.06386 5.52623 4.8254 5.35041 4.64959C5.1746 4.47377 4.93614 4.375 4.6875 4.375Z"/>
</mask>
<path d="M3.125 1.875H11.25C11.7473 1.875 12.2242 2.07254 12.5758 2.42417C12.9275 2.77581 13.125 3.25272 13.125 3.75V11.875C13.125 12.3723 12.9275 12.8492 12.5758 13.2008C12.2242 13.5525 11.7473 13.75 11.25 13.75H3.125C2.62772 13.75 2.15081 13.5525 1.79917 13.2008C1.44754 12.8492 1.25 12.3723 1.25 11.875V3.75C1.25 3.25272 1.44754 2.77581 1.79917 2.42417C2.15081 2.07254 2.62772 1.875 3.125 1.875ZM3.125 2.5C2.79348 2.5 2.47554 2.6317 2.24112 2.86612C2.0067 3.10054 1.875 3.41848 1.875 3.75V10.9938L4.55625 8.30625L6.11875 9.86875L9.24375 6.74375L12.5 10V3.75C12.5 3.41848 12.3683 3.10054 12.1339 2.86612C11.8995 2.6317 11.5815 2.5 11.25 2.5H3.125ZM6.11875 10.7562L4.55625 9.19375L1.875 11.875C1.875 12.2065 2.0067 12.5245 2.24112 12.7589C2.47554 12.9933 2.79348 13.125 3.125 13.125H11.25C11.5815 13.125 11.8995 12.9933 12.1339 12.7589C12.3683 12.5245 12.5 12.2065 12.5 11.875V10.8812L9.24375 7.63125L6.11875 10.7562ZM4.6875 3.75C5.1019 3.75 5.49933 3.91462 5.79235 4.20765C6.08538 4.50067 6.25 4.8981 6.25 5.3125C6.25 5.7269 6.08538 6.12433 5.79235 6.41735C5.49933 6.71038 5.1019 6.875 4.6875 6.875C4.2731 6.875 3.87567 6.71038 3.58265 6.41735C3.28962 6.12433 3.125 5.7269 3.125 5.3125C3.125 4.8981 3.28962 4.50067 3.58265 4.20765C3.87567 3.91462 4.2731 3.75 4.6875 3.75ZM4.6875 4.375C4.43886 4.375 4.2004 4.47377 4.02459 4.64959C3.84877 4.8254 3.75 5.06386 3.75 5.3125C3.75 5.56114 3.84877 5.7996 4.02459 5.97541C4.2004 6.15123 4.43886 6.25 4.6875 6.25C4.93614 6.25 5.1746 6.15123 5.35041 5.97541C5.52623 5.7996 5.625 5.56114 5.625 5.3125C5.625 5.06386 5.52623 4.8254 5.35041 4.64959C5.1746 4.47377 4.93614 4.375 4.6875 4.375Z" fill="#495057"/>
<path d="M3.125 1.875L3.125 0.875L3.125 1.875ZM13.125 3.75L14.125 3.75L13.125 3.75ZM13.125 11.875H14.125H13.125ZM11.25 13.75L11.25 14.75L11.25 13.75ZM3.125 13.75V14.75V13.75ZM1.25 11.875L0.25 11.875L1.25 11.875ZM1.25 3.75H0.25H1.25ZM3.125 2.5L3.125 1.5L3.125 2.5ZM1.875 3.75H0.875H1.875ZM1.875 10.9938H0.875V13.4119L2.58293 11.7L1.875 10.9938ZM4.55625 8.30625L5.26336 7.59914L4.55543 6.89121L3.84832 7.59997L4.55625 8.30625ZM6.11875 9.86875L5.41164 10.5759L6.11875 11.283L6.82586 10.5759L6.11875 9.86875ZM9.24375 6.74375L9.95086 6.03664L9.24375 5.32954L8.53664 6.03664L9.24375 6.74375ZM12.5 10L11.7929 10.7071L13.5 12.4142V10H12.5ZM11.25 2.5V1.5V2.5ZM6.11875 10.7562L5.41164 11.4634L6.11875 12.1705L6.82586 11.4634L6.11875 10.7562ZM4.55625 9.19375L5.26336 8.48664L4.55625 7.77954L3.84914 8.48664L4.55625 9.19375ZM1.875 11.875L1.16789 11.1679L0.875 11.4608L0.875 11.875H1.875ZM12.5 10.8812H13.5V10.4665L13.2064 10.1735L12.5 10.8812ZM9.24375 7.63125L9.95018 6.92346L9.24307 6.21772L8.53664 6.92414L9.24375 7.63125ZM4.6875 3.75V2.75V3.75ZM3.125 5.3125L2.125 5.3125L3.125 5.3125ZM4.6875 6.25L4.6875 7.25L4.6875 6.25ZM5.625 5.3125L6.625 5.3125L5.625 5.3125ZM3.125 1.875V2.875H11.25V1.875V0.875H3.125V1.875ZM11.25 1.875V2.875C11.4821 2.875 11.7046 2.96719 11.8687 3.13128L12.5758 2.42417L13.2829 1.71707C12.7438 1.1779 12.0125 0.875 11.25 0.875V1.875ZM12.5758 2.42417L11.8687 3.13128C12.0328 3.29538 12.125 3.51794 12.125 3.75L13.125 3.75L14.125 3.75C14.125 2.9875 13.8221 2.25624 13.2829 1.71707L12.5758 2.42417ZM13.125 3.75H12.125V11.875H13.125H14.125V3.75H13.125ZM13.125 11.875L12.125 11.875C12.125 12.1071 12.0328 12.3296 11.8687 12.4937L12.5758 13.2008L13.2829 13.9079C13.8221 13.3688 14.125 12.6375 14.125 11.875L13.125 11.875ZM12.5758 13.2008L11.8687 12.4937C11.7046 12.6578 11.4821 12.75 11.25 12.75L11.25 13.75L11.25 14.75C12.0125 14.75 12.7438 14.4471 13.2829 13.9079L12.5758 13.2008ZM11.25 13.75V12.75H3.125V13.75V14.75H11.25V13.75ZM3.125 13.75L3.125 12.75C2.89294 12.75 2.67038 12.6578 2.50628 12.4937L1.79917 13.2008L1.09207 13.9079C1.63124 14.4471 2.3625 14.75 3.125 14.75L3.125 13.75ZM1.79917 13.2008L2.50628 12.4937C2.34219 12.3296 2.25 12.1071 2.25 11.875L1.25 11.875L0.25 11.875C0.25 12.6375 0.552901 13.3688 1.09207 13.9079L1.79917 13.2008ZM1.25 11.875H2.25V3.75H1.25H0.25V11.875H1.25ZM1.25 3.75L2.25 3.75C2.25 3.51794 2.34219 3.29538 2.50628 3.13128L1.79917 2.42417L1.09207 1.71707C0.552901 2.25624 0.25 2.9875 0.25 3.75L1.25 3.75ZM1.79917 2.42417L2.50628 3.13128C2.67038 2.96719 2.89294 2.875 3.125 2.875L3.125 1.875L3.125 0.875C2.3625 0.875 1.63124 1.1779 1.09207 1.71707L1.79917 2.42417ZM3.125 2.5L3.125 1.5C2.52826 1.5 1.95597 1.73705 1.53401 2.15901L2.24112 2.86612L2.94822 3.57322C2.99511 3.52634 3.0587 3.5 3.125 3.5L3.125 2.5ZM2.24112 2.86612L1.53401 2.15901C1.11205 2.58097 0.875 3.15326 0.875 3.75L1.875 3.75L2.875 3.75C2.875 3.6837 2.90134 3.62011 2.94822 3.57322L2.24112 2.86612ZM1.875 3.75H0.875V10.9938H1.875H2.875V3.75H1.875ZM1.875 10.9938L2.58293 11.7L5.26418 9.01253L4.55625 8.30625L3.84832 7.59997L1.16707 10.2875L1.875 10.9938ZM4.55625 8.30625L3.84914 9.01336L5.41164 10.5759L6.11875 9.86875L6.82586 9.16164L5.26336 7.59914L4.55625 8.30625ZM6.11875 9.86875L6.82586 10.5759L9.95086 7.45086L9.24375 6.74375L8.53664 6.03664L5.41164 9.16164L6.11875 9.86875ZM9.24375 6.74375L8.53664 7.45086L11.7929 10.7071L12.5 10L13.2071 9.29289L9.95086 6.03664L9.24375 6.74375ZM12.5 10H13.5V3.75H12.5H11.5V10H12.5ZM12.5 3.75H13.5C13.5 3.15326 13.2629 2.58097 12.841 2.15901L12.1339 2.86612L11.4268 3.57322C11.4737 3.62011 11.5 3.6837 11.5 3.75H12.5ZM12.1339 2.86612L12.841 2.15901C12.419 1.73705 11.8467 1.5 11.25 1.5L11.25 2.5L11.25 3.5C11.3163 3.5 11.3799 3.52634 11.4268 3.57322L12.1339 2.86612ZM11.25 2.5V1.5H3.125V2.5V3.5H11.25V2.5ZM6.11875 10.7562L6.82586 10.0491L5.26336 8.48664L4.55625 9.19375L3.84914 9.90086L5.41164 11.4634L6.11875 10.7562ZM4.55625 9.19375L3.84914 8.48664L1.16789 11.1679L1.875 11.875L2.58211 12.5821L5.26336 9.90086L4.55625 9.19375ZM1.875 11.875H0.875C0.875 12.4717 1.11205 13.044 1.53401 13.466L2.24112 12.7589L2.94822 12.0518C2.90134 12.0049 2.875 11.9413 2.875 11.875H1.875ZM2.24112 12.7589L1.53401 13.466C1.95597 13.8879 2.52826 14.125 3.125 14.125V13.125V12.125C3.0587 12.125 2.99511 12.0987 2.94822 12.0518L2.24112 12.7589ZM3.125 13.125V14.125H11.25V13.125V12.125H3.125V13.125ZM11.25 13.125V14.125C11.8467 14.125 12.419 13.8879 12.841 13.466L12.1339 12.7589L11.4268 12.0518C11.3799 12.0987 11.3163 12.125 11.25 12.125V13.125ZM12.1339 12.7589L12.841 13.466C13.2629 13.044 13.5 12.4717 13.5 11.875H12.5H11.5C11.5 11.9413 11.4737 12.0049 11.4268 12.0518L12.1339 12.7589ZM12.5 11.875H13.5V10.8812H12.5H11.5V11.875H12.5ZM12.5 10.8812L13.2064 10.1735L9.95018 6.92346L9.24375 7.63125L8.53732 8.33904L11.7936 11.589L12.5 10.8812ZM9.24375 7.63125L8.53664 6.92414L5.41164 10.0491L6.11875 10.7562L6.82586 11.4634L9.95086 8.33836L9.24375 7.63125ZM4.6875 3.75L4.6875 4.75C4.83668 4.75 4.97976 4.80926 5.08525 4.91475L5.79235 4.20765L6.49946 3.50054C6.0189 3.01998 5.36712 2.75 4.6875 2.75L4.6875 3.75ZM5.79235 4.20765L5.08525 4.91475C5.19074 5.02024 5.25 5.16332 5.25 5.3125H6.25H7.25C7.25 4.63288 6.98002 3.9811 6.49946 3.50054L5.79235 4.20765ZM6.25 5.3125H5.25C5.25 5.46168 5.19074 5.60476 5.08525 5.71025L5.79235 6.41735L6.49946 7.12446C6.98002 6.6439 7.25 5.99212 7.25 5.3125H6.25ZM5.79235 6.41735L5.08525 5.71025C4.97976 5.81574 4.83668 5.875 4.6875 5.875V6.875V7.875C5.36712 7.875 6.0189 7.60502 6.49946 7.12446L5.79235 6.41735ZM4.6875 6.875V5.875C4.53832 5.875 4.39524 5.81574 4.28975 5.71025L3.58265 6.41735L2.87554 7.12446C3.3561 7.60502 4.00788 7.875 4.6875 7.875V6.875ZM3.58265 6.41735L4.28975 5.71025C4.18426 5.60476 4.125 5.46168 4.125 5.3125L3.125 5.3125L2.125 5.3125C2.125 5.99212 2.39498 6.6439 2.87554 7.12446L3.58265 6.41735ZM3.125 5.3125L4.125 5.3125C4.125 5.16332 4.18426 5.02024 4.28975 4.91475L3.58265 4.20765L2.87554 3.50054C2.39498 3.9811 2.125 4.63288 2.125 5.3125L3.125 5.3125ZM3.58265 4.20765L4.28975 4.91475C4.39524 4.80926 4.53832 4.75 4.6875 4.75V3.75V2.75C4.00788 2.75 3.3561 3.01998 2.87554 3.50054L3.58265 4.20765ZM4.6875 4.375V3.375C4.17364 3.375 3.68083 3.57913 3.31748 3.94248L4.02459 4.64959L4.73169 5.35669C4.71997 5.36842 4.70408 5.375 4.6875 5.375V4.375ZM4.02459 4.64959L3.31748 3.94248C2.95413 4.30583 2.75 4.79864 2.75 5.3125H3.75H4.75C4.75 5.32908 4.74342 5.34497 4.73169 5.35669L4.02459 4.64959ZM3.75 5.3125H2.75C2.75 5.82636 2.95413 6.31917 3.31748 6.68252L4.02459 5.97541L4.73169 5.26831C4.74342 5.28003 4.75 5.29592 4.75 5.3125H3.75ZM4.02459 5.97541L3.31748 6.68252C3.68083 7.04587 4.17364 7.25 4.6875 7.25L4.6875 6.25L4.6875 5.25C4.70408 5.25 4.71997 5.25658 4.73169 5.26831L4.02459 5.97541ZM4.6875 6.25L4.6875 7.25C5.20136 7.25 5.69417 7.04587 6.05752 6.68252L5.35041 5.97541L4.64331 5.26831C4.65503 5.25658 4.67092 5.25 4.6875 5.25L4.6875 6.25ZM5.35041 5.97541L6.05752 6.68252C6.42087 6.31917 6.625 5.82636 6.625 5.3125L5.625 5.3125L4.625 5.3125C4.625 5.29592 4.63158 5.28003 4.64331 5.26831L5.35041 5.97541ZM5.625 5.3125L6.625 5.3125C6.625 4.79864 6.42087 4.30583 6.05752 3.94248L5.35041 4.64959L4.64331 5.35669C4.63158 5.34497 4.625 5.32908 4.625 5.3125L5.625 5.3125ZM5.35041 4.64959L6.05752 3.94248C5.69417 3.57913 5.20136 3.375 4.6875 3.375V4.375V5.375C4.67092 5.375 4.65503 5.36842 4.64331 5.35669L5.35041 4.64959Z" fill="#495057" mask="url(#path-1-inside-1_5208_10030)"/>
</svg>
