<svg width="201" height="85" viewBox="0 0 201 85" fill="none" xmlns="http://www.w3.org/2000/svg">
<path d="M44.728 12.0319C46.1534 14.9838 47.5789 17.9357 49.1278 21.1458C47.9381 20.955 46.9616 20.8091 45.8953 20.6407C45.8504 21.0111 45.7718 21.3479 45.7943 21.6846C46.2881 33.5148 42.5505 44.0429 35.9171 53.6171C27.2409 66.1544 15.7362 74.9316 1.09996 79.4213C0.808135 79.5111 0.505084 79.5672 0 79.3764C0.505084 78.9274 1.02139 78.5009 1.50403 78.0407C7.46402 72.4736 11.9312 65.8626 15.3882 58.4996C15.8596 57.5006 16.8137 56.5017 17.7902 55.9966C32.2692 48.5887 40.9791 36.9493 43.6392 20.854C43.976 18.7888 44.0658 16.6786 44.2678 14.591C44.3464 13.7604 44.4137 12.9298 44.481 12.0992C44.5596 12.0768 44.6382 12.0655 44.7168 12.0431L44.728 12.0319Z" fill="white"/>
<path d="M38.8651 32.0226C34.1847 41.2712 27.0012 47.7587 17.7189 52.1025C17.8424 50.3403 18.0444 48.7128 18.0332 47.0853C18.022 43.8303 16.1139 42.6742 13.1732 44.0773C9.81716 45.6711 7.75193 48.4771 6.09077 51.676C5.94485 51.9566 5.82139 52.2372 5.67548 52.5065C5.66425 52.5402 5.59691 52.5402 5.13672 52.731C5.7316 50.2617 6.07954 47.9832 6.84278 45.8507C9.89573 37.3428 17.9322 32.6511 26.8441 34.0429C31.0644 34.7051 35.1163 34.5031 38.8651 32.0226Z" fill="white"/>
<path d="M17.0394 24.0646C17.8924 25.7482 18.5659 27.0726 19.3067 28.5093C18.9138 28.7114 18.5883 28.8797 18.1281 29.1266C17.8139 28.0716 17.5333 27.14 17.2639 26.2084C16.7364 24.3227 16.366 24.0421 14.2109 24.1432C14.8283 23.4248 15.2884 22.8187 15.8272 22.2687C18.6444 19.3954 21.428 16.4883 24.3238 13.7048C24.9299 13.1211 25.9401 12.6946 26.7707 12.6721C31.1481 12.5711 35.5143 12.6272 39.8916 12.6272C40.2396 12.6272 40.5763 12.6609 41.2722 12.6834C39.51 14.2884 38.006 15.7251 36.4346 17.0608C36.2101 17.2516 35.5928 17.0944 35.2112 16.971C34.0551 16.5893 32.9103 16.1516 31.7654 15.7363C31.6981 15.871 31.6307 16.0057 31.5634 16.1404C31.9674 16.3761 32.3491 16.6567 32.7756 16.8475C35.7949 18.2281 37.3887 20.8882 37.1754 24.2778C37.0071 27.039 34.9081 29.5419 31.9899 30.4623C28.3757 31.6072 24.3463 29.5868 23.2239 25.8829C22.7861 24.4238 22.0453 23.9411 20.6311 24.0421C19.5424 24.1207 18.4536 24.0534 17.0506 24.0534L17.0394 24.0646Z" fill="white"/>
<path d="M31.0793 62.5746C25.7928 72.0253 18.5869 79.5791 9.125 85.0003C9.63008 84.0575 10.2137 83.1371 10.629 82.1494C12.1892 78.5128 14.6697 75.8639 18.1267 73.8099C22.8184 71.0263 26.8254 67.2775 30.462 63.1695C30.6528 62.9562 30.8773 62.7654 31.0793 62.5634V62.5746Z" fill="white"/>
<path d="M40.2698 9.25987C39.2821 6.83547 37.8903 5.35389 35.5781 4.55698C37.7668 3.62538 39.3943 2.39073 40.2249 0C41.1116 2.22237 42.4697 3.67028 44.7819 4.45596C42.6493 5.51103 41.033 6.79057 40.2698 9.24865V9.25987Z" fill="white"/>
<path d="M77.3417 22.6189C76.9136 22.0624 76.3712 21.6342 75.7148 21.3345C75.0583 21.0348 74.3804 20.885 73.6811 20.885C72.8248 20.885 72.047 21.0491 71.3477 21.3773C70.6626 21.6913 70.0704 22.1266 69.5709 22.6832C69.0856 23.2398 68.7074 23.8962 68.4363 24.6526C68.1651 25.3948 68.0295 26.194 68.0295 27.0503C68.0295 27.8495 68.158 28.6059 68.4149 29.3194C68.6718 30.033 69.0428 30.661 69.528 31.2033C70.0133 31.7456 70.6055 32.1737 71.3048 32.4877C72.0042 32.8017 72.7962 32.9587 73.6811 32.9587C74.5516 32.9587 75.3152 32.7803 75.9716 32.4235C76.6281 32.0667 77.1847 31.5672 77.6414 30.925L79.3754 32.2308C79.2612 32.3878 79.0614 32.6162 78.776 32.9159C78.4906 33.2013 78.1124 33.4939 77.6414 33.7936C77.1705 34.079 76.5996 34.3287 75.9288 34.5428C75.2723 34.7712 74.5088 34.8853 73.6382 34.8853C72.4394 34.8853 71.3548 34.657 70.3843 34.2003C69.4281 33.7436 68.6075 33.1442 67.9225 32.4021C67.2517 31.66 66.738 30.8251 66.3812 29.8974C66.0244 28.9555 65.846 28.0065 65.846 27.0503C65.846 25.88 66.0387 24.8025 66.424 23.8178C66.8093 22.8187 67.3445 21.9625 68.0295 21.2489C68.7288 20.521 69.5637 19.9573 70.5342 19.5577C71.5047 19.1581 72.575 18.9583 73.7453 18.9583C74.7443 18.9583 75.7219 19.151 76.6781 19.5363C77.6485 19.9216 78.4406 20.5139 79.0543 21.3131L77.3417 22.6189ZM81.4113 25.5946C81.9536 25.0951 82.5815 24.724 83.2951 24.4814C84.0087 24.2245 84.7223 24.0961 85.4358 24.0961C86.178 24.0961 86.813 24.1888 87.3411 24.3743C87.8834 24.5599 88.3258 24.8096 88.6683 25.1236C89.0109 25.4376 89.2606 25.8015 89.4176 26.2154C89.5889 26.615 89.6745 27.036 89.6745 27.4784V32.659C89.6745 33.0158 89.6816 33.344 89.6959 33.6437C89.7102 33.9434 89.7316 34.2288 89.7601 34.5H88.0475C88.0047 33.9862 87.9833 33.4724 87.9833 32.9587H87.9405C87.5124 33.6152 87.0057 34.079 86.4206 34.3501C85.8354 34.6213 85.1575 34.7569 84.3869 34.7569C83.9159 34.7569 83.4664 34.6927 83.0382 34.5642C82.6101 34.4358 82.2319 34.2431 81.9036 33.9862C81.5897 33.7293 81.3399 33.4154 81.1544 33.0443C80.9689 32.659 80.8761 32.2166 80.8761 31.7171C80.8761 31.0606 81.0188 30.5111 81.3042 30.0687C81.6039 29.6263 82.0035 29.2695 82.503 28.9983C83.0168 28.7129 83.6091 28.5131 84.2798 28.3989C84.9649 28.2705 85.6927 28.2063 86.4634 28.2063H87.8763V27.7781C87.8763 27.5212 87.8263 27.2643 87.7264 27.0074C87.6265 26.7506 87.4767 26.5222 87.2769 26.3224C87.0771 26.1083 86.8273 25.9442 86.5276 25.83C86.2279 25.7016 85.8711 25.6374 85.4573 25.6374C85.0862 25.6374 84.7579 25.6731 84.4725 25.7444C84.2014 25.8158 83.9516 25.9085 83.7233 26.0227C83.4949 26.1226 83.288 26.2439 83.1024 26.3866C82.9169 26.5293 82.7385 26.6649 82.5673 26.7934L81.4113 25.5946ZM86.8487 29.6191C86.392 29.6191 85.9211 29.6477 85.4358 29.7048C84.9649 29.7476 84.5296 29.8403 84.13 29.9831C83.7447 30.1258 83.4236 30.3256 83.1667 30.5825C82.9241 30.8394 82.8027 31.1676 82.8027 31.5672C82.8027 32.1523 82.9954 32.5733 83.3807 32.8302C83.7803 33.0871 84.3155 33.2156 84.9863 33.2156C85.5143 33.2156 85.9639 33.1299 86.3349 32.9587C86.706 32.7731 87.0057 32.5377 87.2341 32.2522C87.4624 31.9668 87.6265 31.6528 87.7264 31.3103C87.8263 30.9535 87.8763 30.6039 87.8763 30.2614V29.6191H86.8487ZM92.4693 24.3529H94.396V25.8086H94.4388C94.8098 25.2663 95.3165 24.8453 95.9587 24.5456C96.6152 24.2459 97.286 24.0961 97.971 24.0961C98.7559 24.0961 99.4624 24.2316 100.09 24.5028C100.733 24.7739 101.275 25.1521 101.717 25.6374C102.174 26.1226 102.524 26.6935 102.766 27.35C103.009 27.9922 103.13 28.6843 103.13 29.4265C103.13 30.1829 103.009 30.8893 102.766 31.5458C102.524 32.188 102.174 32.7517 101.717 33.237C101.275 33.7079 100.733 34.079 100.09 34.3501C99.4624 34.6213 98.7559 34.7569 97.971 34.7569C97.2431 34.7569 96.5581 34.607 95.9159 34.3073C95.2737 33.9934 94.7813 33.5724 94.4388 33.0443H94.396V40.5369H92.4693V24.3529ZM97.7355 25.8943C97.2217 25.8943 96.7579 25.987 96.344 26.1726C95.9302 26.3438 95.5805 26.5864 95.2951 26.9004C95.0096 27.2001 94.7884 27.5712 94.6314 28.0136C94.4745 28.4417 94.396 28.9127 94.396 29.4265C94.396 29.9402 94.4745 30.4183 94.6314 30.8608C94.7884 31.2889 95.0096 31.66 95.2951 31.9739C95.5805 32.2736 95.9302 32.5163 96.344 32.7018C96.7579 32.873 97.2217 32.9587 97.7355 32.9587C98.2493 32.9587 98.7131 32.873 99.127 32.7018C99.5409 32.5163 99.8905 32.2736 100.176 31.9739C100.461 31.66 100.683 31.2889 100.84 30.8608C100.997 30.4183 101.075 29.9402 101.075 29.4265C101.075 28.9127 100.997 28.4417 100.84 28.0136C100.683 27.5712 100.461 27.2001 100.176 26.9004C99.8905 26.5864 99.5409 26.3438 99.127 26.1726C98.7131 25.987 98.2493 25.8943 97.7355 25.8943ZM110.951 26.9004C110.722 26.615 110.437 26.3795 110.095 26.194C109.766 25.9942 109.36 25.8943 108.874 25.8943C108.418 25.8943 108.018 25.9942 107.676 26.194C107.347 26.3795 107.183 26.6578 107.183 27.0289C107.183 27.3286 107.276 27.5712 107.461 27.7567C107.661 27.9422 107.89 28.0921 108.146 28.2063C108.418 28.3204 108.703 28.4061 109.003 28.4631C109.302 28.5202 109.559 28.5702 109.773 28.613C110.187 28.7129 110.573 28.8342 110.929 28.9769C111.3 29.1196 111.614 29.3052 111.871 29.5335C112.143 29.7619 112.349 30.0401 112.492 30.3684C112.649 30.6966 112.728 31.0962 112.728 31.5672C112.728 32.1381 112.606 32.6304 112.364 33.0443C112.121 33.4439 111.807 33.7722 111.422 34.029C111.036 34.2859 110.594 34.4715 110.095 34.5856C109.609 34.6998 109.117 34.7569 108.617 34.7569C107.775 34.7569 107.033 34.6284 106.391 34.3716C105.763 34.1147 105.199 33.6437 104.7 32.9587L106.156 31.7599C106.47 32.0738 106.819 32.3521 107.205 32.5948C107.59 32.8374 108.061 32.9587 108.617 32.9587C108.86 32.9587 109.103 32.9373 109.345 32.8945C109.602 32.8374 109.823 32.7589 110.009 32.659C110.209 32.5448 110.366 32.4092 110.48 32.2522C110.608 32.081 110.673 31.8883 110.673 31.6742C110.673 31.3888 110.58 31.1533 110.394 30.9678C110.223 30.7823 110.009 30.6395 109.752 30.5396C109.509 30.4255 109.245 30.3398 108.96 30.2828C108.689 30.2114 108.446 30.1543 108.232 30.1115C107.818 30.0116 107.426 29.8974 107.055 29.769C106.684 29.6405 106.355 29.4693 106.07 29.2552C105.785 29.0411 105.556 28.77 105.385 28.4417C105.214 28.1135 105.128 27.7067 105.128 27.2215C105.128 26.6935 105.235 26.2368 105.449 25.8514C105.678 25.4518 105.97 25.1236 106.327 24.8667C106.698 24.6098 107.112 24.4172 107.568 24.2887C108.039 24.1603 108.51 24.0961 108.981 24.0961C109.666 24.0961 110.323 24.2245 110.951 24.4814C111.579 24.7383 112.078 25.1664 112.449 25.7658L110.951 26.9004ZM120.506 26.0227H117.744V30.6253C117.744 30.9107 117.751 31.1961 117.766 31.4816C117.78 31.7527 117.83 32.0025 117.915 32.2308C118.015 32.4449 118.158 32.6233 118.344 32.766C118.543 32.8945 118.829 32.9587 119.2 32.9587C119.428 32.9587 119.664 32.9373 119.906 32.8945C120.149 32.8516 120.37 32.7731 120.57 32.659V34.4144C120.342 34.5428 120.042 34.6284 119.671 34.6713C119.314 34.7283 119.036 34.7569 118.836 34.7569C118.094 34.7569 117.516 34.657 117.102 34.4572C116.702 34.2431 116.403 33.972 116.203 33.6437C116.017 33.3155 115.903 32.9515 115.86 32.5519C115.832 32.1381 115.817 31.7242 115.817 31.3103V26.0227H113.591V24.3529H115.817V21.5058H117.744V24.3529H120.506V26.0227ZM124.554 29.4265C124.554 29.9402 124.633 30.4183 124.79 30.8608C124.947 31.2889 125.168 31.66 125.453 31.9739C125.739 32.2736 126.088 32.5163 126.502 32.7018C126.916 32.873 127.38 32.9587 127.894 32.9587C128.407 32.9587 128.871 32.873 129.285 32.7018C129.699 32.5163 130.049 32.2736 130.334 31.9739C130.62 31.66 130.841 31.2889 130.998 30.8608C131.155 30.4183 131.233 29.9402 131.233 29.4265C131.233 28.9127 131.155 28.4417 130.998 28.0136C130.841 27.5712 130.62 27.2001 130.334 26.9004C130.049 26.5864 129.699 26.3438 129.285 26.1726C128.871 25.987 128.407 25.8943 127.894 25.8943C127.38 25.8943 126.916 25.987 126.502 26.1726C126.088 26.3438 125.739 26.5864 125.453 26.9004C125.168 27.2001 124.947 27.5712 124.79 28.0136C124.633 28.4417 124.554 28.9127 124.554 29.4265ZM122.499 29.4265C122.499 28.6843 122.635 27.9922 122.906 27.35C123.191 26.7077 123.577 26.144 124.062 25.6588C124.547 25.1736 125.118 24.7954 125.774 24.5242C126.431 24.2388 127.137 24.0961 127.894 24.0961C128.65 24.0961 129.357 24.2388 130.013 24.5242C130.67 24.7954 131.24 25.1736 131.726 25.6588C132.211 26.144 132.589 26.7077 132.86 27.35C133.146 27.9922 133.288 28.6843 133.288 29.4265C133.288 30.1686 133.146 30.8679 132.86 31.5244C132.589 32.1666 132.211 32.7303 131.726 33.2156C131.24 33.6865 130.67 34.0647 130.013 34.3501C129.357 34.6213 128.65 34.7569 127.894 34.7569C127.137 34.7569 126.431 34.6213 125.774 34.3501C125.118 34.0647 124.547 33.6865 124.062 33.2156C123.577 32.7303 123.191 32.1666 122.906 31.5244C122.635 30.8679 122.499 30.1686 122.499 29.4265ZM135.702 24.3529H137.629V25.9157H137.671C137.914 25.3734 138.335 24.9381 138.935 24.6098C139.534 24.2673 140.226 24.0961 141.011 24.0961C141.496 24.0961 141.96 24.1745 142.403 24.3315C142.859 24.4742 143.252 24.7026 143.58 25.0166C143.922 25.3305 144.194 25.7373 144.393 26.2368C144.593 26.722 144.693 27.3 144.693 27.9708V34.5H142.766V28.506C142.766 28.035 142.702 27.6354 142.574 27.3071C142.445 26.9646 142.274 26.6935 142.06 26.4937C141.846 26.2796 141.596 26.1297 141.311 26.0441C141.04 25.9442 140.754 25.8943 140.454 25.8943C140.055 25.8943 139.684 25.9585 139.341 26.0869C138.999 26.2154 138.699 26.4223 138.442 26.7077C138.185 26.9789 137.985 27.3286 137.843 27.7567C137.7 28.1848 137.629 28.6915 137.629 29.2766V34.5H135.702V24.3529ZM149.053 30.1329C149.053 30.5753 149.146 30.9821 149.331 31.3531C149.531 31.7099 149.788 32.0168 150.102 32.2736C150.416 32.5305 150.78 32.7303 151.194 32.873C151.608 33.0158 152.036 33.0871 152.478 33.0871C153.078 33.0871 153.598 32.9515 154.041 32.6804C154.483 32.3949 154.89 32.0239 155.261 31.5672L156.717 32.6804C155.646 34.0647 154.148 34.7569 152.221 34.7569C151.422 34.7569 150.694 34.6213 150.038 34.3501C149.396 34.079 148.846 33.7079 148.389 33.237C147.947 32.7517 147.604 32.188 147.362 31.5458C147.119 30.8893 146.998 30.1829 146.998 29.4265C146.998 28.6701 147.126 27.9708 147.383 27.3286C147.654 26.6721 148.018 26.1083 148.475 25.6374C148.946 25.1521 149.503 24.7739 150.145 24.5028C150.787 24.2316 151.486 24.0961 152.243 24.0961C153.142 24.0961 153.898 24.253 154.512 24.567C155.14 24.881 155.654 25.2949 156.053 25.8086C156.453 26.3081 156.738 26.879 156.909 27.5212C157.095 28.1492 157.188 28.7914 157.188 29.4479V30.1329H149.053ZM155.133 28.5916C155.118 28.1634 155.047 27.771 154.919 27.4142C154.804 27.0574 154.626 26.7506 154.383 26.4937C154.141 26.2225 153.834 26.0156 153.463 25.8729C153.106 25.7159 152.685 25.6374 152.2 25.6374C151.729 25.6374 151.294 25.7301 150.894 25.9157C150.509 26.0869 150.18 26.3153 149.909 26.6007C149.638 26.8861 149.424 27.2072 149.267 27.564C149.124 27.9066 149.053 28.2491 149.053 28.5916H155.133ZM73.8737 52.0471C73.6026 51.7046 73.2315 51.4548 72.7605 51.2978C72.3039 51.1266 71.8686 51.0409 71.4547 51.0409C71.2121 51.0409 70.9623 51.0695 70.7054 51.1266C70.4486 51.1837 70.2059 51.2764 69.9776 51.4049C69.7493 51.519 69.5637 51.676 69.421 51.8758C69.2783 52.0756 69.2069 52.3183 69.2069 52.6037C69.2069 53.0604 69.3782 53.41 69.7207 53.6526C70.0632 53.8953 70.4914 54.1022 71.0051 54.2735C71.5332 54.4447 72.0969 54.616 72.6963 54.7872C73.2957 54.9585 73.8523 55.2011 74.3661 55.5151C74.8941 55.829 75.3294 56.2501 75.6719 56.7781C76.0145 57.3062 76.1857 58.0126 76.1857 58.8974C76.1857 59.7395 76.0287 60.4744 75.7148 61.1024C75.4008 61.7303 74.9726 62.2512 74.4303 62.6651C73.9023 63.079 73.2815 63.3858 72.5679 63.5856C71.8686 63.7854 71.1265 63.8853 70.3415 63.8853C69.3568 63.8853 68.4434 63.7355 67.6014 63.4358C66.7594 63.1361 65.9744 62.6508 65.2466 61.9801L67.6228 59.3684C67.9653 59.8251 68.3935 60.1819 68.9072 60.4388C69.4353 60.6814 69.9776 60.8027 70.5342 60.8027C70.8053 60.8027 71.0765 60.7741 71.3477 60.7171C71.6331 60.6457 71.8828 60.5458 72.0969 60.4173C72.3253 60.2889 72.5037 60.1248 72.6321 59.925C72.7748 59.7252 72.8462 59.4897 72.8462 59.2185C72.8462 58.7619 72.6678 58.4051 72.311 58.1482C71.9685 57.877 71.5332 57.6487 71.0051 57.4631C70.4771 57.2776 69.9062 57.0921 69.2926 56.9066C68.6789 56.721 68.108 56.4713 67.58 56.1573C67.0519 55.8433 66.6095 55.4294 66.2527 54.9157C65.9102 54.4019 65.739 53.724 65.739 52.882C65.739 52.0685 65.8959 51.3549 66.2099 50.7412C66.5382 50.1276 66.9663 49.6138 67.4943 49.1999C68.0367 48.786 68.6575 48.4792 69.3568 48.2794C70.0561 48.0653 70.7768 47.9583 71.5189 47.9583C72.3752 47.9583 73.203 48.0796 74.0022 48.3222C74.8014 48.5648 75.5221 48.9716 76.1643 49.5424L73.8737 52.0471ZM85.3099 56.457C85.1529 56.2287 84.9317 56.0431 84.6463 55.9004C84.3609 55.7434 84.054 55.6649 83.7258 55.6649C82.9123 55.6649 82.2772 55.9075 81.8205 56.3928C81.3781 56.878 81.1569 57.5131 81.1569 58.298C81.1569 59.083 81.3781 59.718 81.8205 60.2033C82.2772 60.6885 82.9123 60.9311 83.7258 60.9311C84.0826 60.9311 84.3894 60.8526 84.6463 60.6956C84.9032 60.5387 85.1244 60.3531 85.3099 60.1391L87.4292 62.3654C86.9297 62.8792 86.3375 63.2431 85.6524 63.4572C84.9817 63.657 84.3394 63.7569 83.7258 63.7569C82.9266 63.7569 82.1702 63.6284 81.4566 63.3716C80.7573 63.1147 80.1436 62.7507 79.6156 62.2798C79.1018 61.7946 78.6951 61.2166 78.3953 60.5458C78.0956 59.875 77.9458 59.1258 77.9458 58.298C77.9458 57.4703 78.0956 56.721 78.3953 56.0503C78.6951 55.3795 79.1018 54.8086 79.6156 54.3377C80.1436 53.8524 80.7573 53.4814 81.4566 53.2245C82.1702 52.9676 82.9266 52.8392 83.7258 52.8392C84.3394 52.8392 84.9817 52.9462 85.6524 53.1603C86.3375 53.3601 86.9297 53.7169 87.4292 54.2306L85.3099 56.457ZM91.8054 47.3161V54.5089H91.8482C91.9195 54.3091 92.0408 54.1093 92.2121 53.9095C92.3834 53.7097 92.5903 53.5313 92.8329 53.3743C93.0755 53.2174 93.361 53.0889 93.6892 52.989C94.0174 52.8891 94.3742 52.8392 94.7596 52.8392C95.573 52.8392 96.2295 52.9676 96.729 53.2245C97.2285 53.4671 97.6139 53.8096 97.885 54.252C98.1705 54.6945 98.3631 55.2154 98.463 55.8148C98.5629 56.4142 98.6129 57.0635 98.6129 57.7628V63.5H95.4018V58.4051C95.4018 58.1054 95.3875 57.7985 95.359 57.4845C95.3447 57.1563 95.2805 56.8566 95.1663 56.5854C95.0664 56.3143 94.9023 56.0931 94.6739 55.9218C94.4599 55.7506 94.1459 55.6649 93.732 55.6649C93.3181 55.6649 92.9828 55.7434 92.7259 55.9004C92.469 56.0431 92.2692 56.2429 92.1265 56.4998C91.998 56.7424 91.9124 57.0207 91.8696 57.3347C91.8268 57.6487 91.8054 57.9769 91.8054 58.3194V63.5H88.5943V47.3161H91.8054ZM100.501 58.298C100.501 57.4703 100.651 56.721 100.951 56.0503C101.251 55.3795 101.657 54.8086 102.171 54.3377C102.699 53.8524 103.313 53.4814 104.012 53.2245C104.726 52.9676 105.482 52.8392 106.281 52.8392C107.081 52.8392 107.83 52.9676 108.529 53.2245C109.243 53.4814 109.856 53.8524 110.37 54.3377C110.898 54.8086 111.312 55.3795 111.612 56.0503C111.911 56.721 112.061 57.4703 112.061 58.298C112.061 59.1258 111.911 59.875 111.612 60.5458C111.312 61.2166 110.898 61.7946 110.37 62.2798C109.856 62.7507 109.243 63.1147 108.529 63.3716C107.83 63.6284 107.081 63.7569 106.281 63.7569C105.482 63.7569 104.726 63.6284 104.012 63.3716C103.313 63.1147 102.699 62.7507 102.171 62.2798C101.657 61.7946 101.251 61.2166 100.951 60.5458C100.651 59.875 100.501 59.1258 100.501 58.298ZM103.712 58.298C103.712 59.083 103.934 59.718 104.376 60.2033C104.833 60.6885 105.468 60.9311 106.281 60.9311C107.095 60.9311 107.723 60.6885 108.165 60.2033C108.622 59.718 108.85 59.083 108.85 58.298C108.85 57.5131 108.622 56.878 108.165 56.3928C107.723 55.9075 107.095 55.6649 106.281 55.6649C105.468 55.6649 104.833 55.9075 104.376 56.3928C103.934 56.878 103.712 57.5131 103.712 58.298ZM113.996 47.3161H117.207V63.5H113.996V47.3161ZM126.043 62.1942H126C125.643 62.7507 125.165 63.1503 124.566 63.393C123.981 63.6356 123.36 63.7569 122.703 63.7569C122.218 63.7569 121.747 63.6855 121.29 63.5428C120.848 63.4144 120.456 63.2146 120.113 62.9434C119.77 62.6723 119.499 62.3369 119.3 61.9373C119.1 61.5377 119 61.0738 119 60.5458C119 59.9464 119.107 59.4397 119.321 59.0259C119.549 58.612 119.849 58.2695 120.22 57.9983C120.605 57.7272 121.041 57.5202 121.526 57.3775C122.011 57.2205 122.511 57.1064 123.024 57.035C123.552 56.9636 124.073 56.9208 124.587 56.9066C125.115 56.8923 125.6 56.8851 126.043 56.8851C126.043 56.3143 125.836 55.8647 125.422 55.5365C125.022 55.194 124.544 55.0227 123.988 55.0227C123.46 55.0227 122.974 55.1369 122.532 55.3652C122.104 55.5793 121.719 55.879 121.376 56.2643L119.663 54.5089C120.263 53.9523 120.962 53.5385 121.761 53.2673C122.561 52.9819 123.388 52.8392 124.245 52.8392C125.187 52.8392 125.957 52.9605 126.557 53.2031C127.17 53.4314 127.656 53.7739 128.012 54.2306C128.383 54.6873 128.64 55.2511 128.783 55.9218C128.926 56.5783 128.997 57.3418 128.997 58.2124V63.5H126.043V62.1942ZM125.251 58.9402C125.008 58.9402 124.701 58.9545 124.33 58.9831C123.973 58.9973 123.624 59.0544 123.281 59.1543C122.953 59.2542 122.668 59.4041 122.425 59.6039C122.197 59.8037 122.082 60.082 122.082 60.4388C122.082 60.8241 122.247 61.1095 122.575 61.295C122.903 61.4806 123.246 61.5733 123.602 61.5733C123.916 61.5733 124.216 61.5305 124.501 61.4449C124.801 61.3593 125.065 61.238 125.294 61.081C125.522 60.924 125.7 60.7242 125.829 60.4816C125.971 60.239 126.043 59.9535 126.043 59.6253V58.9402H125.251ZM131.012 53.0961H134.223V54.7658H134.266C134.608 54.1236 135.015 53.6455 135.486 53.3315C135.957 53.0033 136.549 52.8392 137.263 52.8392C137.448 52.8392 137.634 52.8463 137.819 52.8606C138.005 52.8748 138.176 52.9034 138.333 52.9462V55.879C138.105 55.8076 137.876 55.7577 137.648 55.7291C137.434 55.6863 137.206 55.6649 136.963 55.6649C136.349 55.6649 135.864 55.7506 135.507 55.9218C135.15 56.0931 134.872 56.3357 134.672 56.6497C134.487 56.9494 134.365 57.3133 134.308 57.7414C134.251 58.1696 134.223 58.6405 134.223 59.1543V63.5H131.012V53.0961ZM145.616 56.1573C145.145 55.5722 144.525 55.2796 143.754 55.2796C143.483 55.2796 143.219 55.3438 142.962 55.4723C142.705 55.6007 142.576 55.8219 142.576 56.1359C142.576 56.3928 142.705 56.5854 142.962 56.7139C143.233 56.8281 143.568 56.9351 143.968 57.035C144.382 57.1206 144.817 57.2205 145.274 57.3347C145.745 57.4346 146.18 57.5987 146.58 57.8271C146.993 58.0554 147.329 58.3694 147.586 58.769C147.857 59.1543 147.993 59.6752 147.993 60.3317C147.993 61.0025 147.843 61.5591 147.543 62.0015C147.258 62.4296 146.886 62.7793 146.43 63.0504C145.973 63.3073 145.459 63.4857 144.888 63.5856C144.318 63.6998 143.754 63.7569 143.197 63.7569C142.469 63.7569 141.734 63.657 140.992 63.4572C140.25 63.2431 139.622 62.8721 139.108 62.344L141.057 60.1819C141.356 60.5529 141.684 60.8384 142.041 61.0382C142.412 61.2237 142.84 61.3165 143.326 61.3165C143.697 61.3165 144.032 61.2665 144.332 61.1666C144.632 61.0524 144.781 60.8526 144.781 60.5672C144.781 60.296 144.646 60.0962 144.375 59.9678C144.118 59.8251 143.782 59.7109 143.369 59.6253C142.969 59.5254 142.534 59.4255 142.063 59.3256C141.606 59.2114 141.171 59.0473 140.757 58.8332C140.357 58.6191 140.022 58.3194 139.751 57.9341C139.494 57.5345 139.365 57.0065 139.365 56.35C139.365 55.7363 139.487 55.2082 139.729 54.7658C139.986 54.3234 140.314 53.9595 140.714 53.674C141.128 53.3886 141.599 53.1817 142.127 53.0532C142.655 52.9105 143.19 52.8392 143.732 52.8392C144.417 52.8392 145.11 52.9391 145.809 53.1389C146.508 53.3387 147.101 53.6955 147.586 54.2092L145.616 56.1573ZM152.85 47.3161V54.5089H152.892C152.964 54.3091 153.085 54.1093 153.256 53.9095C153.428 53.7097 153.635 53.5313 153.877 53.3743C154.12 53.2174 154.405 53.0889 154.733 52.989C155.062 52.8891 155.418 52.8392 155.804 52.8392C156.617 52.8392 157.274 52.9676 157.773 53.2245C158.273 53.4671 158.658 53.8096 158.929 54.252C159.215 54.6945 159.407 55.2154 159.507 55.8148C159.607 56.4142 159.657 57.0635 159.657 57.7628V63.5H156.446V58.4051C156.446 58.1054 156.432 57.7985 156.403 57.4845C156.389 57.1563 156.325 56.8566 156.211 56.5854C156.111 56.3143 155.947 56.0931 155.718 55.9218C155.504 55.7506 155.19 55.6649 154.776 55.6649C154.362 55.6649 154.027 55.7434 153.77 55.9004C153.513 56.0431 153.313 56.2429 153.171 56.4998C153.042 56.7424 152.957 57.0207 152.914 57.3347C152.871 57.6487 152.85 57.9769 152.85 58.3194V63.5H149.639V47.3161H152.85ZM161.974 53.0961H165.185V63.5H161.974V53.0961ZM161.717 49.8207C161.717 49.307 161.895 48.8717 162.252 48.5149C162.623 48.1438 163.066 47.9583 163.579 47.9583C164.093 47.9583 164.528 48.1438 164.885 48.5149C165.256 48.8717 165.442 49.307 165.442 49.8207C165.442 50.3345 165.256 50.7769 164.885 51.148C164.528 51.5048 164.093 51.6832 163.579 51.6832C163.066 51.6832 162.623 51.5048 162.252 51.148C161.895 50.7769 161.717 50.3345 161.717 49.8207ZM167.792 53.0961H170.746V54.4661H170.789C170.917 54.2806 171.081 54.0951 171.281 53.9095C171.495 53.7097 171.738 53.5313 172.009 53.3743C172.294 53.2174 172.601 53.0889 172.929 52.989C173.258 52.8891 173.607 52.8392 173.978 52.8392C174.749 52.8392 175.448 52.9747 176.076 53.2459C176.704 53.5028 177.239 53.8738 177.682 54.3591C178.138 54.83 178.488 55.3938 178.731 56.0503C178.973 56.7067 179.095 57.4275 179.095 58.2124C179.095 58.9402 178.98 59.6395 178.752 60.3103C178.538 60.9668 178.224 61.5519 177.81 62.0657C177.411 62.5795 176.918 62.9934 176.333 63.3073C175.748 63.607 175.084 63.7569 174.342 63.7569C173.671 63.7569 173.044 63.657 172.458 63.4572C171.888 63.2431 171.417 62.8863 171.045 62.3868H171.003V68.3809H167.792V53.0961ZM170.746 58.298C170.746 59.083 170.967 59.718 171.409 60.2033C171.866 60.6885 172.501 60.9311 173.315 60.9311C174.128 60.9311 174.756 60.6885 175.199 60.2033C175.655 59.718 175.884 59.083 175.884 58.298C175.884 57.5131 175.655 56.878 175.199 56.3928C174.756 55.9075 174.128 55.6649 173.315 55.6649C172.501 55.6649 171.866 55.9075 171.409 56.3928C170.967 56.878 170.746 57.5131 170.746 58.298Z" fill="white"/>
</svg>
