<svg width="15" height="15" viewBox="0 0 15 15" fill="none" xmlns="http://www.w3.org/2000/svg">
<path d="M7.5 13.125C6.72584 13.125 5.99667 12.9771 5.3125 12.6813C4.62834 12.385 4.0325 11.9829 3.525 11.475C3.0175 10.9671 2.61542 10.3712 2.31875 9.6875C2.02209 9.00375 1.87417 8.27458 1.875 7.5C1.875 6.72333 2.02292 5.99354 2.31875 5.31062C2.615 4.62729 3.01709 4.03208 3.525 3.525C4.03292 3.01792 4.62875 2.61583 5.3125 2.31875C5.99667 2.02292 6.72584 1.875 7.5 1.875C8.27667 1.875 9.00646 2.02292 9.68938 2.31875C10.3727 2.615 10.9681 3.01708 11.4756 3.525C11.9831 4.03292 12.385 4.62812 12.6813 5.31062C12.9771 5.99396 13.125 6.72375 13.125 7.5C13.125 8.27417 12.9771 9.00333 12.6813 9.6875C12.385 10.3717 11.9829 10.9675 11.475 11.475C10.9671 11.9825 10.3719 12.3846 9.68938 12.6813C9.00688 12.9779 8.27709 13.1258 7.5 13.125ZM7.5 12.505C7.86667 12.0337 8.16917 11.571 8.4075 11.1169C8.64542 10.6627 8.83896 10.1544 8.98813 9.59188H6.01188C6.1773 10.186 6.3748 10.7102 6.60438 11.1644C6.83438 11.6185 7.13292 12.0654 7.5 12.505ZM6.70438 12.4112C6.41271 12.0675 6.14646 11.6425 5.90563 11.1363C5.6648 10.6304 5.48563 10.1154 5.36813 9.59125H2.97125C3.32959 10.3683 3.8373 11.0058 4.49438 11.5038C5.15188 12.0013 5.88855 12.3037 6.70438 12.4112ZM8.29563 12.4112C9.11146 12.3037 9.84813 12.0013 10.5056 11.5038C11.1627 11.0058 11.6704 10.3683 12.0288 9.59125H9.6325C9.47417 10.1233 9.2748 10.6423 9.03438 11.1481C8.79355 11.6544 8.5473 12.0758 8.29563 12.4112ZM2.71625 8.96688H5.23813C5.19063 8.71021 5.1573 8.46021 5.13813 8.21688C5.11813 7.97396 5.10813 7.735 5.10813 7.5C5.10813 7.265 5.11792 7.02604 5.1375 6.78312C5.15709 6.54021 5.19042 6.29021 5.2375 6.03312H2.71688C2.64896 6.24979 2.59584 6.48583 2.5575 6.74125C2.51917 6.99625 2.5 7.24917 2.5 7.5C2.5 7.75083 2.51896 8.00396 2.55688 8.25938C2.5948 8.51479 2.64792 8.75042 2.71625 8.96625M5.86313 8.96625H9.13688C9.18438 8.71 9.21771 8.46417 9.23688 8.22875C9.25688 7.99375 9.26688 7.75083 9.26688 7.5C9.26688 7.24917 9.25709 7.00625 9.2375 6.77125C9.21792 6.53625 9.18459 6.29042 9.1375 6.03375H5.8625C5.81542 6.29 5.78209 6.53583 5.7625 6.77125C5.74292 7.00625 5.73313 7.24917 5.73313 7.5C5.73313 7.75083 5.74292 7.99375 5.7625 8.22875C5.78209 8.46375 5.81604 8.70958 5.86313 8.96625ZM9.7625 8.96625H12.2838C12.3517 8.75 12.4048 8.51438 12.4431 8.25938C12.481 8.00396 12.5 7.75083 12.5 7.5C12.5 7.24917 12.481 6.99604 12.4431 6.74062C12.4052 6.48521 12.3521 6.24958 12.2838 6.03375H9.76188C9.80938 6.29 9.84271 6.53979 9.86188 6.78312C9.88188 7.02646 9.89188 7.26542 9.89188 7.5C9.89188 7.73458 9.88209 7.97354 9.8625 8.21688C9.84292 8.46021 9.80959 8.71021 9.7625 8.96688M9.6325 5.40875H12.0288C11.6625 4.61542 11.1608 3.97792 10.5238 3.49625C9.88667 3.01458 9.14396 2.70813 8.29563 2.57688C8.5873 2.96063 8.84959 3.39958 9.0825 3.89375C9.31542 4.3875 9.49875 4.8925 9.6325 5.40875ZM6.01188 5.40875H8.98813C8.82313 4.82208 8.61959 4.29167 8.3775 3.8175C8.13542 3.34333 7.84292 2.9025 7.5 2.495C7.15709 2.90208 6.86459 3.34292 6.6225 3.8175C6.38042 4.29208 6.17646 4.8225 6.01188 5.40875ZM2.97188 5.40875H5.36813C5.50188 4.89292 5.68521 4.38792 5.91813 3.89375C6.15105 3.39958 6.41334 2.96063 6.705 2.57688C5.84917 2.70854 5.10459 3.01688 4.47125 3.50188C3.83792 3.98771 3.33792 4.62312 2.97125 5.40812" fill="#495057"/>
</svg>
