<svg width="15" height="15" viewBox="0 0 15 15" fill="none" xmlns="http://www.w3.org/2000/svg">
<path d="M3.125 3.125H6.875C7.21875 3.125 7.5 2.84375 7.5 2.5C7.5 2.15625 7.21875 1.875 6.875 1.875H3.125C2.4375 1.875 1.875 2.4375 1.875 3.125V11.875C1.875 12.5625 2.4375 13.125 3.125 13.125H6.875C7.21875 13.125 7.5 12.8438 7.5 12.5C7.5 12.1562 7.21875 11.875 6.875 11.875H3.125V3.125Z" fill="#495057"/>
<path d="M12.9062 7.28085L11.1625 5.5371C11.119 5.49244 11.0632 5.46177 11.0022 5.44901C10.9412 5.43626 10.8778 5.44199 10.8201 5.46548C10.7624 5.48897 10.713 5.52915 10.6782 5.58088C10.6435 5.63261 10.6249 5.69353 10.625 5.75585V6.8746H6.25C5.90625 6.8746 5.625 7.15585 5.625 7.4996C5.625 7.84335 5.90625 8.1246 6.25 8.1246H10.625V9.24335C10.625 9.5246 10.9625 9.6621 11.1563 9.4621L12.9 7.71835C13.025 7.5996 13.025 7.3996 12.9062 7.28085Z" fill="#495057"/>
</svg>
