<svg width="43" height="51" viewBox="0 0 43 51" fill="none" xmlns="http://www.w3.org/2000/svg">
<path d="M8.06381 36.125C7.8094 36.125 7.59679 36.023 7.42598 35.819C7.25518 35.615 7.16918 35.3621 7.16798 35.0604C7.16679 34.7586 7.25279 34.5065 7.42598 34.3039C7.59918 34.1013 7.81179 34 8.06381 34H26.7384C26.9928 34 27.2054 34.102 27.3762 34.306C27.547 34.51 27.633 34.7629 27.6342 35.0646C27.6354 35.3664 27.5494 35.6185 27.3762 35.8211C27.203 36.0237 26.9904 36.125 26.7384 36.125H8.06381ZM33.9337 33.4517L28.2057 26.7006C27.9167 26.3592 27.7721 25.959 27.7721 25.5C27.7721 25.041 27.9167 24.6408 28.2057 24.2994L33.9319 17.5886C34.0991 17.3903 34.3052 17.284 34.55 17.2699C34.7925 17.2557 35.0093 17.362 35.2004 17.5886C35.3915 17.8153 35.4871 18.066 35.4871 18.3409C35.4871 18.6157 35.3915 18.8658 35.2004 19.091L29.6946 25.5L35.2004 31.9494C35.3915 32.1378 35.4871 32.3786 35.4871 32.6719C35.4871 32.9651 35.3915 33.2251 35.2004 33.4517C35.0403 33.6501 34.8373 33.7492 34.5912 33.7492C34.3428 33.7492 34.1248 33.6501 33.9337 33.4517ZM8.06381 26.5625C7.8094 26.5625 7.59679 26.4605 7.42598 26.2565C7.25518 26.0525 7.16918 25.7996 7.16798 25.4979C7.16679 25.1961 7.25279 24.944 7.42598 24.7414C7.59918 24.5388 7.81179 24.4375 8.06381 24.4375H21.6393C21.8937 24.4375 22.1063 24.5395 22.2771 24.7435C22.4479 24.9475 22.5339 25.2004 22.5351 25.5021C22.5363 25.8039 22.4503 26.056 22.2771 26.2586C22.1039 26.4612 21.8913 26.5625 21.6393 26.5625H8.06381ZM8.06381 17C7.8094 17 7.59679 16.898 7.42598 16.694C7.25518 16.49 7.16918 16.2371 7.16798 15.9354C7.16679 15.6336 7.25279 15.3815 7.42598 15.1789C7.59918 14.9763 7.81179 14.875 8.06381 14.875H26.7384C26.9928 14.875 27.2054 14.977 27.3762 15.181C27.547 15.385 27.633 15.6379 27.6342 15.9396C27.6354 16.2414 27.5494 16.4935 27.3762 16.6961C27.203 16.8987 26.9904 17 26.7384 17H8.06381Z" fill="#495057"/>
</svg>
