<svg width="15" height="15" viewBox="0 0 15 15" fill="none" xmlns="http://www.w3.org/2000/svg">
<g clip-path="url(#clip0_5208_10044)">
<path fill-rule="evenodd" clip-rule="evenodd" d="M1.87516 7.50042C1.87478 7.3772 1.89878 7.25513 1.94576 7.14122C1.99275 7.02731 2.06179 6.92381 2.14892 6.83668C2.23604 6.74955 2.33954 6.68051 2.45345 6.63353C2.56736 6.58654 2.68944 6.56255 2.81266 6.56292H12.1877C12.3109 6.56255 12.433 6.58654 12.5469 6.63353C12.6608 6.68051 12.7643 6.74955 12.8514 6.83668C12.9385 6.92381 13.0076 7.02731 13.0546 7.14122C13.1015 7.25513 13.1255 7.3772 13.1252 7.50042V13.1254C13.1255 13.2486 13.1015 13.3707 13.0546 13.4846C13.0076 13.5985 12.9385 13.702 12.8514 13.7892C12.7643 13.8763 12.6608 13.9453 12.5469 13.9923C12.433 14.0393 12.3109 14.0633 12.1877 14.0629H2.81266C2.68944 14.0633 2.56736 14.0393 2.45345 13.9923C2.33954 13.9453 2.23604 13.8763 2.14892 13.7892C2.06179 13.702 1.99275 13.5985 1.94576 13.4846C1.89878 13.3707 1.87478 13.2486 1.87516 13.1254V7.50042ZM4.68766 3.75042C4.68766 3.00417 4.98391 2.28792 5.51172 1.76292C6.03953 1.23792 6.75859 0.938857 7.49922 0.938857C8.24482 0.939106 8.9598 1.2354 9.48702 1.76262C10.0142 2.28984 10.3105 3.00482 10.3108 3.75042V5.62542H4.68578V3.75042H4.68766ZM11.2502 3.75042V5.62542H12.1877C12.6836 5.62641 13.159 5.82388 13.5097 6.17459C13.8604 6.5253 14.0579 7.00069 14.0589 7.49667V13.1217C14.0589 13.6185 13.8611 14.0967 13.5095 14.4435C13.158 14.7904 12.6808 14.9929 12.1877 14.9929H2.81266C2.31667 14.9919 1.84129 14.7945 1.49058 14.4437C1.13986 14.093 0.942397 13.6177 0.941406 13.1217V7.49667C0.942397 7.00069 1.13986 6.5253 1.49058 6.17459C1.84129 5.82388 2.31667 5.62641 2.81266 5.62542H3.75016V3.75042C3.75016 2.75667 4.14484 1.80042 4.84703 1.09729C5.5509 0.39405 6.50518 -0.000976563 7.50016 -0.000976562C8.49514 -0.000976563 9.44941 0.39405 10.1533 1.09729C10.8564 1.80042 11.2502 2.75667 11.2502 3.75042Z" fill="#495057"/>
</g>
<defs>
<clipPath id="clip0_5208_10044">
<rect width="15" height="15" fill="white"/>
</clipPath>
</defs>
</svg>
