<svg width="15" height="15" viewBox="0 0 15 15" fill="none" xmlns="http://www.w3.org/2000/svg">
<path d="M1.875 10.625H3.37312C3.87558 10.625 4.37061 10.5038 4.81626 10.2717C5.2619 10.0396 5.64502 9.70352 5.93313 9.29187L6.04375 9.13375M8.33125 5.86688L8.44187 5.70813C8.72998 5.29648 9.1131 4.96037 9.55874 4.7283C10.0044 4.49623 10.4994 4.37504 11.0019 4.375H13.125" stroke="#495057" stroke-width="1.25" stroke-linecap="round" stroke-linejoin="round"/>
<path d="M11.25 2.5L13.125 4.375L11.25 6.25M1.875 4.375H3.37312C3.87558 4.37504 4.37061 4.49623 4.81626 4.7283C5.2619 4.96037 5.64502 5.29648 5.93313 5.70813L8.44187 9.29187C8.72998 9.70352 9.1131 10.0396 9.55874 10.2717C10.0044 10.5038 10.4994 10.625 11.0019 10.625H13.125" stroke="#495057" stroke-width="1.25" stroke-linecap="round" stroke-linejoin="round"/>
<path d="M11.25 12.5L13.125 10.625L11.25 8.75" stroke="#495057" stroke-width="1.25" stroke-linecap="round" stroke-linejoin="round"/>
</svg>
