<svg width="154" height="116" viewBox="0 0 154 116" fill="none" xmlns="http://www.w3.org/2000/svg">
<path d="M139.102 113.893C155.438 101.471 162.714 67.0262 136.188 50.1358C118.627 38.9558 107.705 45.3336 87.9488 37.9376C63.8309 28.911 60.2361 1.63872 30.8998 15.0582C15.3579 22.1652 4.58382 42.1963 2.68838 64.9622C0.830779 87.2569 8.73246 102.555 24.8798 113.022C62.7989 114.636 100.794 114.343 139.102 113.893Z" fill="#DFF3FC"/>
<path d="M71.9891 15.9175C69.5216 25.8247 78.6847 35.6321 88.338 39.6982C97.9917 43.7677 109.062 43.2827 119.404 41.3425C123.866 40.5066 128.453 39.3301 131.92 36.4852C135.387 33.6403 137.396 28.7005 135.496 24.7101C133.82 21.191 129.738 19.3884 125.846 18.4631C121.955 17.5377 117.822 17.1593 114.355 15.2123C111.068 13.365 108.736 10.3068 105.877 7.88506C100.594 3.4165 93.174 1.20113 86.3064 2.61498C79.435 4.02882 74.0865 7.49634 71.9891 15.9175Z" fill="#DFF3FC"/>
<path d="M145.899 61.4858V53.9907H143.057C142.715 52.6804 142.195 51.4447 141.528 50.3064L143.538 48.2937L138.237 42.9933L136.225 45.003C135.087 44.3363 133.851 43.8162 132.54 43.4746V40.6328H125.045V43.4746C123.735 43.8162 122.499 44.3363 121.361 45.003L119.348 42.9933L114.048 48.2937L116.058 50.3064C115.391 51.4444 114.874 52.68 114.529 53.9907H111.688V61.4858H114.529C114.874 62.7961 115.391 64.0317 116.058 65.17L114.048 67.1827L119.348 72.4831L121.361 70.4734C122.499 71.1401 123.735 71.6571 125.045 72.0018V74.8436H132.54V72.0018C133.851 71.6571 135.086 71.1401 136.225 70.4734L138.237 72.4831L143.538 67.1827L141.528 65.17C142.195 64.032 142.715 62.7964 143.057 61.4858H145.899ZM128.795 64.2319C125.208 64.2319 122.3 61.3234 122.3 57.7362C122.3 54.1527 125.208 51.2445 128.795 51.2445C132.379 51.2445 135.287 54.1527 135.287 57.7362C135.287 61.3237 132.379 64.2319 128.795 64.2319Z" fill="#0000FE"/>
<path d="M123.251 80.265L121.825 76.5481L120.416 77.0889C119.997 76.5041 119.504 75.9902 118.957 75.5526L119.571 74.1721L115.934 72.5519L115.318 73.9313C114.627 73.8171 113.915 73.7944 113.2 73.8742L112.66 72.4648L108.943 73.8907L109.483 75.3001C108.899 75.7187 108.385 76.2117 107.947 76.759L106.567 76.1453L104.946 79.7821L106.326 80.3978C106.212 81.0889 106.191 81.8003 106.269 82.5155L104.859 83.0563L106.285 86.7732L107.695 86.2324C108.115 86.8169 108.606 87.3312 109.154 87.7687L108.54 89.1492L112.177 90.7694L112.792 89.39C113.483 89.5042 114.195 89.5252 114.91 89.4471L115.451 90.8565L119.168 89.4306L118.627 88.0212C119.211 87.6008 119.726 87.1096 120.163 86.5623L121.544 87.176L123.164 83.5392L121.785 82.9235C121.899 82.2324 121.921 81.5206 121.842 80.8058L123.251 80.265ZM115.292 84.8812C113.513 85.5637 111.517 84.6748 110.834 82.8956C110.152 81.1185 111.041 79.123 112.821 78.4405C114.598 77.7587 116.593 78.6479 117.275 80.4247C117.958 82.2035 117.069 84.1994 115.292 84.8812Z" stroke="#0000FE" stroke-miterlimit="10"/>
<path d="M111.072 67.2274L110.109 64.7159L109.156 65.0812C108.874 64.686 108.54 64.3389 108.171 64.043L108.585 63.1101L106.128 62.0155L105.711 62.9478C105.244 62.8707 104.763 62.8552 104.28 62.9092L103.915 61.957L101.403 62.9206L101.769 63.8728C101.373 64.1555 101.026 64.4889 100.731 64.8583L99.7976 64.4438L98.703 66.9013L99.6353 67.3176C99.5582 67.7847 99.5437 68.2653 99.5967 68.7486L98.6445 69.1139L99.6081 71.6255L100.56 71.2602C100.844 71.6551 101.176 72.0025 101.546 72.2984L101.132 73.2313L103.589 74.3259L104.005 73.3937C104.473 73.4707 104.953 73.4852 105.436 73.4322L105.802 74.3844L108.313 73.4208L107.948 72.4686C108.343 72.1848 108.69 71.8525 108.986 71.4831L109.919 71.8976L111.013 69.4401L110.081 69.0238C110.158 68.5567 110.174 68.0758 110.12 67.5928L111.072 67.2274ZM105.694 70.3462C104.492 70.8071 103.144 70.2065 102.682 69.0046C102.222 67.8037 102.822 66.4555 104.024 65.9942C105.225 65.5336 106.573 66.1342 107.034 67.3351C107.496 68.5371 106.895 69.8855 105.694 70.3462Z" stroke="#0000FE" stroke-miterlimit="10"/>
<path d="M110.197 23.2543C110.197 27.0204 108.437 30.3775 105.698 32.5468C103.681 34.147 101.132 35.0965 98.3543 35.0965C95.584 35.0965 93.034 34.147 91.0106 32.5468C88.2685 30.3775 86.5117 27.0204 86.5117 23.2543C86.5117 16.7142 91.8141 11.4117 98.3543 11.4117C104.894 11.4117 110.197 16.7142 110.197 23.2543Z" fill="#0000FE" stroke="#0000FE" stroke-miterlimit="10"/>
<path d="M81.3359 52.4475V46.5995C81.3359 45.0033 82.6294 43.7099 84.2255 43.7099H102.65C104.246 43.7099 105.54 45.0033 105.54 46.5995V52.4475C105.54 54.0437 104.246 55.3371 102.65 55.3371H84.229C82.6328 55.3405 81.3359 54.0437 81.3359 52.4475Z" fill="#0000FE"/>
<path d="M89.1157 52.1414L80.1992 60.8274L94.6507 53.5242" fill="#0000FE"/>
<path d="M35.858 44.1692C38.5128 38.464 36.0398 31.6868 30.3346 29.0321C24.6293 26.3774 17.8522 28.8503 15.1974 34.5556C12.5427 40.2608 15.0157 47.038 20.7209 49.6927C26.4262 52.3474 33.2033 49.8745 35.858 44.1692Z" fill="#0000FE"/>
<path d="M21.3913 45.9455L21.2578 44.1946L22.7078 43.2039L24.2909 43.9638L24.424 45.7147L22.9744 46.7058L21.3913 45.9455Z" fill="#0000FE"/>
<path d="M26.8398 34.5946L26.9348 32.3682L28.6125 30.9017L30.1956 31.662L30.1006 33.8883L28.4226 35.3545L26.8398 34.5946Z" fill="#0000FE"/>
<path d="M33.4375 45.4925C33.8445 45.3037 40.3815 45.6019 40.3815 45.6019L35.6694 41.2758L33.4375 45.4925Z" fill="#0000FE"/>
<path d="M62.2863 20.0969C64.7416 14.4206 62.1305 7.82873 56.4543 5.37344C50.7781 2.91815 44.1861 5.52924 41.7309 11.2055C39.2756 16.8817 41.8867 23.4736 47.5629 25.9289C53.2391 28.3842 59.831 25.7731 62.2863 20.0969Z" fill="#0000FE"/>
<path d="M82.4125 91.4778C81.7486 81.2403 86.2275 70.6451 93.7714 64.5839C94.0053 74.8729 89.5711 85.2858 82.4125 91.4778Z" fill="#0000FE"/>
<path d="M92.5391 67.3393C89.3606 73.263 86.612 79.4619 84.3278 85.8568C81.5518 93.6209 79.3674 101.87 74.6133 108.378" stroke="#0000FE" stroke-miterlimit="10" stroke-linecap="round"/>
<path d="M80.0312 97.9175C83.8496 89.376 91.428 82.9225 99.7837 81.0959C96.2268 90.2497 88.2253 97.2329 80.0312 97.9175Z" fill="#0000FE"/>
<path d="M97.7341 82.9775C92.0271 87.9999 86.2238 92.8813 80.3242 97.6182" stroke="#0000FE" stroke-miterlimit="10" stroke-linecap="round"/>
<path d="M77.7773 105.358C82.8789 97.7386 92.2907 93.762 100.079 95.936C94.3513 103.459 84.9188 107.446 77.7773 105.358Z" fill="#0000FE"/>
<path d="M98.2094 96.4864C91.5221 100.669 84.3084 103.759 76.8711 105.616" stroke="#0000FE" stroke-miterlimit="10" stroke-linecap="round"/>
<path d="M80.534 95.3271C82.1646 86.7478 79.7187 77.1846 74.2732 70.8584C72.0407 79.2898 74.17 89.1695 80.534 95.3271Z" fill="#0000FE"/>
<path d="M74.832 73.0463C75.9053 81.0271 77.8145 88.5022 80.7729 95.8087" stroke="#0000FE" stroke-miterlimit="10" stroke-linecap="round"/>
<path d="M77.733 102.634C77.0381 93.8135 72.5179 85.53 65.9062 80.9583C66.2881 85.6298 67.5299 90.1327 69.5011 94.2263C71.768 98.9288 75.0979 101.911 77.733 102.634Z" fill="#0000FE"/>
<path d="M66.8867 82.7436C69.4874 90.0983 73.2301 96.9164 77.8982 102.819" stroke="#0000FE" stroke-miterlimit="10" stroke-linecap="round"/>
<path d="M128.793 100.518C132.402 91.1303 140.702 83.5142 149.856 81.1956C145.845 90.4561 137.658 97.9209 128.793 100.518Z" fill="#0000FE"/>
<path d="M147.639 83.1461C142.403 87.1262 137.429 91.526 132.792 96.2904C127.157 102.076 121.842 108.53 114.973 112.39" stroke="#0000FE" stroke-miterlimit="10" stroke-linecap="round"/>
<path d="M124.051 105.282C130.927 99.2315 140.27 96.5759 148.403 98.3578C141.509 105.062 131.574 108.017 124.051 105.282Z" fill="#0000FE"/>
<path d="M145.82 99.2006C138.716 101.347 131.585 103.325 124.43 105.138" stroke="#0000FE" stroke-miterlimit="10" stroke-linecap="round"/>
<path d="M119.008 110.993C126.641 106.287 136.59 106.586 142.582 111.702C134.436 116.063 124.464 115.764 119.008 110.993Z" fill="#0000FE"/>
<path d="M140.706 111.426C133.083 112.424 125.436 112.231 118.105 110.852" stroke="#0000FE" stroke-miterlimit="10" stroke-linecap="round"/>
<path d="M125.559 103.181C130.516 96.2044 132.274 86.6859 130.055 78.8289C124.623 85.4268 122.456 95.0967 125.559 103.181Z" fill="#0000FE"/>
<path d="M129.655 81.003C127.329 88.5504 125.957 95.9876 125.578 103.707" stroke="#0000FE" stroke-miterlimit="10" stroke-linecap="round"/>
<path d="M120.087 108.547C123.086 100.408 122.488 91.182 118.518 84.412C116.942 88.7292 116.192 93.246 116.258 97.6973C116.33 102.809 118.05 106.827 120.087 108.547Z" fill="#0000FE"/>
<path d="M118.649 86.4004C117.934 94.0131 118.447 101.616 120.153 108.778" stroke="#0000FE" stroke-miterlimit="10" stroke-linecap="round"/>
<path d="M26.5241 84.1045C22.8454 72.8526 12.5794 63.761 0.636719 61.181C5.65774 70.9152 14.7645 78.6624 26.5241 84.1045Z" fill="#0000FE"/>
<path d="M27.1453 85.8499C19.0871 81.293 8.99067 80.2881 0.238281 83.1688C8.35634 87.2239 17.9753 88.3536 27.1453 85.8499Z" fill="#0000FE"/>
<path d="M29.3748 88.2899C20.6658 87.0828 11.5456 89.2297 4.47266 94.1507C12.493 97.0661 22.115 95.1754 29.3748 88.2899Z" fill="#0000FE"/>
<path d="M32.0912 93.6202C23.4668 93.5845 14.9872 97.6832 9.91797 104.339C13.7563 105.108 17.8324 104.648 21.3536 103.053C24.8747 101.458 27.8249 98.7369 32.0912 93.6202Z" fill="#0000FE"/>
<path d="M38.1694 102.538C29.6654 101.081 20.6045 103.716 14.4727 109.431C18.1328 110.821 22.2309 111.044 25.9753 110.056C29.7201 109.069 33.0917 106.876 38.1694 102.538Z" fill="#0000FE"/>
<path d="M28.9878 84.6373C23.3724 77.0683 21.8485 66.8687 25.0387 58.1917C27.4749 62.3172 29.5771 66.6792 30.5582 71.3156C31.5393 75.9524 31.3487 80.8957 28.9878 84.6373Z" fill="#0000FE"/>
<path d="M32.4196 91.9401C31.0897 83.8984 33.8393 75.3755 39.647 69.5516C40.3154 77.8712 37.7698 86.3467 32.4196 91.9401Z" fill="#0000FE"/>
<path d="M3.25 63.1972C20.3413 74.1326 33.7078 90.4324 40.7635 108.951" stroke="#0000FE" stroke-miterlimit="10" stroke-linecap="round"/>
<path d="M25.5703 62.1821C27.6491 70.6235 28.914 79.2417 29.3419 87.8854" stroke="#0000FE" stroke-miterlimit="10" stroke-linecap="round"/>
<path d="M38.3706 72.8165C37.6895 79.627 35.5849 86.2834 32.2227 92.279" stroke="#0000FE" stroke-miterlimit="10" stroke-linecap="round"/>
<path d="M3.83594 83.3652C11.6716 84.8551 19.6359 85.6628 27.6015 85.7815" stroke="#0000FE" stroke-miterlimit="10" stroke-linecap="round"/>
<path d="M8.55859 93.4816C15.7836 92.9567 22.8917 91.2064 29.4621 88.3312" stroke="#0000FE" stroke-miterlimit="10" stroke-linecap="round"/>
<path d="M12.8867 103.124C19.5534 99.7981 26.2208 96.4685 32.8876 93.1431" stroke="#0000FE" stroke-miterlimit="10" stroke-linecap="round"/>
<path d="M17.2227 108.996C25.9269 107.317 28.5131 105.312 38.1736 102.539" stroke="#0000FE" stroke-miterlimit="10" stroke-linecap="round"/>
<path d="M72.3298 93.0533C72.3298 93.0533 73.0831 99.9574 73.9259 100.511C75.4326 101.505 92.8735 103.803 92.8735 103.803L92.3024 108.341C92.3024 108.341 68.415 110.487 67.4002 109.294C65.639 107.223 62.543 97.2329 62.543 97.2329L72.3298 93.0533Z" fill="#E06A58"/>
<path d="M60.8125 75.2788L62.7423 70.6451C62.7423 70.6451 67.978 73.1047 69.7049 76.1423C71.5522 79.3896 73.8123 96.655 73.8123 96.655C73.8123 96.655 64.569 98.7843 62.8696 97.8796C61.1703 96.9749 60.8125 75.2788 60.8125 75.2788Z" fill="#F2AE30"/>
<path d="M46.1125 53.7719C44.7605 53.2765 43.3295 52.8431 41.8813 52.9532C40.433 53.0633 38.9538 53.8304 38.4619 55.1032C38.111 56.0045 38.2727 57.0674 37.7189 57.8793C37.1891 58.6567 36.1365 58.9801 35.1526 59.0454C34.1653 59.1142 33.1712 58.9835 32.1908 59.1108C29.1636 59.5133 27.0033 62.8019 27.9974 65.4954C28.393 66.5687 29.2049 67.5938 29.0191 68.7118C28.823 69.9089 27.5674 70.6967 27.0514 71.8078C26.3669 73.287 27.1856 75.0793 28.5375 76.0872C29.8894 77.0917 31.6473 77.4735 33.3535 77.728C35.703 78.0789 38.1282 78.2441 40.4502 77.7487C42.7722 77.2533 44.991 76.0287 46.1916 74.116C46.7248 73.2698 47.0481 72.3135 47.6673 71.5189C48.947 69.878 51.214 69.2416 52.9993 68.0789C54.9498 66.8026 56.3809 64.3189 55.2319 62.3753C54.1242 60.5074 51.2415 60.0912 50.0857 58.2508C49.6075 57.4905 49.494 56.5858 49.1844 55.7568C48.8679 54.9243 48.1111 54.5046 46.1125 53.7719Z" fill="#0A2240"/>
<path d="M53.9918 76.6858C54.3324 77.0779 54.7349 77.5079 55.2921 77.5458C55.8804 77.587 56.3723 77.1708 56.7507 76.7683C58.7046 74.7009 59.9946 72.1622 60.5175 69.5443C60.0325 69.2691 59.5646 69.0042 59.1415 68.7566C58.7493 68.5226 58.4535 68.1959 58.2849 67.814C58.168 67.5319 58.1267 67.2361 58.1577 66.9265C58.4329 64.3396 58.6771 62.8982 59.5853 60.2735C55.2715 59.3 51.202 58.1442 48.8628 56.1902C48.5773 57.3942 48.2401 59.7506 47.5212 62.0864C46.7541 64.5598 45.5569 67.0056 43.5273 68.0582C47.5109 70.4112 51.0644 73.3352 53.9918 76.6858Z" fill="#F9A07B"/>
<path d="M58.156 66.9299C58.125 67.2395 58.1663 67.5388 58.2833 67.8174C55.7308 70.9134 50.0239 66.868 47.5195 62.0898C48.2385 59.7541 48.5756 57.3977 48.8611 56.1937C51.1969 58.1476 55.2698 59.3069 59.5836 60.2769C58.6754 62.9017 58.4312 64.3396 58.156 66.9299Z" fill="#E06A58"/>
<path d="M65.2633 104.357C64.6991 108.093 68.7308 112.114 68.8305 114.11C60.2684 114.11 42.3322 114.632 33.199 113.391C32.7828 111.086 37.2926 105.902 37.2926 100.783C37.2926 100.105 37.2651 99.3622 37.2101 98.5641C37.0656 96.28 36.7285 93.5624 36.3535 90.776C35.3353 83.3009 33.9799 75.3063 34.9809 73.6482C36.9417 70.4181 41.5273 68.2233 43.8011 67.2808C44.582 66.9574 45.0911 66.782 45.1289 66.7614C47.9807 71.6255 53.784 75.7741 55.9753 75.5884C56.5841 75.5402 58.3901 74.9107 59.5838 68.901C60.0482 69.1659 60.5126 69.4101 60.9736 69.6475C63.2405 70.8274 65.3665 71.801 65.9788 73.318C67.5956 77.3118 69.1814 87.3807 68.8305 90.9617C68.4762 94.5737 67.0245 97.3326 66.0063 100.958C65.7689 101.808 65.5522 102.709 65.3768 103.679C65.3321 103.896 65.2977 104.123 65.2633 104.357Z" fill="#FFC73C"/>
<path d="M68.8305 114.109C60.2684 114.109 42.3322 114.632 33.199 113.391C32.7828 111.086 37.2926 105.902 37.2926 100.783C37.2926 100.105 37.2651 99.3622 37.2101 98.5641C37.0656 96.28 36.7285 93.5624 36.3535 90.776C37.9737 92.4857 40.337 85.2616 41.3828 87.3772C47.0416 98.798 51.5033 101.801 59.257 101.801C61.5687 101.801 63.7015 101.481 66.0063 100.958C65.7689 101.808 65.5522 102.709 65.3768 103.679C65.3355 103.9 65.2977 104.127 65.2633 104.361C64.6991 108.089 68.7308 112.111 68.8305 114.109Z" fill="#FFBB33"/>
<path d="M60.9733 69.6475C60.6052 72.3204 59.5147 75.9221 56.343 76.8715C52.0568 78.1546 45.8545 70.1463 43.8008 67.2808C44.5817 66.9574 45.0908 66.782 45.1286 66.7614C47.9804 71.6255 53.7837 75.7741 55.9749 75.5884C56.5838 75.5402 58.3898 74.9107 59.5835 68.901C60.0479 69.1625 60.5123 69.4067 60.9733 69.6475Z" fill="#FCE172"/>
<path d="M62.7341 110.088L62.7031 113.071L116.023 113.387L116.133 110.006L62.7341 110.088Z" fill="#325F73"/>
<path d="M139.134 83.4797L137.947 82.2757L99.1092 82.0212L79.625 110.198L80.6432 111.017L139.134 83.4797Z" fill="#325F73"/>
<path d="M99.8604 83.0635L80.6445 111.017L117.349 111.199L139.135 83.4797L99.8604 83.0635Z" fill="#0B2D50"/>
<path d="M109.132 100.907C111.491 100.907 113.404 99.9503 113.404 98.7705C113.404 97.5907 111.491 96.6343 109.132 96.6343C106.772 96.6343 104.859 97.5907 104.859 98.7705C104.859 99.9503 106.772 100.907 109.132 100.907Z" fill="#3C738C"/>
<path d="M63.5239 55.4689C64.1293 52.2208 66.3564 49.9115 68.4988 50.3106C70.6413 50.71 71.8872 53.6663 71.2818 56.9143C70.6763 60.1624 68.4493 62.4717 66.3069 62.0726C64.1648 61.6736 62.9188 58.7169 63.5239 55.4689Z" fill="#56C4F9"/>
<path d="M71.2885 46.7199C70.8895 49.5476 69.627 52.6642 67.7866 56.1077C67.1399 53.2869 66.7271 49.8503 66.156 46.4137C65.5747 42.9703 64.8351 39.5269 63.5519 36.7129C63.263 36.0903 62.9499 35.4952 62.6094 34.9448C63.3696 34.8725 64.1402 34.9448 64.8729 35.1477C66.0184 35.4539 67.0917 36.0456 67.9689 36.8368C69.4275 38.1337 70.4044 39.9018 70.9858 41.7663C71.4639 43.3143 71.5499 44.9586 71.2885 46.7199Z" fill="#0B2D50"/>
<path d="M69.1288 49.6439C69.1081 50.2012 69.0703 50.7688 69.0187 51.333C68.2344 60.4834 64.3919 66.7614 58.5129 66.7614C50.2122 66.7614 44.832 57.4527 44.832 48.3333C44.832 39.3377 50.3429 32.8257 56.7929 33.5791C60.5116 34.0057 63.2292 35.2406 65.159 37.0501C66.4352 38.2541 67.3572 39.7092 67.9867 41.3638C68.7056 43.218 69.0531 45.3164 69.1253 47.5765C69.1253 47.5834 69.1322 47.5902 69.1322 47.5971C69.1597 48.2645 69.1528 48.9456 69.1288 49.6439Z" fill="#F9A07B"/>
<path d="M69.1283 49.6439C68.8807 48.7598 68.5126 47.8964 68.0103 47.1224C63.1152 49.6817 57.281 50.669 51.7495 49.7333C50.6968 50.6105 49.6683 51.474 48.6328 52.3374C48.6535 48.175 48.7119 45.3576 50.3356 43.3418C51.8595 41.4498 54.4017 40.7377 56.8097 40.4281C59.5204 40.0738 62.2759 40.0876 64.9797 40.4797C66.0151 40.6242 67.0884 40.8478 67.9897 41.3707C68.7087 43.2248 69.0561 45.3232 69.1283 47.5833C69.1283 47.5902 69.1352 47.5971 69.1352 47.604C69.1593 48.2644 69.1524 48.9456 69.1283 49.6439Z" fill="#E06A58"/>
<path d="M70.3256 44.0092C69.187 44.9724 67.7594 45.7704 66.1564 46.4172C61.5949 48.2576 55.6678 48.8664 51.0479 48.6428C48.7775 53.6308 47.859 55.4197 47.2776 59.7712C45.0588 57.6901 43.2528 53.8785 42.7162 50.8823C42.1864 47.8964 42.238 44.7625 43.0705 41.8282C44.3812 37.2014 47.687 34.7246 49.978 33.5206C50.5491 33.2076 51.0651 32.9909 51.4641 32.8326C54.3916 31.7009 57.6905 31.804 60.6936 32.7225C62.3311 33.2316 63.7105 34.0916 64.8698 35.1512C67.2124 37.2668 68.6607 40.1323 69.5964 42.2788C69.8922 42.9359 70.1296 43.531 70.3256 44.0092Z" fill="#0B2D50"/>
<path d="M71.2883 46.7199C71.0991 45.7189 70.817 44.7488 70.418 43.8131C70.1944 43.2834 69.9192 42.7708 69.5993 42.2754C68.5569 40.638 67.0399 39.2895 65.2064 38.6944C64.6835 37.9617 64.1331 37.3012 63.5552 36.7164C61.474 34.6008 59.0316 33.3899 56.4447 32.9668C54.2913 32.6194 52.0518 32.8154 49.9844 33.5172C50.5554 33.2042 51.0714 32.9874 51.4705 32.8292C54.3979 31.6974 57.6969 31.8006 60.7 32.7191C62.3374 33.2282 63.7169 34.0882 64.8761 35.1478C66.0217 35.4539 67.0949 36.0456 67.9721 36.8368C69.4307 38.1337 70.4077 39.9018 70.989 41.7663C71.4637 43.3143 71.5497 44.9586 71.2883 46.7199Z" fill="#225570"/>
<path d="M53.6914 52.3306C55.2256 51.4534 56.8184 51.0578 59.0509 51.873" stroke="#0B2D50" stroke-width="2" stroke-miterlimit="10" stroke-linecap="round"/>
<path d="M64.1953 52.2686C65.5094 51.2882 67.4564 51.1885 68.4712 52.2686" stroke="#0B2D50" stroke-width="2" stroke-miterlimit="10" stroke-linecap="round"/>
<path d="M62.6121 57.2704C62.7462 57.9653 62.674 59.5029 62.3438 60.1944" stroke="#CC454E" stroke-width="2" stroke-miterlimit="10" stroke-linecap="round"/>
<path d="M57.4259 57.7382C57.7755 57.7382 58.0589 57.2916 58.0589 56.7406C58.0589 56.1897 57.7755 55.743 57.4259 55.743C57.0764 55.743 56.793 56.1897 56.793 56.7406C56.793 57.2916 57.0764 57.7382 57.4259 57.7382Z" fill="#262D40"/>
<path d="M65.6994 57.2738C66.0489 57.2738 66.3323 56.8272 66.3323 56.2762C66.3323 55.7253 66.0489 55.2786 65.6994 55.2786C65.3498 55.2786 65.0664 55.7253 65.0664 56.2762C65.0664 56.8272 65.3498 57.2738 65.6994 57.2738Z" fill="#262D40"/>
<path d="M61.8288 61.5532C61.8288 61.5532 61.7049 61.794 61.4676 62.1208C61.0961 62.6196 60.4631 63.3076 59.5997 63.5759H59.5962C59.2316 63.6929 58.836 63.7341 58.3957 63.655C57.1022 63.4245 56.7617 62.2309 56.6997 61.3124C56.686 61.1335 56.686 60.9684 56.6894 60.817C56.6963 60.4455 56.7376 60.1978 56.7376 60.1978C58.7981 61.333 61.8288 61.5532 61.8288 61.5532Z" fill="#CC454E"/>
<path d="M59.5957 63.5725C59.2311 63.6894 58.8355 63.7307 58.3951 63.6516C57.1017 63.4211 56.7611 62.2274 56.6992 61.309C57.3253 61.3846 57.9307 61.6254 58.433 62.0073C58.9593 62.4098 59.3618 62.9567 59.5957 63.5725Z" fill="#E8729B"/>
<path d="M47.2958 50.7516C47.2958 50.7516 47.2236 46.4619 49.009 42.1997C51.2484 36.8505 55.8133 34.5629 60.2406 34.4081C65.576 34.2189 68.9162 37.8 68.9162 37.8C68.9162 37.8 67.179 34.7349 63.7528 33.8543C61.503 33.2764 58.1078 33.1835 55.3833 34.2912C52.5762 35.4298 49.0778 38.5912 47.8118 41.9314C46.5494 45.2717 45.9336 50.4729 45.9336 50.4729L47.2958 50.7516Z" fill="#3D86E0"/>
<path d="M47.2053 61.9177C49.4899 61.6802 51.0501 58.6816 50.6902 55.22C50.3304 51.7585 48.1867 49.1448 45.9021 49.3823C43.6176 49.6198 42.0574 52.6185 42.4172 56.0801C42.7771 59.5416 44.9208 62.1553 47.2053 61.9177Z" fill="#56C4F9"/>
<path d="M44.7444 51.412C46.2192 51.1905 47.731 53.1141 48.1208 55.7086C48.5106 58.303 47.6313 60.5862 46.1562 60.8077C44.6815 61.0292 43.1696 59.1056 42.7799 56.5111C42.3901 53.9167 43.2697 51.6336 44.7444 51.412Z" fill="#3D86E0"/>
<path d="M60.2779 66.8886C61.5014 66.8886 62.4932 66.271 62.4932 65.5091C62.4932 64.7473 61.5014 64.1297 60.2779 64.1297C59.0544 64.1297 58.0625 64.7473 58.0625 65.5091C58.0625 66.271 59.0544 66.8886 60.2779 66.8886Z" fill="#3A92C9"/>
<path d="M49.1484 60.8961C49.1484 60.8961 52.4027 65.0792 58.0615 65.5092" stroke="#3A92C9" stroke-width="2" stroke-miterlimit="10" stroke-linecap="round"/>
<path d="M62.7008 102.125L62.4876 107.625C62.4876 107.625 42.594 113.587 39.3088 111.702C37.7058 110.78 36.2094 105.709 35.0914 100.759C33.9218 95.5576 33.1719 90.4939 33.1719 90.4939L44.8335 88.2098C44.8335 88.2098 44.8404 95.3203 45.236 99.4311C45.377 100.962 45.58 102.076 45.8517 102.259C46.8803 102.936 62.7008 102.125 62.7008 102.125Z" fill="#F9A07B"/>
<path d="M45.236 99.4241C43.1169 100.112 39.0268 101.175 35.0914 100.755C33.9218 95.5541 33.1719 90.4905 33.1719 90.4905L44.8335 88.2063C44.8335 88.2029 44.8404 95.3133 45.236 99.4241Z" fill="#E06A58"/>
<path d="M62.1315 102.18C65.0899 101.547 70.0986 100.026 72.1763 99.5033C73.6521 99.1318 77.4946 101.12 78.5094 102.995C78.9531 103.814 79.3728 108.451 77.8351 107.973C77.0646 107.732 77.1918 105.743 76.951 104.932C76.755 104.271 76.1289 103.631 75.176 103.081C75.8124 104.667 75.7883 106.05 75.7195 107.763C75.7058 108.141 75.6817 108.537 75.4994 108.864C75.3136 109.19 74.9146 109.424 74.5706 109.28C74.2197 109.135 74.0993 108.698 74.0202 108.317C73.7484 106.996 73.4732 105.675 73.3631 104.182C73.3906 105.651 73.3597 107.123 73.2668 108.588C73.198 109.71 72.6407 110.326 71.9562 110.129C71.65 110.043 71.5262 109.761 71.3954 109.39C71.189 110.109 70.673 110.903 70.0057 110.601C69.5998 110.418 69.3486 108.953 69.4209 107.446C68.1412 108.241 66.6964 108.578 65.0314 108.654C63.5385 108.722 62.0111 108.444 61.1133 107.429C61.2027 105.843 61.7256 103.497 62.1315 102.18Z" fill="#F9A07B"/>
<path d="M71.4273 109.163C71.527 107.973 71.4238 106.765 71.1211 105.616" stroke="#CC454E" stroke-miterlimit="10" stroke-linecap="round"/>
<path d="M43.5246 76.672C42.6783 74.2881 39.5789 69.4102 39.5789 69.4102C39.5789 69.4102 34.8489 71.3778 33.1702 74.7181C30.3287 80.3734 31.7735 96.6102 31.7735 96.6102C35.6023 98.2133 43.2872 98.2374 46.5587 97.7764C46.5587 97.7764 45.2205 81.4364 43.5246 76.672Z" fill="#FFC73C"/>
<path d="M44.125 77.6696C45.415 83.8444 46.1064 89.603 46.3266 95.2446" stroke="#F2AE30" stroke-miterlimit="10" stroke-linecap="round"/>
<path d="M145.367 112.407H9.73438V115.809H145.367V112.407Z" fill="#0B2D50"/>
</svg>
